<?xml version="1.0" ?><!DOCTYPE svg  PUBLIC '-//W3C//DTD SVG 1.1//EN'  'http://www.w3.org/Graphics/SVG/1.1/DTD/svg11.dtd'><svg height="414.865mm" style="shape-rendering:geometricPrecision; text-rendering:geometricPrecision; image-rendering:optimizeQuality; fill-rule:evenodd; clip-rule:evenodd" version="1.1" viewBox="0 0 41486660 41486500" width="414.867mm" xml:space="preserve" xmlns="http://www.w3.org/2000/svg" xmlns:xlink="http://www.w3.org/1999/xlink"><defs><style type="text/css">
   <![CDATA[
    .fil12 {fill:#3CC3EF}
    .fil16 {fill:#4257A4}
    .fil71 {fill:#4357A4}
    .fil15 {fill:#445EA9}
    .fil41 {fill:#445FA9}
    .fil58 {fill:#4560AA}
    .fil70 {fill:#4567AF}
    .fil39 {fill:#45AEE2}
    .fil17 {fill:#4657A4}
    .fil14 {fill:#486DB3}
    .fil40 {fill:#4977BA}
    .fil13 {fill:#4B8FCB}
    .fil42 {fill:#4D57A4}
    .fil18 {fill:#5757A4}
    .fil57 {fill:#61CAE2}
    .fil43 {fill:#6758A3}
    .fil38 {fill:#6DCBDD}
    .fil19 {fill:#7157A2}
    .fil6 {fill:#71BF4F}
    .fil54 {fill:#72BF4F}
    .fil5 {fill:#73BF4F}
    .fil36 {fill:#73C388}
    .fil69 {fill:#73C7A8}
    .fil11 {fill:#73CDDB}
    .fil7 {fill:#74C04E}
    .fil35 {fill:#74C15C}
    .fil55 {fill:#74C273}
    .fil9 {fill:#74C595}
    .fil67 {fill:#75C04E}
    .fil68 {fill:#75C051}
    .fil8 {fill:#75C26F}
    .fil37 {fill:#75C9B5}
    .fil10 {fill:#75C9B9}
    .fil56 {fill:#76C8B3}
    .fil4 {fill:#7EC24D}
    .fil59 {fill:#7F57A2}
    .fil34 {fill:#83C44C}
    .fil44 {fill:#8657A2}
    .fil20 {fill:#8B57A1}
    .fil53 {fill:#8CC64B}
    .fil3 {fill:#92C84A}
    .fil33 {fill:#A1CD47}
    .fil66 {fill:#A4CE46}
    .fil21 {fill:#A657A1}
    .fil45 {fill:#A958A1}
    .fil60 {fill:#AB58A1}
    .fil2 {fill:#AFD143}
    .fil72 {fill:#B459A1}
    .fil52 {fill:#BDD641}
    .fil22 {fill:#BF559F}
    .fil46 {fill:#C6539D}
    .fil32 {fill:#CADB42}
    .fil61 {fill:#D44C9A}
    .fil1 {fill:#D4DF45}
    .fil23 {fill:#DA4798}
    .fil47 {fill:#E93793}
    .fil24 {fill:#ED3285}
    .fil73 {fill:#ED338C}
    .fil62 {fill:#ED3474}
    .fil25 {fill:#EE3360}
    .fil48 {fill:#EE3367}
    .fil74 {fill:#EE353A}
    .fil63 {fill:#EE353C}
    .fil26 {fill:#EE353F}
    .fil27 {fill:#EE3737}
    .fil49 {fill:#EE3A37}
    .fil64 {fill:#EF4437}
    .fil28 {fill:#EF4A37}
    .fil50 {fill:#F15D36}
    .fil75 {fill:#F16136}
    .fil29 {fill:#F26E35}
    .fil65 {fill:#F47F34}
    .fil51 {fill:#F48F34}
    .fil30 {fill:#F49A34}
    .fil31 {fill:#FFCC29}
    .fil0 {fill:#FFF212}
   ]]>
  </style></defs><g id="Layer_x0020_1"><g id="_686857936"><path class="fil0" d="M20765170 40392530c-609400,-3710 -1116130,258970 -1092940,573700 25700,289900 512790,516050 1093790,520260 601770,-5410 1088280,-232540 1113270,-522410 2440,-313610 -485070,-576410 -1114120,-571550z"/><path class="fil1" d="M23917510 40145980c-609690,38760 -1150020,346160 -1177890,669050 -32110,298460 423560,493420 1023920,448130 580440,-52700 1098200,-322530 1162700,-617580 56120,-318230 -397070,-547650 -1008730,-499600z"/><path class="fil2" d="M26995900 39411010c-612050,83960 -1146410,435980 -1220540,781700 -84780,323830 321740,501930 898710,412620 557870,-95090 1104110,-420030 1207940,-733560 90690,-333330 -308500,-544100 -886110,-460760z"/><path class="fil3" d="M29908250 38209790c-579150,117470 -1126480,523460 -1222410,897700 -111210,356700 232890,539100 786200,410200 515640,-125100 1047520,-498840 1187860,-844910 141490,-371530 -205260,-577060 -751650,-462990z"/><path class="fil4" d="M32588450 36578380c-517200,125280 -1058180,584970 -1187430,1005530 -130870,397810 161030,600390 673490,446400 493070,-158860 1006740,-584360 1160270,-964780 151960,-403630 -129600,-629940 -646330,-487150z"/><path class="fil5" d="M34991170 34546630c-491900,150730 -996210,644300 -1134870,1110210 -143080,446310 124220,668050 584180,508720 439420,-162910 915920,-627550 1091570,-1065710 157710,-444630 -81570,-694970 -540880,-553220z"/><path class="fil6" d="M37034390 32191650c-430770,129070 -900650,658600 -1041430,1177620 -146880,501930 90990,762840 507040,607220 393550,-157760 844030,-676610 1004210,-1151290 144140,-477440 -49380,-781720 -469820,-633550z"/><path class="fil7" d="M38688750 29558010c-381980,97430 -807070,649830 -930780,1213140 -129960,547780 91640,854180 461700,724990 356170,-146110 752860,-685290 891760,-1199780 134130,-533390 -47820,-870250 -422680,-738350z"/><path class="fil8" d="M39922470 26688850c-357730,95880 -725670,635910 -818020,1230740 -98080,579300 112360,953860 458430,838150 319480,-111360 656660,-647720 766550,-1204610 97700,-556260 -81780,-933910 -406960,-864280z"/><path class="fil9" d="M40689720 23709840c-326040,31640 -648100,577560 -700690,1188250 -62910,613080 160270,1041200 484830,959450 297110,-72190 582470,-600900 650220,-1181010 57260,-579390 -129220,-1024600 -434360,-966690z"/><path class="fil10" d="M40992890 20655970c-314650,1260 -589690,493770 -599130,1103400 -19190,629970 230800,1112360 543860,1084750 288540,-31950 528820,-550480 548630,-1131830 11060,-601840 -203620,-1057470 -493360,-1056320z"/><path class="fil11" d="M40832620 17598880c-315850,-51970 -555870,406170 -520610,1036840 23980,609790 313520,1126510 631610,1151410 292310,6770 495930,-459280 469410,-1039990 -35930,-581210 -291660,-1109940 -580410,-1148260z"/><path class="fil12" d="M40214950 14608780c-327940,-86610 -546860,317410 -472940,912710 68160,611550 407050,1161650 741210,1215240 311200,61970 489770,-373740 421000,-931960 -84460,-579240 -382510,-1097520 -689270,-1195990z"/><path class="fil13" d="M39154720 11755250c-352790,-120270 -564110,231070 -457200,793770 101440,578020 495070,1140420 860420,1236950 339190,91460 515230,-278390 401690,-833380 -118620,-536120 -469200,-1061410 -804910,-1197340z"/><path class="fil14" d="M37682280 9102840c-391370,-150000 -608280,151580 -471380,683700 120240,531440 567400,1086990 967180,1201580 385690,132190 576300,-180980 426600,-712810 -144140,-494800 -555110,-1021740 -922400,-1172470z"/><path class="fil15" d="M35837490 6709210c-429500,-157710 -665550,98640 -527260,571410 146280,505160 627900,1022420 1081510,1165230 432800,146730 639120,-137520 480770,-614130 -162420,-456550 -613460,-946620 -1035020,-1122510z"/><path class="fil16" d="M33667580 4624260c-476500,-158740 -744860,59530 -614550,480290 142460,453700 674020,948740 1164380,1082430 487070,152610 729230,-97200 571850,-526820 -160060,-407820 -665280,-873140 -1121680,-1035900z"/><path class="fil17" d="M31225370 2890120c-513700,-140170 -845030,40220 -713170,426030 114270,399870 669460,847470 1200850,968150 532000,137310 833730,-79370 684060,-470850 -150440,-367410 -677060,-778810 -1171740,-923330z"/><path class="fil18" d="M28549170 1533040c-554900,-113980 -924900,61770 -833700,401010 96230,365440 658340,759510 1236250,861420 562630,107360 914150,-103670 794150,-456540 -116950,-326980 -660690,-686860 -1196700,-805890z"/><path class="fil19" d="M25717920 591100c-578350,-74130 -1014210,104060 -952470,415290 72720,338280 603130,673550 1214650,742150 595270,74420 999430,-144140 913090,-472170 -78450,-300790 -616280,-605280 -1175270,-685270z"/><path class="fil20" d="M22755770 74990c-580700,-26960 -1046900,176280 -1040340,468590 24600,318080 541120,608040 1150870,632520 630680,35760 1088990,-203870 1037260,-519760 -38080,-288800 -545980,-542360 -1147790,-581350z"/><path class="fil21" d="M19769940 450c-581330,19890 -1079340,258200 -1111500,546740 -47770,315180 434680,565050 1064650,545750 629290,-9980 1122000,-284600 1123500,-599300 1420,-289720 -474820,-504400 -1076650,-493190z"/><path class="fil22" d="M16805790 363180c-580090,67860 -1108740,353340 -1180870,650480 -81690,324560 346490,547690 959540,484650 610660,-52730 1156520,-374910 1208050,-703890 37910,-302170 -407370,-488590 -986720,-431240z"/><path class="fil23" d="M13929330 1158450c-556830,110000 -1093130,447300 -1204430,766810 -115620,346040 258940,556420 838260,458250 594770,-92460 1134750,-460520 1230540,-818310 89080,-331030 -308110,-504600 -864370,-406750z"/><path class="fil24" d="M11186340 2376980c-514430,139020 -1035700,525200 -1182100,881250 -146580,380860 176750,591800 707600,472320 563310,-123830 1115590,-549040 1230920,-939840 113890,-366090 -223040,-547950 -756420,-413730z"/><path class="fil25" d="M8657840 3984720c-474640,160270 -977250,597780 -1151080,1004450 -155550,416080 120540,640790 607370,506920 518970,-140900 1048410,-610870 1177360,-1041690 148110,-420440 -156200,-613900 -633650,-469680z"/><path class="fil26" d="M6383610 5957320c-438130,175750 -902680,652360 -1065510,1091780 -159200,460030 62570,727260 508850,584090 465900,-138750 973100,-657130 1109970,-1135100 141660,-459310 -108740,-698560 -553310,-540770z"/><path class="fil27" d="M4418400 8255010c-380420,153590 -805800,667340 -964570,1160440 -143050,495070 48740,804360 446520,673400 420550,-129330 880130,-670370 1005320,-1187600 142670,-516780 -83660,-798290 -487270,-646240z"/><path class="fil28" d="M2811650 10830210c-336240,122120 -710420,653710 -844670,1188040 -120600,534420 53670,897380 410340,786110 374240,-96020 788710,-661010 897470,-1222590 123690,-563780 -91640,-893140 -463140,-751560z"/><path class="fil29" d="M1613250 13608340c-313530,103910 -638360,650220 -733320,1208080 -83840,557050 93930,963720 412790,898620 345720,-74190 703240,-627380 781460,-1220680 90050,-596210 -127630,-976780 -460930,-886020z"/><path class="fil30" d="M840030 16564280c-295050,64530 -564760,582350 -617350,1162820 -45140,600390 151850,1035640 450310,1003740 322920,-27610 628200,-548220 666840,-1157940 51680,-631060 -181600,-1064800 -499800,-1008620z"/><path class="fil31" d="M522170 19611300c-289920,25010 -516930,511610 -522170,1092600 4940,626350 231810,1113120 521730,1138430 313650,2860 576730,-484360 572230,-1136690 4680,-609400 -257080,-1116770 -571790,-1094340z"/><path class="fil0" d="M38693280 19532930c-456040,-4560 -834460,519290 -830750,1204020 -3210,650480 374500,1190990 831870,1168060 434270,-8650 779350,-549920 782880,-1168060 -4210,-655600 -348610,-1177860 -784000,-1204020z"/><path class="fil32" d="M38447680 22888940c-467120,30700 -882700,596190 -913160,1250490 -43080,676820 310590,1163620 770840,1117680 441450,-58650 825730,-621490 871430,-1262050 36190,-637360 -285310,-1125750 -729110,-1106120z"/><path class="fil33" d="M37571250 26162530c-489540,59330 -949800,639440 -1017270,1293720 -68190,631440 269260,1084900 752650,994730 462550,-93080 886200,-645600 973100,-1275240 67890,-606960 -240690,-1071570 -708480,-1013210z"/><path class="fil34" d="M36079540 29231590c-522650,82100 -1025520,653950 -1114040,1272850 -88490,598130 262830,990140 770900,886610 491220,-110350 960600,-655830 1071690,-1245100 94430,-584560 -223160,-1003210 -728550,-914360z"/><path class="fil5" d="M34039280 31953510c-567580,100210 -1115500,659520 -1202550,1228920 -97460,559700 262710,923490 810480,807950 534390,-124100 1046440,-648450 1164180,-1191250 109650,-555280 -227360,-943200 -772110,-845620z"/><path class="fil6" d="M31502110 34259150c-614460,100170 -1170800,610600 -1267470,1152990 -90790,517610 306820,846620 896000,735940 562280,-108030 1109700,-599130 1228710,-1106880 111120,-523350 -277180,-871370 -857240,-782050z"/><path class="fil35" d="M28561240 36047260c-646100,77960 -1220890,552160 -1281270,1049530 -78870,483470 375410,790850 985280,708010 598150,-88960 1169240,-539040 1255730,-1004030 98170,-493190 -335340,-832110 -959740,-753510z"/><path class="fil36" d="M25331180 37240570c-674760,48320 -1231600,476120 -1282510,952240 -26190,449570 447860,766950 1086100,715870 642300,-61920 1205700,-461880 1256880,-903210 70540,-469680 -411550,-814900 -1060470,-764900z"/><path class="fil37" d="M21924490 37788910c-683530,9770 -1213440,400040 -1214440,859420 -970,437240 521550,772690 1157430,762740 655720,-19540 1195930,-377240 1231450,-814130 10920,-455720 -505890,-824450 -1174440,-808030z"/><path class="fil38" d="M18479010 37681230c-671610,-28490 -1181180,331360 -1143990,790440 47260,438860 589300,807300 1246170,840940 636030,22390 1140400,-305880 1129420,-746390 -7920,-462340 -563960,-864660 -1231600,-884990z"/><path class="fil39" d="M15112400 36919280c-655360,-64360 -1114640,280420 -1034450,756470 80980,454230 647530,868520 1256250,933760 639680,64770 1116890,-246840 1065130,-707250 -55590,-483030 -623590,-925780 -1286930,-982980z"/><path class="fil40" d="M11959970 35527150c-617870,-87580 -1030360,257050 -922160,762220 98590,477260 656370,936780 1258060,1040220 596540,88110 1023630,-228210 955440,-715100 -79690,-513230 -652360,-1000590 -1291340,-1087340z"/><path class="fil41" d="M9145410 33568650c-576030,-98560 -945560,261530 -838910,790080 128600,526650 664250,1027580 1216410,1139840 578800,115270 956360,-228800 862310,-759710 -84700,-544220 -655460,-1082310 -1239810,-1170210z"/><path class="fil16" d="M6751640 31106690c-530950,-93850 -864220,298720 -748150,877370 113000,552010 614720,1086930 1129060,1201200 541190,119510 900740,-250520 801420,-826370 -99760,-597160 -627640,-1154290 -1182330,-1252200z"/><path class="fil42" d="M4882390 28257190c-494390,-83870 -810600,343370 -713780,956450 95200,585060 554960,1142660 1041990,1256610 495480,92460 839940,-320150 752130,-937990 -78810,-624090 -566990,-1196080 -1080340,-1275070z"/><path class="fil43" d="M3590290 25110970c-460460,-51110 -771430,426510 -711190,1048230 71480,626500 486600,1192460 940940,1272800 469400,63090 814010,-396340 755030,-1035490 -58120,-663250 -506040,-1247310 -984780,-1285540z"/><path class="fil44" d="M2920650 21782800c-440480,-10830 -767040,512250 -743730,1148280 31690,638270 403720,1198320 839230,1227250 462580,54290 821720,-455790 792290,-1127370 -21250,-667570 -424350,-1223060 -887790,-1248160z"/><path class="fil45" d="M2888990 18391150c-436860,35640 -794410,575910 -812720,1212970 -10950,654540 324650,1198750 761930,1197190 459370,-1650 849970,-569400 859090,-1235860 16280,-668550 -350190,-1202700 -808300,-1174300z"/><path class="fil46" d="M3485500 15081040c-446960,68540 -846830,632030 -904210,1256170 -51590,638210 262110,1130420 715010,1086690 472800,-33570 904390,-607040 948650,-1265260 49880,-648920 -295430,-1130950 -759450,-1077600z"/><path class="fil47" d="M4683900 11968750c-464970,86580 -914920,657780 -1003770,1255940 -82720,609890 224780,1064120 708220,985130 497340,-60470 978610,-650740 1049260,-1281470 78490,-624410 -260530,-1057860 -753710,-959600z"/><path class="fil48" d="M6442910 9130030c-507730,119120 -998710,666630 -1106620,1228940 -100790,573680 218500,986730 736090,895860 542390,-96790 1062850,-666850 1152760,-1267740 89160,-580060 -258910,-968270 -782230,-857060z"/><path class="fil26" d="M8684480 6677520c-542780,117860 -1067040,630020 -1191050,1164410 -103060,534470 248460,907910 808160,810330 581560,-99020 1128570,-635210 1228650,-1202790 97500,-544770 -290510,-881690 -845760,-771950z"/><path class="fil49" d="M11337280 4680320c-573320,101200 -1134690,580670 -1244900,1071920 -103440,508100 288660,859360 900970,760950 604660,-78900 1191220,-590450 1273710,-1113000 73450,-496930 -329100,-823250 -929780,-719870z"/><path class="fil50" d="M14307130 3208030c-612160,79980 -1182040,510810 -1275000,973390 -74010,475590 363440,820750 1010650,745740 638470,-60920 1218470,-521290 1277710,-1010860 58270,-467790 -388800,-782110 -1013360,-708270z"/><path class="fil51" d="M17487670 2310380c-640570,45820 -1203320,430210 -1244340,867160 -63390,464790 440240,814310 1100290,775110 671100,-33320 1236950,-448460 1250310,-913390 37670,-445960 -468910,-765220 -1106260,-728880z"/><path class="fil31" d="M20764430 2009210c-636850,3650 -1178100,348840 -1186630,783120 -22840,457370 517730,834990 1202460,831660 667610,4240 1209230,-372530 1187570,-829810 -7440,-434210 -547830,-780260 -1203400,-784970z"/><path class="fil0" d="M20774200 34477120c-714960,-2260 -1281770,474910 -1273410,1054560 14420,561840 581290,1010330 1277120,1013120 680050,-3590 1261230,-453870 1273650,-1015650 6300,-579470 -562340,-1055530 -1277360,-1052030z"/><path class="fil52" d="M24462840 34009660c-700680,24830 -1303310,535410 -1318970,1124830 -27540,573410 516350,1003120 1201110,972420 693210,-40760 1272560,-521020 1309790,-1086220 45050,-586210 -490780,-1042340 -1191930,-1011030z"/><path class="fil53" d="M27914050 32640660c-685410,47090 -1284710,592450 -1328970,1206110 -44000,596360 471910,1022130 1134810,966220 661720,-65510 1242190,-584180 1313430,-1174770 56680,-599370 -439010,-1051940 -1119270,-997560z"/><path class="fil7" d="M30912340 30454420c-653570,54050 -1236630,629850 -1294100,1276760 -55090,628560 419460,1077930 1055260,1010450 634650,-81960 1201760,-640480 1274030,-1254400 68100,-627380 -388890,-1096470 -1035190,-1032810z"/><path class="fil54" d="M33273530 27595120c-623460,50760 -1183100,653360 -1230450,1324380 -64270,677410 395550,1154560 1004950,1089460 602950,-80980 1135070,-661510 1201840,-1307430 63540,-659900 -367790,-1160970 -976340,-1106410z"/><path class="fil55" d="M34843320 24260740c-598130,37460 -1117150,632990 -1150410,1333380 -42610,703950 413230,1220040 1002030,1170830 574760,-59410 1063330,-634260 1113770,-1320090 38670,-675370 -387830,-1210760 -965390,-1184120z"/><path class="fil56" d="M35533760 20677800c-580970,2330 -1066180,566960 -1073100,1282690 -11860,707010 456200,1266760 1035110,1247070 559960,-16210 1019180,-601600 1033250,-1284920 8300,-696120 -432530,-1247070 -995260,-1244840z"/><path class="fil57" d="M35326940 17030240c-580700,-31720 -1043400,509230 -1019300,1225540 15830,706540 512110,1296480 1096400,1306310 566670,15810 1000790,-538360 979930,-1236070 -26930,-687940 -494220,-1262050 -1057030,-1295780z"/><path class="fil13" d="M34236830 13560280c-599860,-65910 -1049370,446250 -1003970,1131130 40230,691510 573760,1294110 1178920,1335330 585800,35940 1013570,-481170 966340,-1149610 -54920,-665870 -567290,-1265170 -1141290,-1316850z"/><path class="fil58" d="M32335360 10472420c-622020,-72920 -1090100,388250 -1030240,1043850 59320,671870 621930,1257810 1256020,1312140 621840,61330 1065380,-418090 990870,-1077540 -69650,-633330 -609040,-1201230 -1216650,-1278450z"/><path class="fil16" d="M29745780 7941600c-646540,-66680 -1139140,368120 -1078340,990020 53860,634150 639360,1197230 1311170,1257080 655540,60360 1117070,-407340 1056240,-1019150 -76130,-607720 -655780,-1157760 -1289070,-1227950z"/><path class="fil18" d="M26635610 6118850c-683030,-53620 -1200460,373710 -1165000,959570 40750,605160 642910,1139220 1334410,1179980 684800,45990 1197350,-403170 1131900,-1003060 -51210,-574060 -635530,-1080340 -1301310,-1136490z"/><path class="fil59" d="M23172890 5104380c-697690,-21400 -1252230,412280 -1236840,978950 9360,584300 598890,1080990 1305430,1097470 716280,24570 1257620,-437630 1226330,-1018340 -33250,-562840 -607010,-1030630 -1294920,-1058080z"/><path class="fil60" d="M19576390 4956530c-699100,15390 -1269090,472260 -1300490,1034720 -19570,578880 540300,1046850 1247310,1034870 715690,-7090 1294430,-492360 1297220,-1073330 2680,-562730 -563720,-1003530 -1244040,-996260z"/><path class="fil61" d="M16038540 5678750c-670790,45180 -1260590,539250 -1319850,1114040 -49060,588820 480000,1038990 1171030,1001820 700390,-33430 1295810,-552570 1333150,-1150700 26490,-577590 -508960,-1004000 -1184330,-965160z"/><path class="fil62" d="M12782170 7238240c-645890,66890 -1226300,599100 -1294870,1192810 -77280,618670 411200,1069540 1077360,1013980 671020,-47470 1273480,-607220 1324120,-1230690 54440,-608570 -446720,-1039810 -1106610,-976100z"/><path class="fil63" d="M9996970 9541110c-613930,72390 -1172360,639620 -1244220,1262320 -77280,647770 372180,1122240 1000730,1067030 646890,-57590 1222570,-640790 1286660,-1304080 53350,-636580 -415820,-1093490 -1043170,-1025270z"/><path class="fil64" d="M7846540 12455760c-590560,71360 -1109120,651950 -1174510,1313670 -55760,662900 370090,1178710 972280,1121510 613750,-43760 1159530,-642650 1207200,-1328010 54910,-680230 -405610,-1163970 -1004970,-1107170z"/><path class="fil65" d="M6469690 15820340c-570170,51580 -1050260,631080 -1087260,1308900 -34160,700120 398020,1228980 969070,1216260 589420,-15770 1099850,-618490 1124540,-1319170 35580,-714400 -425090,-1236920 -1006350,-1205990z"/><path class="fil31" d="M5956990 19437910c-561780,12530 -1011210,577990 -1015390,1273850 3770,714580 453050,1280830 1014890,1294460 579640,7560 1056060,-559900 1052790,-1291160 3380,-715020 -472790,-1283570 -1052290,-1277150z"/><path class="fil0" d="M31757460 19387290c-673880,-1380 -1226100,594980 -1224420,1339890 -1680,734940 550830,1329330 1225000,1326000 661960,-15450 1192490,-607770 1194670,-1328440 -2030,-720720 -533530,-1323910 -1195250,-1337450z"/><path class="fil66" d="M31087110 23288670c-686060,15800 -1262140,628020 -1278620,1364080 -25160,741470 517930,1303660 1195050,1280000 671080,-39110 1225210,-637440 1253430,-1356780 22690,-722310 -495870,-1307140 -1169860,-1287300z"/><path class="fil67" d="M29056160 26717450c-708690,26670 -1307580,631920 -1338750,1353640 -29950,708390 521210,1242720 1213910,1209030 689540,-43590 1277570,-640100 1318330,-1336100 39370,-708720 -495130,-1255670 -1193490,-1226570z"/><path class="fil68" d="M25927040 29204570c-728230,20660 -1342660,607840 -1357940,1299080 -30660,684560 546370,1202580 1261470,1173530 706420,-31980 1311910,-601300 1346510,-1273620 35140,-686350 -519840,-1228240 -1250040,-1198990z"/><path class="fil69" d="M22110120 30406270c-742560,5500 -1352460,565730 -1351930,1242990 530,663840 594450,1189570 1324620,1182300 725790,-12040 1330240,-552420 1338950,-1212410 18720,-676080 -565050,-1223270 -1311640,-1212880z"/><path class="fil12" d="M18107390 30165960c-733140,-13360 -1314290,528440 -1290570,1205670 22430,663130 626260,1210700 1351430,1231010 722520,14150 1312970,-507690 1300930,-1175890 -9890,-681260 -615900,-1248400 -1361790,-1260790z"/><path class="fil70" d="M14462980 28507720c-716160,-27280 -1265790,513660 -1221150,1211670 37760,678230 635950,1253990 1344460,1294660 713390,34340 1265530,-495280 1240480,-1184220 -20510,-698590 -635290,-1294420 -1363790,-1322110z"/><path class="fil71" d="M11663490 25672310c-693890,-33840 -1217860,528800 -1182480,1242140 41640,708420 618220,1305840 1296510,1342660 690500,35400 1238220,-506730 1203670,-1230600 -22420,-720700 -619110,-1334650 -1317700,-1354200z"/><path class="fil19" d="M10060270 22021430c-666930,-440 -1189840,578880 -1172770,1313260 17980,713280 569700,1328180 1232860,1349720 677290,22750 1218270,-559130 1201200,-1301690 -10770,-736440 -580060,-1351670 -1261290,-1361290z"/><path class="fil72" d="M9869400 18056050c-662630,19690 -1202930,624260 -1214820,1350040 -7090,730200 518760,1324010 1182570,1324390 677290,-9830 1237360,-609610 1242750,-1352170 10180,-746620 -537100,-1330260 -1210500,-1322260z"/><path class="fil73" d="M11081600 14311350c-672340,34720 -1241540,640330 -1273380,1346750 -28930,715100 493010,1281590 1173770,1261230 691270,-15390 1278300,-629970 1303990,-1366670 23950,-721730 -518050,-1276570 -1204380,-1241310z"/><path class="fil74" d="M13540530 11238290c-696000,40900 -1292420,629050 -1327680,1310050 -41760,701210 499600,1244220 1208030,1214820 714780,-23950 1319880,-622990 1346420,-1331650 28960,-698330 -518080,-1232740 -1226770,-1193220z"/><path class="fil75" d="M16908170 9230290c-707870,23810 -1317560,582590 -1346280,1248520 -33780,682290 537560,1220620 1269970,1199960 736090,-16630 1348160,-592830 1363850,-1278890 19680,-674020 -553720,-1195550 -1287540,-1169590z"/><path class="fil31" d="M20771430 8533810c-732840,2330 -1325060,532950 -1340390,1194930 -3210,674170 591300,1226540 1336040,1224740 744910,2240 1341720,-549480 1340860,-1223330 -13010,-661750 -603570,-1192980 -1336510,-1196340z"/></g></g></svg>