<?xml version="1.0" ?><svg data-name="013" height="128" id="_013" viewBox="0 0 128 128" width="128" xmlns="http://www.w3.org/2000/svg" xmlns:xlink="http://www.w3.org/1999/xlink"><defs><clipPath id="clip-path"><circle cx="64.014" cy="68" r="56" style="fill:#97c1ff"/></clipPath><clipPath id="clip-path-2"><path d="M120.144,67.856a56.144,56.144,0,0,1-112.288,0C7.856,36.84853,20,0,20,0h89.16667S120.144,38.53336,120.144,67.856Z" style="fill:none"/></clipPath></defs><title/><g style="opacity:0.30000000000000004"><circle cx="64.014" cy="68" r="56" style="fill:#97c1ff"/><g style="clip-path:url(#clip-path)"><circle cx="37.75" cy="22.75" r="7.75" style="fill:#fff27d"/><path d="M121,48H109a1,1,0,0,1,0-2h12a1,1,0,0,1,0,2Z" style="fill:#fff"/><path d="M117,52.001h-6.00244a1,1,0,0,1,0-2H117a1,1,0,0,1,0,2Z" style="fill:#fff"/><path d="M115,56.001h-3.99951a1,1,0,0,1,0-2H115a1,1,0,0,1,0,2Z" style="fill:#fff"/><path d="M120,56.001h-1a1,1,0,0,1,0-2h1a1,1,0,0,1,0,2Z" style="fill:#fff"/><rect height="25.00008" style="fill:#d4edff" width="11.99974" x="5.00025" y="61.00008"/><path d="M17,87H5.00049a.99974.99974,0,0,1-1-1V61a1,1,0,0,1,1-1H17a1,1,0,0,1,1,1V86A.99974.99974,0,0,1,17,87ZM6.00049,85H16V62H6.00049Z" style="fill:#6d6daa"/><g style="opacity:0.5"><path d="M16.99951,72H5a1,1,0,0,1,0-2H16.99951a1,1,0,0,1,0,2Z" style="fill:#6d6daa"/><path d="M17,67H5a1,1,0,0,1,0-2H17a1,1,0,0,1,0,2Z" style="fill:#6d6daa"/><path d="M9,87a.99974.99974,0,0,1-1-1V61a1,1,0,0,1,2,0V86A.99974.99974,0,0,1,9,87Z" style="fill:#6d6daa"/><path d="M13,87a.99974.99974,0,0,1-1-1V61a1,1,0,0,1,2,0V86A.99974.99974,0,0,1,13,87Z" style="fill:#6d6daa"/><path d="M16.99951,77H5a1,1,0,0,1,0-2H16.99951a1,1,0,0,1,0,2Z" style="fill:#6d6daa"/><path d="M16.99951,82H5a1,1,0,0,1,0-2H16.99951a1,1,0,0,1,0,2Z" style="fill:#6d6daa"/></g><path d="M13,62a1,1,0,0,1-1-1V58a1,1,0,0,1,2,0v3A1,1,0,0,1,13,62Z" style="fill:#6d6daa"/><rect height="25.00008" style="fill:#d4edff" width="11.99974" x="109.00026" y="63.99992"/><path d="M121,90H109.00049a.99974.99974,0,0,1-1-1V64a1,1,0,0,1,1-1H121a1,1,0,0,1,1,1V89A.99974.99974,0,0,1,121,90Zm-10.99951-2H120V65h-9.99951Z" style="fill:#6d6daa"/><g style="opacity:0.5"><path d="M121,75H109a1,1,0,0,1,0-2h12a1,1,0,0,1,0,2Z" style="fill:#6d6daa"/><path d="M121,70H109a1,1,0,0,1,0-2h12a1,1,0,0,1,0,2Z" style="fill:#6d6daa"/><path d="M113,90a.99974.99974,0,0,1-1-1V64a1,1,0,0,1,2,0V89A.99974.99974,0,0,1,113,90Z" style="fill:#6d6daa"/><path d="M117,90a.99974.99974,0,0,1-1-1V64a1,1,0,0,1,2,0V89A.99974.99974,0,0,1,117,90Z" style="fill:#6d6daa"/><path d="M121,80H109a1,1,0,0,1,0-2h12a1,1,0,0,1,0,2Z" style="fill:#6d6daa"/><path d="M121,85H109a1,1,0,0,1,0-2h12a1,1,0,0,1,0,2Z" style="fill:#6d6daa"/></g><rect height="95.974" style="fill:#96d7ff" width="30" x="50.99796" y="3.026"/><rect height="94" style="fill:#2c4b75;opacity:0.4" width="2.99796" x="78" y="5"/><path d="M80.998,100h-30a.99974.99974,0,0,1-1-1V3.02588a1,1,0,0,1,1-1h30a1,1,0,0,1,1,1V99A.99974.99974,0,0,1,80.998,100Zm-29-2h28V4.02588h-28Z" style="fill:#6d6daa"/><g style="opacity:0.5"><path d="M74.998,100a.99974.99974,0,0,1-1-1V3.02588a1,1,0,0,1,2,0V99A.99974.99974,0,0,1,74.998,100Z" style="fill:#6d6daa"/><path d="M68.998,100a.99974.99974,0,0,1-1-1V3.02588a1,1,0,0,1,2,0V99A.99974.99974,0,0,1,68.998,100Z" style="fill:#6d6daa"/><path d="M62.998,100a.99974.99974,0,0,1-1-1V3.02588a1,1,0,1,1,2,0V99A.99974.99974,0,0,1,62.998,100Z" style="fill:#6d6daa"/><path d="M56.998,100a.99974.99974,0,0,1-1-1V3.02588a1,1,0,0,1,2,0V99A.99974.99974,0,0,1,56.998,100Z" style="fill:#6d6daa"/><path d="M80.998,52h-30a1,1,0,0,1,0-2h30a1,1,0,0,1,0,2Z" style="fill:#6d6daa"/><path d="M80.998,60h-30a1,1,0,0,1,0-2h30a1,1,0,0,1,0,2Z" style="fill:#6d6daa"/><path d="M81,76H51a1,1,0,0,1,0-2H81a1,1,0,0,1,0,2Z" style="fill:#6d6daa"/><path d="M81,92H51a1,1,0,0,1,0-2H81a1,1,0,0,1,0,2Z" style="fill:#6d6daa"/><path d="M80.998,28h-30a1,1,0,0,1,0-2h30a1,1,0,0,1,0,2Z" style="fill:#6d6daa"/><path d="M80.998,36h-30a1,1,0,0,1,0-2h30a1,1,0,0,1,0,2Z" style="fill:#6d6daa"/><path d="M80.998,44h-30a1,1,0,0,1,0-2h30a1,1,0,0,1,0,2Z" style="fill:#6d6daa"/><path d="M80.998,12h-30a1,1,0,0,1,0-2h30a1,1,0,0,1,0,2Z" style="fill:#6d6daa"/><path d="M80.998,20h-30a1,1,0,0,1,0-2h30a1,1,0,0,1,0,2Z" style="fill:#6d6daa"/><path d="M80.998,68h-30a1,1,0,0,1,0-2h30a1,1,0,0,1,0,2Z" style="fill:#6d6daa"/><path d="M81,100H51a1,1,0,0,1,0-2H81a1,1,0,0,1,0,2Z" style="fill:#6d6daa"/><path d="M81,84H51a1,1,0,0,1,0-2H81a1,1,0,0,1,0,2Z" style="fill:#6d6daa"/></g><path d="M83,4H48.99609a1,1,0,0,1,0-2H83a1,1,0,0,1,0,2Z" style="fill:#6d6daa"/><rect height="23" style="fill:#4fbdff" width="121.5" x="3.5" y="100"/><path d="M119.99951,103H6a1,1,0,0,1,0-2H119.99951a1,1,0,0,1,0,2Z" style="fill:#6d6daa"/><path d="M124,103h-.99951a1,1,0,0,1,0-2H124a1,1,0,0,1,0,2Z" style="fill:#6d6daa"/><path d="M28.97168,108.998a3.114,3.114,0,0,1-2.20752-.91309,1.12223,1.12223,0,0,0-1.58594,0,3.125,3.125,0,0,1-4.41406,0,1.12223,1.12223,0,0,0-1.58594,0,.99989.99989,0,1,1-1.41406-1.41406,3.125,3.125,0,0,1,4.41406,0,1.12223,1.12223,0,0,0,1.58594,0,3.125,3.125,0,0,1,4.41406,0,1.12223,1.12223,0,0,0,1.58594,0,3.125,3.125,0,0,1,4.41406,0,.99989.99989,0,0,1-1.41406,1.41406,1.12223,1.12223,0,0,0-1.58594,0A3.11174,3.11174,0,0,1,28.97168,108.998Z" style="fill:#fff"/><path d="M64.9751,108.99707a3.1058,3.1058,0,0,1-2.20654-.91211,1.12223,1.12223,0,0,0-1.58594,0,3.125,3.125,0,0,1-4.41406,0,1.12223,1.12223,0,0,0-1.58594,0,.99989.99989,0,0,1-1.41406-1.41406,3.125,3.125,0,0,1,4.41406,0,1.12223,1.12223,0,0,0,1.58594,0,3.125,3.125,0,0,1,4.41406,0,1.12223,1.12223,0,0,0,1.58594,0,3.125,3.125,0,0,1,4.41406,0,.99989.99989,0,1,1-1.41406,1.41406,1.12223,1.12223,0,0,0-1.58594,0A3.11211,3.11211,0,0,1,64.9751,108.99707Z" style="fill:#fff"/><path d="M11.97266,114.999a3.112,3.112,0,0,1-2.207-.91309,1.14741,1.14741,0,0,0-1.58545,0,3.12564,3.12564,0,0,1-4.41455,0,.99989.99989,0,0,1,1.41406-1.41406,1.12223,1.12223,0,0,0,1.58594,0,3.19473,3.19473,0,0,1,4.41455,0,1.12076,1.12076,0,0,0,1.58545,0,.99989.99989,0,1,1,1.41406,1.41406A3.11369,3.11369,0,0,1,11.97266,114.999Z" style="fill:#fff"/><path d="M96.98242,108.998a3.112,3.112,0,0,1-2.207-.91309,1.12223,1.12223,0,0,0-1.58594,0,3.125,3.125,0,0,1-4.41406,0,.99989.99989,0,0,1,1.41406-1.41406,1.12223,1.12223,0,0,0,1.58594,0,3.125,3.125,0,0,1,4.41406,0,1.12223,1.12223,0,0,0,1.58594,0,.99989.99989,0,1,1,1.41406,1.41406A3.11369,3.11369,0,0,1,96.98242,108.998Z" style="fill:#fff"/><path d="M82.97949,115.999a3.11286,3.11286,0,0,1-2.207-.91309,1.14741,1.14741,0,0,0-1.58545,0,3.12564,3.12564,0,0,1-4.41455,0,.99989.99989,0,1,1,1.41406-1.41406,1.12223,1.12223,0,0,0,1.58594,0,3.19665,3.19665,0,0,1,4.41455,0,1.12164,1.12164,0,0,0,1.58545,0,.99989.99989,0,0,1,1.41406,1.41406A3.112,3.112,0,0,1,82.97949,115.999Z" style="fill:#fff"/><path d="M114.97705,115.998a3.10774,3.10774,0,0,1-2.207-.91211,1.14741,1.14741,0,0,0-1.58545,0,3.12564,3.12564,0,0,1-4.41455,0,1.14741,1.14741,0,0,0-1.58545,0,3.12564,3.12564,0,0,1-4.41455,0,1.14741,1.14741,0,0,0-1.58545,0,1.00024,1.00024,0,0,1-1.415-1.41406,3.19726,3.19726,0,0,1,4.415,0,1.12164,1.12164,0,0,0,1.58545,0,3.19665,3.19665,0,0,1,4.41455,0,1.12164,1.12164,0,0,0,1.58545,0,3.19665,3.19665,0,0,1,4.41455,0,1.12164,1.12164,0,0,0,1.58545,0,3.19665,3.19665,0,0,1,4.41455,0,1.00024,1.00024,0,1,1-1.415,1.41406,1.1468,1.1468,0,0,0-1.585,0A3.11211,3.11211,0,0,1,114.97705,115.998Z" style="fill:#fff"/></g><path d="M101,60a1.38349,1.38349,0,0,1-.2002-.02.652.652,0,0,1-.18018-.06006.76551.76551,0,0,1-.17969-.09033c-.05029-.03955-.1001-.07959-.1499-.11963a1.15552,1.15552,0,0,1-.21045-.33008.94755.94755,0,0,1,0-.76025A1.028,1.028,0,0,1,100.29,58.29a.99868.99868,0,0,1,1.08984-.21045A1.15552,1.15552,0,0,1,101.71,58.29,1,1,0,0,1,101,60Z" style="fill:#fff"/><path d="M98,55.99951H96a1,1,0,0,1,0-2h2a1,1,0,0,1,0,2Z" style="fill:#fff"/><path d="M107,51.999h-7a1,1,0,0,1,0-2h7a1,1,0,0,1,0,2Z" style="fill:#fff"/><path d="M113,55.999H102.00049a1,1,0,0,1,0-2H113a1,1,0,0,1,0,2Z" style="fill:#fff"/><path d="M113.00146,60H105.001a1,1,0,0,1,0-2h8.00049a1,1,0,1,1,0,2Z" style="fill:#fff"/><polygon points="80.998 84 80.998 24 87 24 87 18 93 18 93 12 99 12 99 18 105 18 105 23.833 110.998 24 110.998 84 80.998 84" style="fill:#96d7ff"/><path d="M110.998,85h-30a.99974.99974,0,0,1-1-1V24a1,1,0,0,1,1-1H86V18a1,1,0,0,1,1-1h5V12a1,1,0,0,1,1-1h6a1,1,0,0,1,1,1v5h5a1,1,0,0,1,1,1v4.86084l5.02588.14014a1.00007,1.00007,0,0,1,.97217.99951V84A.99974.99974,0,0,1,110.998,85Zm-29-2h28V24.97314l-5.02588-.14014A1.00007,1.00007,0,0,1,104,23.8335V19H99a1,1,0,0,1-1-1V13H94v5a1,1,0,0,1-1,1H88v5a1,1,0,0,1-1,1H81.998Z" style="fill:#6d6daa"/><g style="opacity:0.5"><path d="M104.998,85a.99974.99974,0,0,1-1-1V18a1,1,0,0,1,2,0V84A.99974.99974,0,0,1,104.998,85Z" style="fill:#6d6daa"/><path d="M98.998,85a.99974.99974,0,0,1-1-1V18a1,1,0,0,1,2,0V84A.99974.99974,0,0,1,98.998,85Z" style="fill:#6d6daa"/><path d="M92.998,85a.99974.99974,0,0,1-1-1V18a1,1,0,0,1,2,0V84A.99974.99974,0,0,1,92.998,85Z" style="fill:#6d6daa"/><path d="M86.998,85a.99974.99974,0,0,1-1-1V18a1,1,0,0,1,2,0V84A.99974.99974,0,0,1,86.998,85Z" style="fill:#6d6daa"/><path d="M110.998,55h-30a1,1,0,0,1,0-2h30a1,1,0,1,1,0,2Z" style="fill:#6d6daa"/><path d="M110.998,61h-30a1,1,0,0,1,0-2h30a1,1,0,1,1,0,2Z" style="fill:#6d6daa"/><path d="M111,73H81a1,1,0,0,1,0-2h30a1,1,0,0,1,0,2Z" style="fill:#6d6daa"/><path d="M110.998,37h-30a1,1,0,0,1,0-2h30a1,1,0,1,1,0,2Z" style="fill:#6d6daa"/><path d="M110.998,43h-30a1,1,0,0,1,0-2h30a1,1,0,1,1,0,2Z" style="fill:#6d6daa"/><path d="M111,49H81a1,1,0,0,1,0-2h30a1,1,0,0,1,0,2Z" style="fill:#6d6daa"/><path d="M110.998,31h-30a1,1,0,0,1,0-2h30a1,1,0,1,1,0,2Z" style="fill:#6d6daa"/><path d="M110.998,25h-30a1,1,0,0,1,0-2h30a1,1,0,1,1,0,2Z" style="fill:#6d6daa"/><path d="M99,19H93a1,1,0,0,1,0-2h6a1,1,0,0,1,0,2Z" style="fill:#6d6daa"/><path d="M110.998,67h-30a1,1,0,0,1,0-2h30a1,1,0,1,1,0,2Z" style="fill:#6d6daa"/><path d="M111,85H81a1,1,0,0,1,0-2h30a1,1,0,0,1,0,2Z" style="fill:#6d6daa"/><path d="M111,79H81a1,1,0,0,1,0-2h30a1,1,0,0,1,0,2Z" style="fill:#6d6daa"/></g><rect height="54" style="fill:#d6b5b0" width="38" x="17" y="40"/><path d="M55,95H17a.99974.99974,0,0,1-1-1V40a1,1,0,0,1,1-1H55a1,1,0,0,1,1,1V94A.99974.99974,0,0,1,55,95ZM18,93H54V41H18Z" style="fill:#6d6daa"/><rect height="50" style="fill:#96d7ff" width="30" x="21" y="44"/><rect height="11" style="fill:#d4edff" width="30" x="21" y="44"/><path d="M51,95H21a.99974.99974,0,0,1-1-1V44a1,1,0,0,1,1-1H51a1,1,0,0,1,1,1V94A.99974.99974,0,0,1,51,95ZM22,93H50V45H22Z" style="fill:#6d6daa"/><g style="opacity:0.5"><path d="M45,95a.99974.99974,0,0,1-1-1V44a1,1,0,0,1,2,0V94A.99974.99974,0,0,1,45,95Z" style="fill:#6d6daa"/><path d="M39,95a.99974.99974,0,0,1-1-1V44a1,1,0,0,1,2,0V94A.99974.99974,0,0,1,39,95Z" style="fill:#6d6daa"/><path d="M33,95a.99974.99974,0,0,1-1-1V44a1,1,0,0,1,2,0V94A.99974.99974,0,0,1,33,95Z" style="fill:#6d6daa"/><path d="M27,95a.99974.99974,0,0,1-1-1V44a1,1,0,0,1,2,0V94A.99974.99974,0,0,1,27,95Z" style="fill:#6d6daa"/><path d="M51,75H21a1,1,0,0,1,0-2H51a1,1,0,0,1,0,2Z" style="fill:#6d6daa"/><path d="M51,85H21a1,1,0,0,1,0-2H51a1,1,0,0,1,0,2Z" style="fill:#6d6daa"/><path d="M55,55H17a1,1,0,0,1,0-2H55a1,1,0,0,1,0,2Z" style="fill:#6d6daa"/><path d="M55,65H17a1,1,0,0,1,0-2H55a1,1,0,0,1,0,2Z" style="fill:#6d6daa"/></g><polygon points="17 40 17 35 20 30 52 30 55 35 55 40 17 40" style="fill:#d6b5b0"/><path d="M55,41H17a1,1,0,0,1-1-1V35a1.00166,1.00166,0,0,1,.14258-.51465l3-5A.99976.99976,0,0,1,20,29H52a.99976.99976,0,0,1,.85742.48535l3,5A1.00166,1.00166,0,0,1,56,35v5A1,1,0,0,1,55,41ZM18,39H54V35.27686L51.43359,31H20.56641L18,35.27686Z" style="fill:#6d6daa"/><g style="opacity:0.5"><path d="M44,41a1,1,0,0,1-1-1V30a1,1,0,0,1,2,0V40A1,1,0,0,1,44,41Z" style="fill:#6d6daa"/><path d="M49,41a1,1,0,0,1-1-1V35.09912l-.98047-4.90283a.99992.99992,0,0,1,1.96094-.39258l1,5A.98392.98392,0,0,1,50,35v5A1,1,0,0,1,49,41Z" style="fill:#6d6daa"/><path d="M24,41a1,1,0,0,1-1-1V35a.98392.98392,0,0,1,.01953-.19629l1-5a.99992.99992,0,0,1,1.96094.39258L25,35.09912V40A1,1,0,0,1,24,41Z" style="fill:#6d6daa"/><path d="M39,41a1,1,0,0,1-1-1V30a1,1,0,0,1,2,0V40A1,1,0,0,1,39,41Z" style="fill:#6d6daa"/><path d="M34,41a1,1,0,0,1-1-1V30a1,1,0,0,1,2,0V40A1,1,0,0,1,34,41Z" style="fill:#6d6daa"/><path d="M29,41a1,1,0,0,1-1-1V30a1,1,0,0,1,2,0V40A1,1,0,0,1,29,41Z" style="fill:#6d6daa"/><path d="M55,36H17a1,1,0,0,1,0-2H55a1,1,0,0,1,0,2Z" style="fill:#6d6daa"/></g></g><g style="clip-path:url(#clip-path-2)"><path d="M114.51141,83H83.57173c6.44577-12.21429,20.40139-25.78572,30.71461-29.00409A72.39229,72.39229,0,0,1,114.51141,83Z" style="fill:#ced8ee"/><path d="M114.51123,84H83.57178a.99972.99972,0,0,1-.88428-1.4668c6.75488-12.7998,21.08887-26.30518,31.30078-29.4917a.99956.99956,0,0,1,1.27295.7334,73.80164,73.80164,0,0,1,.22314,29.45654A1.0007,1.0007,0,0,1,114.51123,84Zm-29.249-2h28.44727a72.72756,72.72756,0,0,0-.16309-26.69385C104.24121,58.7666,91.83447,70.48438,85.26221,82Z" style="fill:#6d6daa"/><path d="M83.57172,83H112.5191c.9856-4.76764,1.41327-16.3819-2.21472-27.23926C100.63037,60.73431,89.177,72.37848,83.57172,83Z" style="fill:#939fc6"/><path d="M100.33073,83H74.74709C77.3254,66.71429,88.92778,47.71429,96.46327,40.34694,100.33073,51.78571,100.33073,70.78571,100.33073,83Z" style="fill:#ced8ee"/><path d="M100.33057,84H74.74707a1.00036,1.00036,0,0,1-.98779-1.15625c2.65186-16.75,14.4834-35.85791,22.00488-43.21143a.9996.9996,0,0,1,1.64648.39453c3.91992,11.59424,3.91992,30.478,3.91992,42.97314A.99974.99974,0,0,1,100.33057,84ZM75.93213,82H99.33057c-.00244-11.77832-.09229-28.6875-3.31934-39.75537C88.86963,49.918,78.70654,66.80078,75.93213,82Z" style="fill:#6d6daa"/><path d="M87.63862,83H61c1-26,11-46,22.77116-57C88.92778,46.35714,87.63862,64,87.63862,83Z" style="fill:#ced8ee"/><path d="M87.63867,84H61a.99941.99941,0,0,1-.999-1.03809c.90186-23.459,9.53271-45.02588,23.0874-57.69238a.99966.99966,0,0,1,1.65186.48486c4.32422,17.07031,4.15234,31.99512,3.9707,47.79541-.03613,3.125-.07227,6.26855-.07227,9.4502A.99974.99974,0,0,1,87.63867,84ZM62.04443,82H86.63965c.00684-2.84863.03906-5.668.07129-8.47266.17432-15.1416.33887-29.47314-3.49609-45.59912C70.94434,40.188,63.10107,60.18506,62.04443,82Z" style="fill:#6d6daa"/><path d="M18.60265,88H39.2291c0-21.40657-5.15661-31.816-20.47668-26.72542C18.60265,70.18306,18.5886,82.22362,18.60265,88Z" style="fill:#f2f9ff"/><path d="M39.229,89H18.60254a1.00006,1.00006,0,0,1-1-.99707c-.01416-5.78027.00146-17.917.1499-26.74512a1.00111,1.00111,0,0,1,.68457-.93262c6.04785-2.0083,10.6958-1.75244,14.21338.78564C37.8208,64.84131,40.229,73.38574,40.229,88A.99974.99974,0,0,1,39.229,89ZM19.60059,87H38.2251c-.106-13.12793-2.31494-21.07129-6.74463-24.26709-2.83545-2.0459-6.68018-2.28418-11.73975-.7251C19.61084,70.26074,19.59082,81.08789,19.60059,87Z" style="fill:#6d6daa"/><path d="M10.00027,88H34.49418c0-15.00374-8.87164-21.63486-20.47668-20.36222C10.518,73.71072,9.98622,83.95137,10.00027,88Z" style="fill:#f2f9ff"/><path d="M34.49414,89H10.00049a.99985.99985,0,0,1-1-.99609c-.00781-2.26758.15479-13.93066,4.15088-20.86523a1.00094,1.00094,0,0,1,.75732-.49512c6.144-.6709,11.40967.77832,15.22363,4.19727C33.29443,74.57129,35.49414,80.50488,35.49414,88A.99974.99974,0,0,1,34.49414,89ZM11.00977,87H33.48c-.18213-6.43359-2.13721-11.49219-5.68213-14.66992-3.27637-2.93652-7.82275-4.23047-13.15967-3.749C11.52979,74.40625,11.07324,83.78906,11.00977,87Z" style="fill:#6d6daa"/><path d="M78.27167,32.01257C69.02661,43.60767,61.83929,61.17834,61,83H83.46643C83.46643,66.7,86.35724,50.81506,78.27167,32.01257Z" style="fill:#939fc6"/><path d="M74.74707,83H97.563c.03589-10.789.27716-26.76758-5.48389-37.62921C85.0462,54.46405,76.86176,69.64258,74.74707,83Z" style="fill:#939fc6"/><path d="M108,57.06158C98.86987,62.56512,88.738,73.21033,83.57172,83H118l-10-8Z" style="fill:#c9c1f5"/><path d="M108.97571,75.78058,108,75V57.06158a62.76565,62.76565,0,0,0-10.20361,7.88379c-.07312.06848-.147.13458-.22.20349-.44135.41632-.87738.84351-1.31207,1.27289-.15021.14844-.30145.2948-.45074.4447-.38574.38708-.76611.78156-1.1452,1.17761-.19452.20337-.3894.40594-.58191.61145q-.5148.54913-1.01782,1.10919-.3316.3674-.65912.73773-.46262.525-.91437,1.05676-.35458.41711-.70178.83777-.41611.50327-.82275,1.01031c-.24609.30817-.48694.61792-.72675.9281-.24652.31873-.49268.63757-.73218.958-.25256.33807-.49677.67743-.741,1.01691-.21545.29938-.43292.59845-.6416.89856-.25732.37024-.50287.741-.74921,1.11182-.18134.27283-.36755.54547-.54266.81836-.27222.42432-.52844.84778-.78485,1.2713-.13373.22095-.27551.44238-.40479.6629C84.26965,81.718,83.90894,82.361,83.57172,83c5.60529-5.576,13.10663-7.56824,21.095-8A9.86624,9.86624,0,0,1,108.97571,75.78058Z" style="fill:#2c4b75;opacity:0.2"/><g style="opacity:0.5"><path d="M110.001,84a.99623.99623,0,0,1-.80078-.40039l-6-8A.99718.99718,0,0,1,103,75V57.06152a1,1,0,0,1,2,0V74.667l5.7998,7.7334A.99981.99981,0,0,1,110.001,84Z" style="fill:#6d6daa"/><path d="M104.001,84a.99956.99956,0,0,1-.89551-.55273l-4-8A1.00067,1.00067,0,0,1,99,75V57.06152a1,1,0,0,1,2,0V74.76367l3.89453,7.78906A.99991.99991,0,0,1,104.001,84Z" style="fill:#6d6daa"/><path d="M97.79883,84a.99976.99976,0,0,1-.97461-.78027l-1.7998-8A1.00683,1.00683,0,0,1,95,75V57.06152a1,1,0,0,1,2,0V74.88867l1.77539,7.8916A.99993.99993,0,0,1,97.79883,84Z" style="fill:#6d6daa"/><path d="M92.66553,84a1,1,0,0,1-.99561-.917l-.6665-8L91,63a1,1,0,0,1,2,0V75l.66309,7.917a.99885.99885,0,0,1-.91357,1.0791A.81193.81193,0,0,1,92.66553,84Z" style="fill:#6d6daa"/><path d="M88,84a.99974.99974,0,0,1-1-1V75a.997.997,0,0,1,.01611-.17871l2-11a1,1,0,1,1,1.96777.35742L89,75.08984V83A.99974.99974,0,0,1,88,84Z" style="fill:#6d6daa"/></g><path d="M114.28638,53.99591c-4.507,0-15.04535.50409-24.06946,4.5755A72.56807,72.56807,0,0,0,85.375,53.125C80.69855,61,74.50818,74.46368,72.625,83H83.57172C90.01752,70.78571,103.97314,57.21429,114.28638,53.99591Z" style="fill:#f2f9ff"/><path d="M118,84H83.57178a1,1,0,1,1,0-2h31.57764l-7.77393-6.21875A1.00174,1.00174,0,0,1,107,75V57.06152a1,1,0,0,1,2,0v17.458l9.62451,7.69922A1,1,0,0,1,118,84Z" style="fill:#6d6daa"/><path d="M90.21692,58.57141A72.56807,72.56807,0,0,0,85.375,53.125C80.69855,61,74.50818,74.46368,72.625,83h2.12209A53.1335,53.1335,0,0,1,90.21692,58.57141Z" style="fill:#2c4b75;opacity:0.2"/><path d="M77,48c-1.49536-1.95551-5.0332-4.8139-5.84595-5.00549C65.53687,53.68134,61.60663,67.22711,61,83H74.74707C77.32538,66.71429,88.9278,47.71429,96.46326,40.34692,88.40137,40.90491,81.62549,44.78168,77,48Z" style="fill:#f2f9ff"/><path d="M77,48c-1.49536-1.95551-5.0332-4.8139-5.84595-5.00549C65.53687,53.68134,61.60663,67.22711,61,83,61,83,61.5,57.5,77,48Z" style="fill:#2c4b75;opacity:0.2"/><path d="M83.5708,84a.9994.9994,0,0,1-.8833-1.4668c5.7168-10.832,16.86279-22.1709,26.34375-27.33154a56.48873,56.48873,0,0,0-18.40332,4.28125.99964.99964,0,0,1-1.24219-.356c-.39844-.5957-2.40918-2.86719-3.873-4.42334a1,1,0,1,1,1.457-1.37012c.91992.978,2.63428,2.86621,3.563,4.00684,9.1626-3.91309,19.61133-4.34424,23.75391-4.34424a.99995.99995,0,0,1,.29785,1.95459c-9.78516,3.05322-23.582,16.11182-30.12842,28.51611A.99871.99871,0,0,1,83.5708,84Z" style="fill:#6d6daa"/><path d="M83.77118,26C64.43384,32.78571,45.09656,58.57141,43.80743,83H61C62,57,72,37,83.77118,26Z" style="fill:#f2f9ff"/><path d="M61,84H43.80762a.99936.99936,0,0,1-.99854-1.05273c1.24951-23.68213,20.23584-50.73389,40.63086-57.89062a.99968.99968,0,0,1,1.01367,1.67383C71.27588,39.04541,62.88184,60.09521,61.999,83.03809A1,1,0,0,1,61,84ZM44.87354,82H60.042c.998-20.98975,8.18213-40.38184,19.52686-53.12012C61.94531,37.7417,46.44531,61.06787,44.87354,82Z" style="fill:#6d6daa"/><path d="M74.74854,84a.95844.95844,0,0,1-.15771-.0127.99974.99974,0,0,1-.83154-1.14355c2.43506-15.38281,12.61328-32.75537,20.085-41.18457-5.26709.86865-10.61768,3.22656-16.27295,7.16162a1.001,1.001,0,0,1-1.36572-.21338,22.78182,22.78182,0,0,0-5.30859-4.647.988.988,0,0,1-.73-1.19873,1.00876,1.00876,0,0,1,1.2168-.74023c1.04443.24561,4.06641,2.70459,5.80029,4.64014,6.64551-4.48437,12.938-6.87842,19.21045-7.3125a1.01167,1.01167,0,0,1,.98145.58838.9997.9997,0,0,1-.21338,1.124C89.83936,48.22168,78.31885,66.834,75.73486,83.15625A1.00085,1.00085,0,0,1,74.74854,84Z" style="fill:#6d6daa"/><path d="M59.27725,88H19.181c1.28915-19.86486,9.98571-43.16667,25.91561-52.5C51.54233,47.5,57.24965,70.19129,59.27725,88Z" style="fill:#f2f9ff"/><path d="M59.27725,88H23.181C24.47011,68.13514,32.205,48.27027,45.09656,35.5,51.54233,47.5,57.24965,70.19129,59.27725,88Z" style="fill:#ced8ee"/><path d="M59.27734,89H19.18115a1.00079,1.00079,0,0,1-.998-1.06445c1.27-19.57227,9.92822-43.64307,26.4082-53.29834a.99929.99929,0,0,1,1.38623.38965C52.87109,47.85986,58.38574,71.333,60.271,87.88672A.9999.9999,0,0,1,59.27734,89Zm-39.022-2H58.15332c-2.2085-18.291-7.75439-38.92871-13.44824-50.0918C29.729,46.354,21.69824,68.52344,20.25537,87Z" style="fill:#6d6daa"/><path d="M58.75,88H23.25c3-18,9.75-32.6,20.57143-44.6C50.375,53.525,57.00867,73.0746,58.75,88Z" style="fill:#939fc6"/><path d="M43.125,55.5a17.92337,17.92337,0,0,0-1.9577-2.599A63.30161,63.30161,0,0,0,23.25,88H67.01215C65.723,76.88885,61.85553,61,54.12061,50.5A35.20692,35.20692,0,0,0,43.125,55.5Z" style="fill:#f2f9ff"/><path d="M43.125,55.5a17.92337,17.92337,0,0,0-1.9577-2.599A63.30161,63.30161,0,0,0,23.25,88S26.875,66.375,43.125,55.5Z" style="fill:#2c4b75;opacity:0.2"/><path d="M43.125,56.5a.99892.99892,0,0,1-.853-.47852,16.95024,16.95024,0,0,0-1.85059-2.45459,1.00012,1.00012,0,0,1,1.49219-1.332,20.291,20.291,0,0,1,1.4917,1.86963,36.45141,36.45141,0,0,1,10.45508-4.56982.9998.9998,0,1,1,.52051,1.93066,33.94084,33.94084,0,0,0-10.68262,4.854A.99864.99864,0,0,1,43.125,56.5Z" style="fill:#6d6daa"/><path d="M67.01217,88H29.62672c2.79317-12.25,12.0321-29.5,24.49391-37.5C61.85556,61,65.723,76.88889,67.01217,88Z" style="fill:#ced8ee"/><path d="M67.5,88H29.8c4.075-15.5,14.95-26.25,23.6-31.5C61.125,63.75,66.45619,78.51852,67.5,88Z" style="fill:#939fc6"/><path d="M72.14807,83c.019-5.127-2.34869-15.381-7.08411-23.07147C61.375,59.75,55.25,60.875,51.625,63c-.79462-1.13513-1.99872-2.832-2.75-3.875C37.03,67.3266,32,80.25,29.8,88Z" style="fill:#f2f9ff"/><path d="M72.1481,83H40c5.93831-9.5,14.40919-19,25.06394-23.07143C69.79938,67.619,72.1671,77.873,72.1481,83Z" style="fill:#939fc6"/><path d="M63,65.7c-7.31989,2.41724-18.67023,10.94769-22.955,17.2384H71c-.0246-.1192-.05566-.24213-.08221-.36255L63,74.93842Z" style="fill:#c9c1f5"/><path d="M51.625,63c-.79462-1.13513-1.99872-2.832-2.75-3.875C37.03,67.3266,32,80.25,29.8,88,29.8,88,37.25,69.5,51.625,63Z" style="fill:#2c4b75;opacity:0.2"/><path d="M51.62549,64a.99815.99815,0,0,1-.81982-.42676L49.959,62.35547c-.53564-.77344-1.0752-1.55273-1.56348-2.23047a1.00009,1.00009,0,0,1,1.623-1.16895c.49463.687,1.042,1.47656,1.585,2.26025l.33154.47754A30.06109,30.06109,0,0,1,65.1123,58.92969a1.00049,1.00049,0,0,1,.95068,1.04736,1.01517,1.01517,0,0,1-1.04736.95068c-3.50879-.1748-9.42139.90381-12.88477,2.93506A.9989.9989,0,0,1,51.62549,64Z" style="fill:#6d6daa"/><path d="M65.22357,77.08325,63,74.93842V65.7c-7.31989,2.41724-18.67023,10.94769-22.955,17.2384h.03876C44.36,79.67468,52.71832,75.75153,61,76A9.76289,9.76289,0,0,1,65.22357,77.08325Z" style="fill:#2c4b75;opacity:0.2"/><g style="opacity:0.5"><path d="M64.001,84a.99956.99956,0,0,1-.85059-.47266l-5-8.06152A1.00043,1.00043,0,0,1,58,74.93848V67.083a1,1,0,0,1,2,0v7.57031l4.84961,7.81934A1.00034,1.00034,0,0,1,64.001,84Z" style="fill:#6d6daa"/><path d="M58,84a.99991.99991,0,0,1-.937-.65137l-3-8.06152A.99858.99858,0,0,1,54,74.93848V69a1,1,0,0,1,2,0v5.75879l2.937,7.89258A.99929.99929,0,0,1,58,84Z" style="fill:#6d6daa"/><path d="M51.99854,84a.99927.99927,0,0,1-.99072-.877l-1-8.06152A.94632.94632,0,0,1,50,74.93848V71a1,1,0,0,1,2,0v3.877l.99219,8a.999.999,0,0,1-.86914,1.11523A.8929.8929,0,0,1,51.99854,84Z" style="fill:#6d6daa"/><path d="M47,84a.99974.99974,0,0,1-1-1V74a1,1,0,0,1,2,0v9A.99974.99974,0,0,1,47,84Z" style="fill:#6d6daa"/></g><path d="M71,84a.99671.99671,0,0,1-.71-.2959l-8-8.06152a1.00131,1.00131,0,0,1-.29-.7041V65.52734a1,1,0,0,1,2,0v8.999l7.71,7.76953A.99976.99976,0,0,1,71,84Z" style="fill:#6d6daa"/><path d="M65.064,59.92853C54.40918,64,45.93829,73.5,40,83c4.25159-6.29633,15.875-14.875,23.21832-17.3C66.75,69.125,70.625,76.875,71.875,83h.27307C72.16711,77.873,69.79938,67.619,65.064,59.92853Z" style="fill:#ced8ee"/><rect height="15" style="fill:#fedbc1" width="28" x="48" y="83"/><rect height="5" style="fill:#939fc6" width="28" x="48" y="83"/><path d="M76,99H48a.99974.99974,0,0,1-1-1V83a.99974.99974,0,0,1,1-1H76a.99974.99974,0,0,1,1,1V98A.99974.99974,0,0,1,76,99ZM49,97H75V84H49Z" style="fill:#6d6daa"/><path d="M73,89H51a1,1,0,0,1,0-2H73a1,1,0,0,1,0,2Z" style="fill:#6d6daa"/><g style="opacity:0.2"><rect height="15" style="fill:#6d6daa" width="2" x="50.99951" y="82.99902"/><rect height="15" style="fill:#6d6daa" width="2" x="54.99951" y="82.99902"/><rect height="15" style="fill:#6d6daa" width="2" x="58.99951" y="82.99902"/><rect height="15" style="fill:#6d6daa" width="2" x="62.99951" y="82.99902"/><rect height="15" style="fill:#6d6daa" width="2" x="66.99951" y="82.99902"/><rect height="15" style="fill:#6d6daa" width="2" x="70.99951" y="82.99902"/></g><g style="opacity:0.5"><rect height="3.99902" style="fill:#6d6daa" width="2" x="50.99951" y="94"/><rect height="3.99902" style="fill:#6d6daa" width="2" x="54.99951" y="94"/><rect height="3.99902" style="fill:#6d6daa" width="2" x="58.99951" y="94"/><rect height="3.99902" style="fill:#6d6daa" width="2" x="62.99951" y="94"/><rect height="3.99902" style="fill:#6d6daa" width="2" x="66.99951" y="94"/><rect height="3.99902" style="fill:#6d6daa" width="2" x="70.99951" y="94"/></g><polygon points="86 98 118 98 118 93 116 93 116 88 114 88 114 83 86 83 86 98" style="fill:#fedbc1"/><rect height="5" style="fill:#939fc6" width="28" x="86" y="83"/><g style="opacity:0.2"><rect height="15" style="fill:#6d6daa" width="2" x="88.99951" y="82.99902"/><rect height="15" style="fill:#6d6daa" width="2" x="92.99951" y="82.99902"/><rect height="15" style="fill:#6d6daa" width="2" x="96.99951" y="82.99902"/><rect height="15" style="fill:#6d6daa" width="2" x="100.99951" y="82.99902"/><rect height="15" style="fill:#6d6daa" width="2" x="104.99951" y="82.99902"/><rect height="15" style="fill:#6d6daa" width="2" x="108.99951" y="82.99902"/><rect height="15" style="fill:#6d6daa" width="2" x="112.99951" y="82.99902"/></g><g style="opacity:0.5"><rect height="4.99902" style="fill:#6d6daa" width="2" x="88.99951" y="93"/><rect height="4.99902" style="fill:#6d6daa" width="2" x="92.99951" y="93"/><rect height="4.99902" style="fill:#6d6daa" width="2" x="96.99951" y="93"/><rect height="4.99902" style="fill:#6d6daa" width="2" x="100.99951" y="93"/><rect height="4.99902" style="fill:#6d6daa" width="2" x="104.99951" y="93"/><rect height="4.99902" style="fill:#6d6daa" width="2" x="108.99951" y="93"/><rect height="4.99902" style="fill:#6d6daa" width="2" x="112.99951" y="93"/></g><path d="M118,99H86a.99974.99974,0,0,1-1-1V83a.99974.99974,0,0,1,1-1h28a.99974.99974,0,0,1,1,1v4h1a.99974.99974,0,0,1,1,1v4h1a.99974.99974,0,0,1,1,1v5A.99974.99974,0,0,1,118,99ZM87,97h30V94h-1a.99974.99974,0,0,1-1-1V89h-1a.99974.99974,0,0,1-1-1V84H87Z" style="fill:#6d6daa"/><path d="M114,89H89a1,1,0,0,1,0-2h25a1,1,0,0,1,0,2Z" style="fill:#6d6daa"/><path d="M116,94H89a1,1,0,0,1,0-2h27a1,1,0,0,1,0,2Z" style="fill:#6d6daa"/><rect height="5" rx="2" ry="2" style="fill:#ebc7c2" width="115" x="6" y="98"/><rect height="5" rx="2" ry="2" style="fill:#fedbc1" width="70" x="51" y="98"/><path d="M119,104H8a3.00328,3.00328,0,0,1-3-3v-1a3.00328,3.00328,0,0,1,3-3H119a3.00328,3.00328,0,0,1,3,3v1A3.00328,3.00328,0,0,1,119,104ZM8,99a1.001,1.001,0,0,0-1,1v1a1.001,1.001,0,0,0,1,1H119a1.001,1.001,0,0,0,1-1v-1a1.001,1.001,0,0,0-1-1Z" style="fill:#6d6daa"/><polygon points="36 83 32 88 8 88 8 98 39 98 48 98 48 83 36 83" style="fill:#ebc7c2"/><g style="opacity:0.2"><rect height="10" style="fill:#6d6daa" width="2" x="19" y="88"/><rect height="10" style="fill:#6d6daa" width="2" x="15" y="88"/><rect height="10" style="fill:#6d6daa" width="2" x="11" y="88"/><rect height="10" style="fill:#6d6daa" width="2" x="23" y="88"/><rect height="10" style="fill:#6d6daa" width="2" x="27" y="88"/><rect height="10" style="fill:#6d6daa" width="2" x="31" y="88"/><rect height="15" style="fill:#6d6daa" width="2" x="35" y="83"/><rect height="15" style="fill:#6d6daa" width="2" x="39" y="83"/><rect height="15" style="fill:#6d6daa" width="2" x="43" y="83"/></g><path d="M48,99H8a.99974.99974,0,0,1-1-1V88a.99974.99974,0,0,1,1-1H31.51953l3.69971-4.625A.99886.99886,0,0,1,36,82H48a.99974.99974,0,0,1,1,1V98A.99974.99974,0,0,1,48,99ZM9,97H47V84H36.48047l-3.69971,4.625A.99886.99886,0,0,1,32,89H9Z" style="fill:#6d6daa"/><path d="M19,93H13a1,1,0,0,1,0-2h6a1,1,0,0,1,0,2Z" style="fill:#6d6daa"/><path d="M42,93H27a1,1,0,0,1,0-2H42a1,1,0,0,1,0,2Z" style="fill:#6d6daa"/><rect height="15" style="fill:#ebc7c2" width="10" x="76" y="83"/><path d="M86,99H76a.99974.99974,0,0,1-1-1V83a.99974.99974,0,0,1,1-1H86a.99974.99974,0,0,1,1,1V98A.99974.99974,0,0,1,86,99Zm-9-2h8V84H77Z" style="fill:#6d6daa"/><path d="M39.999,84a1.00039,1.00039,0,0,1-.84717-1.53027C44.28906,74.252,52.89209,63.50928,64.707,58.99463a1.00035,1.00035,0,0,1,1.2085.40967c5.01855,8.15039,7.25049,18.707,7.23242,23.59961a.99985.99985,0,0,1-1,.99609H72.144a.99975.99975,0,0,1-.99609-1.00391c.0166-4.51367-1.99512-14.12012-6.50439-21.82471C53.74219,65.6582,45.708,75.75586,40.84814,83.53027A.99891.99891,0,0,1,39.999,84Z" style="fill:#6d6daa"/><g style="opacity:0.2"><rect height="15" style="fill:#6d6daa" width="2" x="76.99951" y="83"/><rect height="15" style="fill:#6d6daa" width="2" x="80.99951" y="83"/></g><path d="M29.62793,89a.97191.97191,0,0,1-.22314-.02539.9996.9996,0,0,1-.75293-1.19727c2.93555-12.874,12.44092-30.10254,24.92871-38.11865a1.00051,1.00051,0,0,1,1.34521.248,53.71981,53.71981,0,0,1,5.55957,9.68359,1.0002,1.0002,0,1,1-1.82227.8252,53.08436,53.08436,0,0,0-4.793-8.55078c-11.64648,7.936-20.48584,24.15381-23.26807,36.35791A1.00108,1.00108,0,0,1,29.62793,89Z" style="fill:#6d6daa"/><path d="M132,113a5.00225,5.00225,0,0,0-1.06146.11829,6.99346,6.99346,0,0,0-13.66827-1.027,3.39822,3.39822,0,0,0-2.98572.71991,5.48682,5.48682,0,0,0-9.98883.92084A3.96972,3.96972,0,0,0,98.14142,118H137A5,5,0,0,0,132,113Z" style="fill:#b1f1a8"/><path d="M98.55475,118a3.96692,3.96692,0,0,1,5.741-1.268,5.48682,5.48682,0,0,1,9.98883-.92084,3.39822,3.39822,0,0,1,2.98572-.71991,6.99346,6.99346,0,0,1,13.66827,1.027A4.93071,4.93071,0,0,1,135.97736,118H137a4.98216,4.98216,0,0,0-6.06146-4.88171,6.99346,6.99346,0,0,0-13.66827-1.027,3.39822,3.39822,0,0,0-2.98572.71991,5.48682,5.48682,0,0,0-9.98883.92084A3.96972,3.96972,0,0,0,98.14142,118Z" style="fill:#fff;opacity:0.5"/><path d="M137,119H98.1416a.99952.99952,0,0,1-.96777-.748A4.9351,4.9351,0,0,1,97,117a5.00589,5.00589,0,0,1,5-5,4.95209,4.95209,0,0,1,1.81982.3457,6.48333,6.48333,0,0,1,10.74658-.89941,4.35265,4.35265,0,0,1,2.02246-.44531,7.99292,7.99292,0,0,1,15.15381,1.00488A5.98017,5.98017,0,0,1,138,118,.99974.99974,0,0,1,137,119Zm-38-2h36.87354a3.97825,3.97825,0,0,0-4.72363-2.9043,1.012,1.012,0,0,1-.78906-.16113,1.00087,1.00087,0,0,1-.41455-.69141,5.99319,5.99319,0,0,0-11.71338-.87988.99959.99959,0,0,1-1.18066.70313,2.35737,2.35737,0,0,0-2.13135.5166,1.01625,1.01625,0,0,1-.81934.21191,1.00365,1.00365,0,0,1-.68848-.49316,4.48667,4.48667,0,0,0-8.17041.752.99882.99882,0,0,1-1.52246.49609A2.99177,2.99177,0,0,0,99,117Z" style="fill:#6d6daa"/><path d="M125.43945,113.68262a.99421.99421,0,0,1-.59424-.19629,1.00828,1.00828,0,0,0-1.31348-.127.99981.99981,0,1,1-1.06348-1.69336,2.96676,2.96676,0,0,1,3.56738.21289.99988.99988,0,0,1-.59619,1.80371Z" style="fill:#6d6daa"/><path d="M119.27187,114.9423a6.00639,6.00639,0,0,0-6.0099-5.9425,12.98574,12.98574,0,0,0-24.7018,2.3308,9.00566,9.00566,0,0,0-4.0624,5.674,6.00567,6.00567,0,0,0-6.1049,7.1945,1.00027,1.00027,0,0,0,.98.8012H123.203a1.0001,1.0001,0,0,0,.99228-.8761,8.92037,8.92037,0,0,0-4.92338-9.1819Z" style="fill:#b1f1a8"/><g style="opacity:0.5"><path d="M78.71487,124.7456a6.00027,6.00027,0,0,1,5.7829-3.741,9.00566,9.00566,0,0,1,4.0624-5.674,12.98574,12.98574,0,0,1,24.7018-2.3308,6.00639,6.00639,0,0,1,6.0099,5.9425,8.93023,8.93023,0,0,1,4.6803,5.6973.98018.98018,0,0,0,.24308-.5154,8.92037,8.92037,0,0,0-4.92338-9.1819,6.00639,6.00639,0,0,0-6.0099-5.9425,12.98574,12.98574,0,0,0-24.7018,2.3308,9.00566,9.00566,0,0,0-4.0624,5.674,6.00567,6.00567,0,0,0-6.1049,7.1945A.99306.99306,0,0,0,78.71487,124.7456Z" style="fill:#fff"/></g><path d="M123.20313,126H79.373a2.00517,2.00517,0,0,1-1.96-1.60254,7.00886,7.00886,0,0,1,6.31543-8.37793,10.0797,10.0797,0,0,1,3.94531-5.30664,13.98588,13.98588,0,0,1,26.25244-2.68164,7.03459,7.03459,0,0,1,6.31348,6.293,9.91834,9.91834,0,0,1,4.94775,9.92383A2.00229,2.00229,0,0,1,123.20313,126Zm-38.94629-8a5.00634,5.00634,0,0,0-4.88379,6h43.83008a7.92329,7.92329,0,0,0-4.374-8.16113.99882.99882,0,0,1-.55713-.88672A5.02027,5.02027,0,0,0,113.26221,110a1.00034,1.00034,0,0,1-.92285-.61523,11.98592,11.98592,0,0,0-22.80029,2.15039.99984.99984,0,0,1-.45508.64746,8.04822,8.04822,0,0,0-3.61133,5.04395.99459.99459,0,0,1-1.01514.77734C84.39063,118.001,84.32373,118,84.25684,118Zm4.30322-6.66895h0Z" style="fill:#6d6daa"/><g style="opacity:0.5"><path d="M99.14795,110.89941a.99772.99772,0,0,1-.8667-.5,2.49977,2.49977,0,0,1,4.32959-2.5.99974.99974,0,1,1-1.73145,1,.50029.50029,0,0,0-.8667.5.99957.99957,0,0,1-.86475,1.5Z" style="fill:#6d6daa"/><path d="M96.5498,112.39941a.99772.99772,0,0,1-.8667-.5,2.49977,2.49977,0,0,1,4.32959-2.5.99974.99974,0,1,1-1.73145,1,.50029.50029,0,0,0-.8667.5.99957.99957,0,0,1-.86475,1.5Z" style="fill:#6d6daa"/></g><path d="M89.7417,120.84082a.99872.99872,0,0,1-.70654-.292,2.50008,2.50008,0,1,1,3.53516-3.53613.99989.99989,0,0,1-1.41406,1.41406.49995.49995,0,1,0-.708.70605,1.00049,1.00049,0,0,1-.70654,1.708Z" style="fill:#6d6daa;opacity:0.5"/><path d="M111.42383,117.84082a.99976.99976,0,0,1-.707-1.707.50012.50012,0,0,0-.70752-.707.99989.99989,0,0,1-1.41406-1.41406,2.49991,2.49991,0,0,1,3.53564,3.53516A.99676.99676,0,0,1,111.42383,117.84082Z" style="fill:#6d6daa;opacity:0.5"/><path d="M42.552,122.87194a3.37035,3.37035,0,0,0,.75-1.76466,1.90315,1.90315,0,0,0-.75-2.01273,3.36867,3.36867,0,0,0,.75-1.76419,1.90369,1.90369,0,0,0-.75-2.01327,3.367,3.367,0,0,0,.75-1.76427,1.90247,1.90247,0,0,0-.75-2.01265,3.37063,3.37063,0,0,0,.75-1.76473,1.90284,1.90284,0,0,0-.75-2.01273,3.37035,3.37035,0,0,0,.75-1.76473,1.9032,1.9032,0,0,0-.75-2.01273c.373-.40674-3.41589-.48226-3.051-.05835a1.76186,1.76186,0,0,0-.77315,2.07108,3.94619,3.94619,0,0,0,.77315,1.70646,1.7615,1.7615,0,0,0-.77315,2.071,3.94619,3.94619,0,0,0,.77315,1.70646,1.7612,1.7612,0,0,0-.77315,2.07092,3.94534,3.94534,0,0,0,.77315,1.70646,1.76138,1.76138,0,0,0-.77315,2.07108,3.94345,3.94345,0,0,0,.77315,1.70592,1.76176,1.76176,0,0,0-.77315,2.071,3.945,3.945,0,0,0,.77315,1.70638Z" style="fill:#d6b5b0;fill-rule:evenodd"/><path d="M42.55225,123.87207h-.019l-3.05127-.05859a1.00061,1.00061,0,0,1-.73877-.34766,4.88774,4.88774,0,0,1-.99023-2.1377,2.90419,2.90419,0,0,1,.44873-2.4707,5.89377,5.89377,0,0,1-.44873-1.30664,2.90419,2.90419,0,0,1,.44873-2.4707,5.89376,5.89376,0,0,1-.44873-1.30664,2.90584,2.90584,0,0,1,.44873-2.4707,5.89377,5.89377,0,0,1-.44873-1.30664,2.90419,2.90419,0,0,1,.44873-2.4707,5.89376,5.89376,0,0,1-.44873-1.30664,2.78132,2.78132,0,0,1,.88721-2.91406,1.10118,1.10118,0,0,1,.18115-.21777c.6709-.626,3.78027-.56934,4.43555.08105a1.13606,1.13606,0,0,1,.18848.24707,2.93233,2.93233,0,0,1,.84375,2.74414,5.17042,5.17042,0,0,1-.45361,1.47363,3.069,3.069,0,0,1,.45361,2.30371,5.17042,5.17042,0,0,1-.45361,1.47363,3.069,3.069,0,0,1,.45361,2.30371,5.17042,5.17042,0,0,1-.45361,1.47363,3.069,3.069,0,0,1,.45361,2.30371,5.1802,5.1802,0,0,1-.45361,1.47363,3.069,3.069,0,0,1,.45361,2.30371,4.347,4.347,0,0,1-.99951,2.2793A.99891.99891,0,0,1,42.55225,123.87207Zm-2.51953-2.04883,2.00684.03906a3.2098,3.2098,0,0,0,.27588-.917.93154.93154,0,0,0-.3125-1.01465,1.001,1.001,0,0,1-.188-1.51172,2.463,2.463,0,0,0,.50049-1.251.93154.93154,0,0,0-.3125-1.01465,1.0009,1.0009,0,0,1-.187-1.5127,2.46071,2.46071,0,0,0,.49951-1.25.93154.93154,0,0,0-.3125-1.01465,1.0009,1.0009,0,0,1-.187-1.5127,2.46071,2.46071,0,0,0,.49951-1.25.93154.93154,0,0,0-.3125-1.01465,1.0009,1.0009,0,0,1-.187-1.5127,2.46071,2.46071,0,0,0,.49951-1.25.93154.93154,0,0,0-.3125-1.01465,1.08721,1.08721,0,0,1-.14941-.12012,8.9433,8.9433,0,0,0-1.68066-.03418.98765.98765,0,0,1-.1792.12988c-.12451.07031-.4541.25684-.29053.98047a3.00656,3.00656,0,0,0,.55566,1.27441.99937.99937,0,0,1-.26514,1.52246c-.12451.07031-.4541.25684-.29053.98047a3.00656,3.00656,0,0,0,.55566,1.27441.99937.99937,0,0,1-.26514,1.52246c-.12451.07031-.4541.25684-.29053.98047a3.00933,3.00933,0,0,0,.55664,1.27637,1.00056,1.00056,0,0,1-.26709,1.52246c-.124.06934-.45312.25586-.28955.97852a3.00656,3.00656,0,0,0,.55566,1.27441.99937.99937,0,0,1-.26514,1.52246c-.12451.07031-.4541.25684-.29053.98047A3.79707,3.79707,0,0,0,40.03271,121.82324Z" style="fill:#6d6daa"/><path d="M51,111a10,10,0,0,0-20,0v.5a2.5,2.5,0,0,0,5,0h0a2.5,2.5,0,0,0,5,0h0a2.5,2.5,0,0,0,5,0h0a2.5,2.5,0,0,0,5,0Z" style="fill:#b1f1a8"/><path d="M41,101a10,10,0,0,0-10,10v.5a2.47532,2.47532,0,0,0,.151.8266,9.98817,9.98817,0,0,1,19.698,0A2.47532,2.47532,0,0,0,51,111.5V111A10,10,0,0,0,41,101Z" style="fill:#fff;opacity:0.5"/><path d="M48.5,115a3.48905,3.48905,0,0,1-2.5-1.05273,3.49483,3.49483,0,0,1-5,0,3.49483,3.49483,0,0,1-5,0A3.49847,3.49847,0,0,1,30,111.5V111a11,11,0,0,1,22,0v.5A3.50425,3.50425,0,0,1,48.5,115ZM47,111.5a1.5,1.5,0,0,0,3,0V111a9,9,0,0,0-18,0v.5a1.5,1.5,0,0,0,3,0v-.12793a1,1,0,0,1,2,0V111.5a1.5,1.5,0,0,0,3,0v-.12793a1,1,0,0,1,2,0V111.5a1.5,1.5,0,0,0,3,0v-.12793a1,1,0,0,1,2,0Z" style="fill:#6d6daa"/><g style="opacity:0.30000000000000004"><path d="M46,112.5a.99974.99974,0,0,1-1-1V111c0-5.30371-2.10791-9-4-9s-4,3.69629-4,9v.5a1,1,0,0,1-2,0V111c0-6.168,2.63574-11,6-11s6,4.832,6,11v.5A.99974.99974,0,0,1,46,112.5Z" style="fill:#6d6daa"/><path d="M41,112a.99974.99974,0,0,1-1-1V101a1,1,0,0,1,2,0v10A.99974.99974,0,0,1,41,112Z" style="fill:#6d6daa"/></g><path d="M25.552,113a3.37035,3.37035,0,0,0,.75-1.76466,1.90315,1.90315,0,0,0-.75-2.01273,3.36867,3.36867,0,0,0,.75-1.76419,1.90369,1.90369,0,0,0-.75-2.01327,3.367,3.367,0,0,0,.75-1.76427,1.90247,1.90247,0,0,0-.75-2.01265,3.37063,3.37063,0,0,0,.75-1.76473,1.90284,1.90284,0,0,0-.75-2.01273,3.37035,3.37035,0,0,0,.75-1.76473,1.9032,1.9032,0,0,0-.75-2.01273c.373-.40674-3.41589-.48226-3.051-.05835a1.76186,1.76186,0,0,0-.77315,2.07108A3.94619,3.94619,0,0,0,22.501,97.8325a1.7615,1.7615,0,0,0-.77315,2.071A3.94619,3.94619,0,0,0,22.501,101.61a1.7612,1.7612,0,0,0-.77315,2.07092,3.94534,3.94534,0,0,0,.77315,1.70646,1.76138,1.76138,0,0,0-.77315,2.07108,3.94345,3.94345,0,0,0,.77315,1.70592,1.76176,1.76176,0,0,0-.77315,2.071,3.945,3.945,0,0,0,.77315,1.70638Z" style="fill:#d6b5b0;fill-rule:evenodd"/><path d="M25.55225,114h-.019l-3.05127-.05859a1.00061,1.00061,0,0,1-.73877-.34766,4.88774,4.88774,0,0,1-.99023-2.1377,2.90419,2.90419,0,0,1,.44873-2.4707,5.89377,5.89377,0,0,1-.44873-1.30664,2.90136,2.90136,0,0,1,.44873-2.46973,5.92,5.92,0,0,1-.44922-1.30762,2.90428,2.90428,0,0,1,.44922-2.4707,5.89377,5.89377,0,0,1-.44873-1.30664,2.90419,2.90419,0,0,1,.44873-2.4707,5.89376,5.89376,0,0,1-.44873-1.30664,2.78042,2.78042,0,0,1,.88721-2.91406,1.08729,1.08729,0,0,1,.18164-.21777c.67139-.627,3.78076-.56836,4.43555.082a1.11319,1.11319,0,0,1,.18848.24707,2.93345,2.93345,0,0,1,.84326,2.74316,5.17042,5.17042,0,0,1-.45361,1.47363,3.069,3.069,0,0,1,.45361,2.30371,5.17042,5.17042,0,0,1-.45361,1.47363,3.069,3.069,0,0,1,.45361,2.30371,5.17042,5.17042,0,0,1-.45361,1.47363,3.069,3.069,0,0,1,.45361,2.30371,5.17042,5.17042,0,0,1-.45361,1.47363,3.069,3.069,0,0,1,.45361,2.30371,4.34014,4.34014,0,0,1-1.00049,2.28027A1.00027,1.00027,0,0,1,25.55225,114Zm-2.51953-2.04883,2.00732.03906a3.22606,3.22606,0,0,0,.27539-.917.93154.93154,0,0,0-.3125-1.01465,1.0009,1.0009,0,0,1-.187-1.5127,2.46071,2.46071,0,0,0,.49951-1.25.93154.93154,0,0,0-.3125-1.01465,1.0009,1.0009,0,0,1-.187-1.5127,2.46071,2.46071,0,0,0,.49951-1.25.93154.93154,0,0,0-.3125-1.01465,1.0009,1.0009,0,0,1-.187-1.5127,2.46071,2.46071,0,0,0,.49951-1.25.93154.93154,0,0,0-.3125-1.01465,1.0009,1.0009,0,0,1-.187-1.5127,2.46071,2.46071,0,0,0,.49951-1.25.93239.93239,0,0,0-.31348-1.01562,1.02624,1.02624,0,0,1-.14795-.11914,8.95185,8.95185,0,0,0-1.68115-.03418.943.943,0,0,1-.1792.12988c-.12451.07031-.4541.25684-.29053.98047a3.00656,3.00656,0,0,0,.55566,1.27441.99937.99937,0,0,1-.26514,1.52246c-.12451.07031-.4541.25684-.29053.98047a3.00934,3.00934,0,0,0,.55664,1.27637,1.00056,1.00056,0,0,1-.26709,1.52246c-.124.06934-.45312.25586-.28955.97852a3.02066,3.02066,0,0,0,.55664,1.27637,1.00056,1.00056,0,0,1-.26709,1.52246c-.124.06934-.45312.25586-.28955.97852a3.00656,3.00656,0,0,0,.55566,1.27441.99937.99937,0,0,1-.26514,1.52246c-.12451.07031-.4541.25684-.29053.98047A3.79707,3.79707,0,0,0,23.03271,111.95117Z" style="fill:#6d6daa"/><path d="M34,101.12806a10,10,0,0,0-20,0v.5a2.5,2.5,0,0,0,5,0h0a2.5,2.5,0,0,0,5,0h0a2.5,2.5,0,0,0,5,0h0a2.5,2.5,0,0,0,5,0Z" style="fill:#b1f1a8"/><path d="M24,91.12805a10,10,0,0,0-10,10v.5a2.474,2.474,0,0,0,.13788.78436,9.987,9.987,0,0,1,19.72424,0A2.474,2.474,0,0,0,34,101.62805v-.5A10,10,0,0,0,24,91.12805Z" style="fill:#fff;opacity:0.5"/><path d="M31.5,105.12793A3.48905,3.48905,0,0,1,29,104.0752a3.49483,3.49483,0,0,1-5,0,3.49483,3.49483,0,0,1-5,0,3.49847,3.49847,0,0,1-6-2.44727v-.5a11,11,0,1,1,22,0v.5A3.50425,3.50425,0,0,1,31.5,105.12793Zm-1.5-3.5a1.5,1.5,0,0,0,3,0v-.5a9,9,0,1,0-18,0v.5a1.5,1.5,0,0,0,3,0V101.5a1,1,0,0,1,2,0v.12793a1.5,1.5,0,0,0,3,0V101.5a1,1,0,0,1,2,0v.12793a1.5,1.5,0,0,0,3,0V101.5a1,1,0,0,1,2,0Z" style="fill:#6d6daa"/><g style="opacity:0.30000000000000004"><path d="M29,102.62793a.99974.99974,0,0,1-1-1v-.5c0-5.30371-2.10791-9-4-9s-4,3.69629-4,9v.5a1,1,0,0,1-2,0v-.5c0-6.168,2.63574-11,6-11s6,4.832,6,11v.5A.99974.99974,0,0,1,29,102.62793Z" style="fill:#6d6daa"/><path d="M24,102.12793a.99974.99974,0,0,1-1-1v-10a1,1,0,0,1,2,0v10A.99974.99974,0,0,1,24,102.12793Z" style="fill:#6d6daa"/></g></g><path d="M17.53857,53.64014a1.001,1.001,0,0,1-.75732-.34717,4.00476,4.00476,0,0,0-1.63574-1.24561,1,1,0,0,1,0-2,3.95182,3.95182,0,0,1,2.3877,1.16357A4.05211,4.05211,0,0,1,20,50a1,1,0,0,1,0,2,3.85167,3.85167,0,0,0-1.69287,1.28076,1.00029,1.00029,0,0,1-.75977.35938Z" style="fill:#6d6daa"/></svg>