<?xml version="1.0" ?><svg data-name="009" height="128" id="_009" viewBox="0 0 128 128" width="128" xmlns="http://www.w3.org/2000/svg"><title/><g style="opacity:0.30000000000000004"><path d="M91.995,102.26888a38.99465,38.99465,0,1,0-11.549-77.12738,20.61615,20.61615,0,0,1-20.60412-9.6596A30.749,30.749,0,1,0,12.072,53.55706c6.09523,6.05844,7.6582,15.44629,3.12493,22.74738A33.74765,33.74765,0,0,0,70.40773,114.9458,33.63428,33.63428,0,0,1,91.995,102.26888Z" style="fill:#c9c1f5"/><polygon points="46 89 28 89 28 87 28 75.001 46 75.001 46 87 46 89" style="fill:#ced8ee"/><path d="M46,90H28a.99974.99974,0,0,1-1-1V75.001a.99974.99974,0,0,1,1-1H46a.99974.99974,0,0,1,1,1V89A.99974.99974,0,0,1,46,90ZM29,88H45V76.001H29Z" style="fill:#6d6daa"/><rect height="3.9998" style="fill:#2b5c8e;opacity:0.30000000000000004" width="15.9996" x="29.0002" y="75.0002"/><path d="M49,90H25a1,1,0,0,1,0-2H49a1,1,0,0,1,0,2Z" style="fill:#6d6daa"/><path d="M6,19.0009H84a2,2,0,0,1,2,2V64.9993a0,0,0,0,1,0,0H4a0,0,0,0,1,0,0V21.0009A2,2,0,0,1,6,19.0009Z" style="fill:#e0f3ff"/><polygon points="85 24 5 60 5 20.001 85 20.001 85 24" style="fill:#c7e9ff"/><path d="M84,19.0009H6a2,2,0,0,0-2,2v4.00037a2,2,0,0,1,2-2H84a2,2,0,0,1,2,2V21.0009A2,2,0,0,0,84,19.0009Z" style="fill:#1c64ba;opacity:0.30000000000000004"/><path d="M86,65.99951H4a.99974.99974,0,0,1-1-1V21.001a3.00328,3.00328,0,0,1,3-3H84a3.00328,3.00328,0,0,1,3,3V64.99951A.99974.99974,0,0,1,86,65.99951Zm-81-2H85V21.001a1.001,1.001,0,0,0-1-1H6a1.001,1.001,0,0,0-1,1Z" style="fill:#6d6daa"/><polygon points="85 30 5 66 5 63 85 27 85 30" style="fill:#c7e9ff"/><path d="M4,65.0004H86a0,0,0,0,1,0,0v5.9999a4,4,0,0,1-4,4H8a4,4,0,0,1-4-4V65.0004A0,0,0,0,1,4,65.0004Z" style="fill:#eef6ff"/><path d="M82,76.00049H8a5.00589,5.00589,0,0,1-5-5v-6a.99974.99974,0,0,1,1-1H86a.99974.99974,0,0,1,1,1v6A5.00589,5.00589,0,0,1,82,76.00049Zm-77-10v5a3.00328,3.00328,0,0,0,3,3H82a3.00328,3.00328,0,0,0,3-3v-5Z" style="fill:#6d6daa"/><rect height="37.0004" rx="1" ry="1" style="fill:#5cbeff" width="48.0006" x="71.99976" y="4.00009"/><path d="M72.99976,4.00009h46.0006a1,1,0,0,1,1,1v33.0001a0,0,0,0,1,0,0H71.99976a0,0,0,0,1,0,0V5.00009A1,1,0,0,1,72.99976,4.00009Z" style="fill:#96d7ff"/><path d="M119.66049,4.26129a.98811.98811,0,0,0-.6601-.26123H72.99978a1,1,0,0,0-1,1v21.9Z" style="fill:#c7e9ff"/><polygon points="120 9.1 120 6.1 72 28.9 72 31.9 120 9.1" style="fill:#c7e9ff"/><path d="M119.00037,4.00009H72.99977a1,1,0,0,0-1,1V9.00045a1,1,0,0,1,1-1h46.0006a1,1,0,0,1,1,1V5.00009A1,1,0,0,0,119.00037,4.00009Z" style="fill:#1c64ba;opacity:0.30000000000000004"/><path d="M119,42.00049H73a2.00229,2.00229,0,0,1-2-2V5a2.00229,2.00229,0,0,1,2-2h46a2.00229,2.00229,0,0,1,2,2V40.00049A2.00229,2.00229,0,0,1,119,42.00049ZM73,5V40.00049h46.001L119,5Z" style="fill:#6d6daa"/><path d="M123.00036,36.00049h-19.0002l-1,1H89l-1-1H67.99976v3a2,2,0,0,0,2,2h51.0006a2,2,0,0,0,2-2Z" style="fill:#eef6ff"/><path d="M121,42.00049H70a3.00328,3.00328,0,0,1-3-3v-3a.99974.99974,0,0,1,1-1H88a.99928.99928,0,0,1,.707.293l.707.707h13.17188l.707-.707a.99928.99928,0,0,1,.707-.293h19a.99974.99974,0,0,1,1,1v3A3.00328,3.00328,0,0,1,121,42.00049Zm-52-5v2a1.001,1.001,0,0,0,1,1h51a1.001,1.001,0,0,0,1-1v-2H104.41406l-.707.707a.99928.99928,0,0,1-.707.293H89a.99928.99928,0,0,1-.707-.293l-.707-.707Z" style="fill:#6d6daa"/><rect height="44.0001" rx="2" ry="2" style="fill:#eef6ff" width="30.00008" x="93.00006" y="61.00039"/><path d="M121,106.00049H95a3.00328,3.00328,0,0,1-3-3v-40a3.00328,3.00328,0,0,1,3-3h26a3.00328,3.00328,0,0,1,3,3v40A3.00328,3.00328,0,0,1,121,106.00049Zm-26-44a1.001,1.001,0,0,0-1,1v40a1.001,1.001,0,0,0,1,1h26a1.001,1.001,0,0,0,1-1v-40a1.001,1.001,0,0,0-1-1Z" style="fill:#6d6daa"/><rect height="32.0001" style="fill:#96d7ff" width="30.00008" x="93.00006" y="65.00039"/><polygon points="123 69.222 93 87 93 65 123 65 123 69.222" style="fill:#c7e9ff"/><polygon points="123 73.222 93 91 93 89 123 71.222 123 73.222" style="fill:#c7e9ff"/><path d="M108,102.5a1.35141,1.35141,0,0,1-.29-.03027,1.36658,1.36658,0,0,1-.54-.21973A1.51094,1.51094,0,0,1,106.5,101a1.32426,1.32426,0,0,1,.03027-.29,2.34743,2.34743,0,0,1,.0791-.28027,2.19947,2.19947,0,0,1,.14063-.25977,2.1079,2.1079,0,0,1,.18945-.23,1.46524,1.46524,0,0,1,.23047-.18994,1.26841,1.26841,0,0,1,.25977-.13037,1.29639,1.29639,0,0,1,.28027-.08984,1.50343,1.50343,0,0,1,1.34961.41016,2.11606,2.11606,0,0,1,.19043.23,1.90735,1.90735,0,0,1,.21973.54A1.32426,1.32426,0,0,1,109.5,101a1.51665,1.51665,0,0,1-.44043,1.06006A1.49815,1.49815,0,0,1,108,102.5Z" style="fill:#6d6daa"/><rect height="4" style="fill:#1c64ba;opacity:0.30000000000000004" width="30.0003" x="92.99996" y="65.00029"/><path d="M123,98.00049H93a.99974.99974,0,0,1-1-1v-32a.99974.99974,0,0,1,1-1h30a.99974.99974,0,0,1,1,1v32A.99974.99974,0,0,1,123,98.00049Zm-29-2h28v-30H94Z" style="fill:#6d6daa"/><rect height="33.9991" rx="2" ry="2" style="fill:#eef6ff" width="17.9989" x="16.0019" y="9.0017"/><path d="M32.001,44.001H18.002a3.00328,3.00328,0,0,1-3-3V11.00146a3.00328,3.00328,0,0,1,3-3H32.001a3.00328,3.00328,0,0,1,3,3V41.001A3.00328,3.00328,0,0,1,32.001,44.001ZM18.002,10.00146a1.001,1.001,0,0,0-1,1V41.001a1.001,1.001,0,0,0,1,1H32.001a1.001,1.001,0,0,0,1-1V11.00146a1.001,1.001,0,0,0-1-1Z" style="fill:#6d6daa"/><rect height="21.9991" style="fill:#f5fbff" width="17.9989" x="16.0019" y="13.0017"/><path d="M34.001,36.001H16.002a.99974.99974,0,0,1-1-1V13.00146a.99974.99974,0,0,1,1-1H34.001a.99974.99974,0,0,1,1,1V35.001A.99974.99974,0,0,1,34.001,36.001Zm-16.999-2H33.001V14.00146H17.002Z" style="fill:#6d6daa"/><polygon points="16.002 27.001 34.001 16.335 34.001 13.002 16.002 13.002 16.002 27.001" style="fill:#c7e9ff"/><polygon points="16.002 31.001 34.001 20.335 34.001 18.335 16.002 29.001 16.002 31.001" style="fill:#c7e9ff"/><path d="M25,40.5a1.35141,1.35141,0,0,1-.29-.03027,1.36658,1.36658,0,0,1-.54-.21973,2.1653,2.1653,0,0,1-.23047-.18994,1.46768,1.46768,0,0,1-.18945-.23047,1.02646,1.02646,0,0,1-.12988-.25977,1.28277,1.28277,0,0,1-.08984-.27979A1.33064,1.33064,0,0,1,23.5,39a1.51815,1.51815,0,0,1,.43945-1.06006,2.10768,2.10768,0,0,1,.23047-.18994,1.26841,1.26841,0,0,1,.25977-.13037,1.29639,1.29639,0,0,1,.28027-.08984,1.41569,1.41569,0,0,1,.58008,0,1.30542,1.30542,0,0,1,.2793.08984,1.25162,1.25162,0,0,1,.26074.13037,1.41348,1.41348,0,0,1,.22949.18994A1.51491,1.51491,0,0,1,26.5,39a1.33064,1.33064,0,0,1-.03027.29,2.171,2.171,0,0,1-.08008.27979,1.58488,1.58488,0,0,1-.13965.25977,1.47211,1.47211,0,0,1-.19043.23047A1.49815,1.49815,0,0,1,25,40.5Z" style="fill:#6d6daa"/><rect height="4" style="fill:#1c64ba;opacity:0.30000000000000004" width="17.9991" x="16.0018" y="13.0016"/><path d="M34.001,36.001H16.002a.99974.99974,0,0,1-1-1V13.00146a.99974.99974,0,0,1,1-1H34.001a.99974.99974,0,0,1,1,1V35.001A.99974.99974,0,0,1,34.001,36.001Zm-16.999-2H33.001V14.00146H17.002Z" style="fill:#6d6daa"/><path d="M109.00684,119H22.99707a1,1,0,1,1,0-2h86.00977a1,1,0,0,1,0,2Z" style="fill:#6d6daa"/><path d="M117.00781,119h-5a1,1,0,0,1,0-2h5a1,1,0,0,1,0,2Z" style="fill:#6d6daa"/><path d="M12.99609,119H12.2998a1,1,0,0,1,0-2h.69629a1,1,0,0,1,0,2Z" style="fill:#6d6daa"/><path d="M19.99707,119h-4.001a1,1,0,0,1,0-2h4.001a1,1,0,0,1,0,2Z" style="fill:#6d6daa"/></g><path d="M18,112a6,6,0,0,0,6,6H42a8,8,0,0,1-8-8V71H18Z" style="fill:#ced8ee"/><path d="M34.26221,112H24a6,6,0,0,1-6-6v6a6,6,0,0,0,6,6H42A7.99586,7.99586,0,0,1,34.26221,112Z" style="fill:#6e7eb0;opacity:0.30000000000000004"/><path d="M42,119H24a7.00818,7.00818,0,0,1-7-7V71a.99974.99974,0,0,1,1-1H34a.99974.99974,0,0,1,1,1v39a7.00818,7.00818,0,0,0,7,7,1,1,0,0,1,0,2ZM19,72v40a5.00589,5.00589,0,0,0,5,5H36.34863A8.98851,8.98851,0,0,1,33,110V72Z" style="fill:#6d6daa"/><path d="M30,111c0,4-2,7-6,7h77a6,6,0,0,0,6-6V36H30v75Z" style="fill:#fff"/><rect height="32" style="fill:#fff27d" width="77" x="30" y="46"/><path d="M101,112H29.95062c-.31287,3.488-2.29279,6-5.95062,6h77a6,6,0,0,0,6-6v-6A6,6,0,0,1,101,112Z" style="fill:#7690a8;opacity:0.30000000000000004"/><path d="M107,33v8H30V33a4.01176,4.01176,0,0,1,4-4h69A4.01176,4.01176,0,0,1,107,33Z" style="fill:#eef6ff"/><path d="M103,29H34a4.01178,4.01178,0,0,0-4,4v3a4.01178,4.01178,0,0,1,4-4h69a4.01174,4.01174,0,0,1,4,4V33A4.01174,4.01174,0,0,0,103,29Z" style="fill:#fff"/><rect height="4" rx="2" ry="2" style="fill:#fff" width="38.00004" x="64.99996" y="33"/><path d="M101,38H67a3,3,0,0,1,0-6h34a3,3,0,0,1,0,6ZM67,34a1,1,0,0,0,0,2h34a1,1,0,0,0,0-2Z" style="fill:#6d6daa"/><circle cx="35.99986" cy="35" r="2" style="fill:#ff9797"/><path d="M36,38a3,3,0,1,1,3-3A3.00328,3.00328,0,0,1,36,38Zm0-4a1,1,0,1,0,1,1A1.001,1.001,0,0,0,36,34Z" style="fill:#6d6daa"/><circle cx="43.99986" cy="35" r="2" style="fill:#ffc661"/><path d="M44,38a3,3,0,1,1,3-3A3.00328,3.00328,0,0,1,44,38Zm0-4a1,1,0,1,0,1,1A1.001,1.001,0,0,0,44,34Z" style="fill:#6d6daa"/><circle cx="51.99986" cy="35" r="2" style="fill:#b1f1a8"/><path d="M52,38a3,3,0,1,1,3-3A3.00328,3.00328,0,0,1,52,38Zm0-4a1,1,0,1,0,1,1A1.001,1.001,0,0,0,52,34Z" style="fill:#6d6daa"/><path d="M106,42H31a1,1,0,0,1,0-2h75a1,1,0,0,1,0,2Z" style="fill:#6d6daa"/><path d="M101,119H24a1,1,0,0,1,0-2,5.00589,5.00589,0,0,0,5-5V33a5.00589,5.00589,0,0,1,5-5h69a5.00589,5.00589,0,0,1,5,5v79A7.00818,7.00818,0,0,1,101,119Zm-72.10547-2H101a5.00589,5.00589,0,0,0,5-5V33a3.00328,3.00328,0,0,0-3-3H34a3.00328,3.00328,0,0,0-3,3v79A6.979,6.979,0,0,1,28.89453,117Z" style="fill:#6d6daa"/><path d="M63.07617,74a.99991.99991,0,0,1-.89355-1.44727l10.8457-21.69238a1.00012,1.00012,0,0,1,1.78906.89453L63.97168,73.44727A1.001,1.001,0,0,1,63.07617,74Z" style="fill:#6d6daa"/><path d="M81.1543,74a1,1,0,0,1-.707-1.707L91.293,61.44678A.99989.99989,0,0,1,92.707,62.86084L81.86133,73.707A.99676.99676,0,0,1,81.1543,74Z" style="fill:#6d6daa"/><path d="M92,63.15381a.99676.99676,0,0,1-.707-.293L80.44727,52.01465a.99989.99989,0,0,1,1.41406-1.41406L92.707,61.44678a1,1,0,0,1-.707,1.707Z" style="fill:#6d6daa"/><path d="M45,63.15381a1,1,0,0,1-.707-1.707l10.8457-10.84619a.99989.99989,0,0,1,1.41406,1.41406L45.707,62.86084A.99676.99676,0,0,1,45,63.15381Z" style="fill:#6d6daa"/><path d="M55.8457,74a.99676.99676,0,0,1-.707-.293L44.293,62.86084A.99989.99989,0,0,1,45.707,61.44678L56.55273,72.293A1,1,0,0,1,55.8457,74Z" style="fill:#6d6daa"/><g style="opacity:0.30000000000000004"><path d="M40,92H37a1,1,0,0,1,0-2h3a1,1,0,0,1,0,2Z" style="fill:#6d6daa"/><path d="M56,92H46a1,1,0,0,1,0-2H56a1,1,0,0,1,0,2Z" style="fill:#6d6daa"/><path d="M83,92H61a1,1,0,0,1,0-2H83a1,1,0,0,1,0,2Z" style="fill:#6d6daa"/><path d="M66,96H46a1,1,0,0,1,0-2H66a1,1,0,0,1,0,2Z" style="fill:#6d6daa"/><path d="M40,100H37a1,1,0,0,1,0-2h3a1,1,0,0,1,0,2Z" style="fill:#6d6daa"/><path d="M49.5791,100H46a1,1,0,0,1,0-2h3.5791a1,1,0,0,1,0,2Z" style="fill:#6d6daa"/><path d="M68,100H55.1543a1,1,0,0,1,0-2H68a1,1,0,0,1,0,2Z" style="fill:#6d6daa"/><path d="M40,96H37a1,1,0,0,1,0-2h3a1,1,0,0,1,0,2Z" style="fill:#6d6daa"/><path d="M66,88H46a1,1,0,0,1,0-2H66a1,1,0,0,1,0,2Z" style="fill:#6d6daa"/><path d="M40,88H37a1,1,0,0,1,0-2h3a1,1,0,0,1,0,2Z" style="fill:#6d6daa"/><path d="M53,84H46a1,1,0,0,1,0-2h7a1,1,0,0,1,0,2Z" style="fill:#6d6daa"/><path d="M64,84H57a1,1,0,0,1,0-2h7a1,1,0,0,1,0,2Z" style="fill:#6d6daa"/><path d="M40,84H37a1,1,0,0,1,0-2h3a1,1,0,0,1,0,2Z" style="fill:#6d6daa"/><path d="M40,104H37a1,1,0,0,1,0-2h3a1,1,0,0,1,0,2Z" style="fill:#6d6daa"/><path d="M54,104H46a1,1,0,0,1,0-2h8a1,1,0,0,1,0,2Z" style="fill:#6d6daa"/><path d="M40,108H37a1,1,0,0,1,0-2h3a1,1,0,0,1,0,2Z" style="fill:#6d6daa"/><path d="M57,108H46a1,1,0,0,1,0-2H57a1,1,0,0,1,0,2Z" style="fill:#6d6daa"/></g></svg>