<?xml version="1.0" ?><svg viewBox="0 0 24 24" xmlns="http://www.w3.org/2000/svg" xmlns:xlink="http://www.w3.org/1999/xlink"><defs><linearGradient gradientUnits="userSpaceOnUse" id="a" x1="1.21356" x2="22.78657" y1="5.22011" y2="15.27977"><stop offset="0" stop-color="#fff" stop-opacity="0.2"/><stop offset="1" stop-color="#fff" stop-opacity="0"/></linearGradient></defs><title/><path d="M9.5,23a.50317.50317,0,0,1-.18115-.03418l-9-3.5A.49948.49948,0,0,1,.00732,18.915l.77149-4.5A.5.5,0,0,1,1.27148,14h4.0586a.49987.49987,0,0,1,.49267.585L5.55664,16.1377,9.6499,17.72949l6.87744-2.1875.52149-3.042H1.7002a.49975.49975,0,0,1-.49268-.58447l.68555-4A.49949.49949,0,0,1,2.38574,7.5h15.52L18.1626,6H2.81445a.49975.49975,0,0,1-.49267-.58447l.68554-4A.49951.49951,0,0,1,3.5,1h20a.49977.49977,0,0,1,.49268.58447l-3,17.50049a.49957.49957,0,0,1-.34131.3916l-11,3.5A.49969.49969,0,0,1,9.5,23Z"/><path d="M1.062,18.68164,9.5166,21.96973l10.542-3.35352L22.90723,2H3.92139L3.40723,5H18.75586a.49977.49977,0,0,1,.49268.58447l-.42872,2.5A.49949.49949,0,0,1,18.32715,8.5h-15.52l-.51416,3H17.6416a.49975.49975,0,0,1,.49268.58447l-.67285,3.9253a.49946.49946,0,0,1-.34131.39257l-7.33545,2.334a.51072.51072,0,0,1-.33252-.01074L4.81348,16.92188a.49948.49948,0,0,1-.31153-.55079L4.73682,15H1.69287Z" fill="#2979ff"/><path d="M9.5,23a.50317.50317,0,0,1-.18115-.03418l-9-3.5A.49948.49948,0,0,1,.00732,18.915l.77149-4.5A.5.5,0,0,1,1.27148,14h4.0586a.49987.49987,0,0,1,.49267.585L5.55664,16.1377,9.6499,17.72949l6.87744-2.1875.52149-3.042H1.7002a.49975.49975,0,0,1-.49268-.58447l.68555-4A.49949.49949,0,0,1,2.38574,7.5h15.52L18.1626,6H2.81445a.49975.49975,0,0,1-.49267-.58447l.68554-4A.49951.49951,0,0,1,3.5,1h20a.49977.49977,0,0,1,.49268.58447l-3,17.50049a.49957.49957,0,0,1-.34131.3916l-11,3.5A.49969.49969,0,0,1,9.5,23Z" fill="url(#a)"/></svg>