<?xml version="1.0" ?><svg data-name="001" id="_001" viewBox="0 0 128 128" xmlns="http://www.w3.org/2000/svg"><defs><style>.cls-1{opacity:0.3;}.cls-2{fill:#96d7ff;}.cls-3{fill:#f2eed5;}.cls-4{fill:#6d6daa;}.cls-5{fill:#fffad1;}.cls-6{fill:#e0f3ff;}.cls-17,.cls-7{fill:#c9c1f5;}.cls-8{fill:#ff968c;}.cls-9{fill:#fff2cc;}.cls-10{fill:#ff9797;}.cls-11{fill:#fff9e0;}.cls-12{fill:#ced8ee;}.cls-13{fill:#eef6ff;}.cls-14,.cls-18{fill:#fff;}.cls-15{opacity:0.5;}.cls-16{fill:#b1f1a8;}.cls-17,.cls-18,.cls-19{fill-rule:evenodd;}.cls-19{fill:#554dad;}.cls-20{fill:#2b5c8e;}.cls-21{fill:#c7e9ff;}.cls-22{fill:#1c64ba;}.cls-23{fill:#5cbeff;}.cls-24{fill:#f5fbff;}</style></defs><title/><g class="cls-1"><path class="cls-2" d="M126.19,51.69a30,30,0,0,0-23.51-25,19.69,19.69,0,0,1-10.93-6.55A37,37,0,0,0,27.42,35.78,19.57,19.57,0,0,1,17,48.94,28,28,0,1,0,54.66,86.29,9.41,9.41,0,0,1,63.17,81H64a12.39,12.39,0,0,1,12,9.74,20,20,0,0,0,26.06,14.14A20,20,0,0,0,115.47,87,21.38,21.38,0,0,1,120,74.65,29.91,29.91,0,0,0,126.19,51.69Z"/><rect class="cls-3" height="21" width="6" x="85" y="42"/><path class="cls-4" d="M91,64H85a1,1,0,0,1-1-1V42a1,1,0,0,1,1-1h6a1,1,0,0,1,1,1V63A1,1,0,0,1,91,64Zm-5-2h4V43H86Z"/><rect class="cls-5" height="6" width="44" x="79" y="63"/><path class="cls-4" d="M123,70H79a1,1,0,0,1-1-1V63a1,1,0,0,1,1-1h44a1,1,0,0,1,1,1v6A1,1,0,0,1,123,70ZM80,68h42V64H80Z"/><rect class="cls-6" height="21" width="6" x="102" y="3"/><path class="cls-4" d="M108,25h-6a1,1,0,0,1-1-1V3a1,1,0,0,1,1-1h6a1,1,0,0,1,1,1V24A1,1,0,0,1,108,25Zm-5-2h4V4h-4Z"/><rect class="cls-7" height="12" width="15" x="82" y="12"/><path class="cls-4" d="M97,25H82a1,1,0,0,1-1-1V12a1,1,0,0,1,1-1H97a1,1,0,0,1,1,1V24A1,1,0,0,1,97,25ZM83,23H96V13H83Z"/><rect class="cls-7" height="5" width="17" x="81" y="7"/><path class="cls-4" d="M98,13H81a1,1,0,0,1-1-1V7a1,1,0,0,1,1-1H98a1,1,0,0,1,1,1v5A1,1,0,0,1,98,13ZM82,11H97V8H82Z"/><rect class="cls-8" height="21" width="6" x="108" y="3"/><path class="cls-4" d="M114,25h-6a1,1,0,0,1-1-1V3a1,1,0,0,1,1-1h6a1,1,0,0,1,1,1V24A1,1,0,0,1,114,25Zm-5-2h4V4h-4Z"/><rect class="cls-6" height="21" width="6" x="97" y="42"/><path class="cls-4" d="M103,64H97a1,1,0,0,1-1-1V42a1,1,0,0,1,1-1h6a1,1,0,0,1,1,1V63A1,1,0,0,1,103,64Zm-5-2h4V43H98Z"/><rect class="cls-8" height="21" width="6" x="91" y="42"/><path class="cls-4" d="M97,64H91a1,1,0,0,1-1-1V42a1,1,0,0,1,1-1h6a1,1,0,0,1,1,1V63A1,1,0,0,1,97,64Zm-5-2h4V43H92Z"/><rect class="cls-9" height="21" width="6" x="114" y="3"/><path class="cls-4" d="M120,25h-6a1,1,0,0,1-1-1V3a1,1,0,0,1,1-1h6a1,1,0,0,1,1,1V24A1,1,0,0,1,120,25Zm-5-2h4V4h-4Z"/><rect class="cls-5" height="6" width="44" x="79" y="24"/><path class="cls-4" d="M123,31H79a1,1,0,0,1-1-1V24a1,1,0,0,1,1-1h44a1,1,0,0,1,1,1v6A1,1,0,0,1,123,31ZM80,29h42V25H80Z"/><path class="cls-4" d="M92,17H87a1,1,0,1,1,0-2h5a1,1,0,0,1,0,2Z"/><circle class="cls-5" cx="53.98" cy="31.26" r="7" transform="translate(-6.3 47.33) rotate(-45)"/><path class="cls-4" d="M54,39.26a8,8,0,1,1,5.66-2.34h0A8,8,0,0,1,54,39.26Zm0-14A6,6,0,1,0,58.22,27,6,6,0,0,0,54,25.27Zm5,10.95h0Z"/><path class="cls-10" d="M60.23,16h-8.5L44.58,8.85a9.2,9.2,0,0,0-12.51-.63,9,9,0,0,0-.44,13.14L39,28.73v8.5A6.8,6.8,0,0,0,41,42l1.54,1.54,24-24L65,18A6.8,6.8,0,0,0,60.23,16Z"/><g class="cls-1"><path class="cls-11" d="M43,24.73l-7.36-7.36a9,9,0,0,1-2-9.69,8.62,8.62,0,0,0-1.34.66,9,9,0,0,0,1.33,11L41,26.73l2-2Z"/></g><g class="cls-1"><path class="cls-11" d="M43,24.73l-2,2,1,7.5A6.8,6.8,0,0,0,44,39l1.54,1.54,3-3C45,36.38,43.38,31.74,43,24.73Z"/></g><path class="cls-4" d="M42.54,44.58a1,1,0,0,1-.71-.29l-1.54-1.54A7.75,7.75,0,0,1,38,37.23V29.14l-7.07-7.07A10,10,0,0,1,28,14.67a9.92,9.92,0,0,1,3.41-7.2,10.18,10.18,0,0,1,13.88.67L52.14,15h8.08a7.75,7.75,0,0,1,5.51,2.28l1.54,1.54a1,1,0,0,1,0,1.41l-24,24A1,1,0,0,1,42.54,44.58ZM37.9,7.06A7.78,7.78,0,0,0,32.73,9a8,8,0,0,0-.39,11.68L39.71,28a1,1,0,0,1,.29.71v8.5a5.76,5.76,0,0,0,1.7,4.1l.84.84L65.16,19.54l-.84-.84a5.76,5.76,0,0,0-4.1-1.7h-8.5a1,1,0,0,1-.71-.29L43.88,9.56A8.47,8.47,0,0,0,37.9,7.06Z"/><path class="cls-4" d="M49.5,19.5a1,1,0,0,1-.71-1.71l2.5-2.5a1,1,0,0,1,1.41,1.41l-2.5,2.5A1,1,0,0,1,49.5,19.5Z"/><path class="cls-4" d="M39,30a1,1,0,0,1-.71-1.71l6.5-6.5a1,1,0,0,1,1.41,1.41l-6.5,6.5A1,1,0,0,1,39,30Z"/><path class="cls-4" d="M29,28a1,1,0,0,1-.71-1.71l4-4a1,1,0,0,1,1.41,1.41l-4,4A1,1,0,0,1,29,28Z"/><polygon class="cls-12" points="8.69 55.53 21 83 17 85 4.41 57.12 8.69 55.53"/><path class="cls-4" d="M17,86a1,1,0,0,1-.91-.59L3.5,57.53a1,1,0,0,1,.57-1.35L8.34,54.6a1,1,0,0,1,1.26.53L21.91,82.59a1,1,0,0,1-.47,1.3l-4,2A1,1,0,0,1,17,86ZM5.76,57.68l11.72,26,2.21-1.11L8.16,56.8Z"/><path class="cls-12" d="M35,94H3V92a2,2,0,0,1,2-2H33a2,2,0,0,1,2,2Z"/><path class="cls-4" d="M35,95H3a1,1,0,0,1-1-1V92a3,3,0,0,1,3-3H33a3,3,0,0,1,3,3v2A1,1,0,0,1,35,95ZM4,93H34V92a1,1,0,0,0-1-1H5a1,1,0,0,0-1,1Z"/><path class="cls-13" d="M28,90H8a8,8,0,0,1,8-8h6a8,8,0,0,1,8,8Z"/><path class="cls-14" d="M16,85h6a8,8,0,0,1,7.41,5H30a8,8,0,0,0-8-8H16a8,8,0,0,0-8,8h.59A8,8,0,0,1,16,85Z"/><path class="cls-4" d="M28,91H8a1,1,0,0,1-1-1,9,9,0,0,1,9-9h6a9,9,0,0,1,9,9,1,1,0,0,1-1,1ZM9.06,89H28.92A7,7,0,0,0,22,83H16A7,7,0,0,0,9.06,89Z"/><polygon class="cls-12" points="26.01 32.23 9.03 55.53 5.28 54.79 24.39 30.97 26.01 32.23"/><path class="cls-4" d="M9,56.53l-.19,0-3.75-.74a1,1,0,0,1-.59-1.61L23.61,30.34A1,1,0,0,1,25,30.18l1.62,1.26a1,1,0,0,1,.19,1.38l-17,23.31A1,1,0,0,1,9,56.53Zm-1.94-2.4,1.5.3,16-22-.08-.06Z"/><circle class="cls-13" cx="7" cy="57" r="4"/><path class="cls-4" d="M7,62a5,5,0,1,1,5-5A5,5,0,0,1,7,62Zm0-8a3,3,0,1,0,3,3A3,3,0,0,0,7,54Z"/><path class="cls-4" d="M22.87,28.25A1,1,0,0,1,22.2,28l-3.73-3.4a1,1,0,0,1,1.35-1.48l3.73,3.4a1,1,0,0,1-.67,1.74Z"/><path class="cls-4" d="M19,88a1,1,0,0,1-1-1V86a1,1,0,0,1,2,0v1A1,1,0,0,1,19,88Z"/><circle class="cls-13" cx="26" cy="30" r="4"/><path class="cls-4" d="M26,35a5,5,0,1,1,5-5A5,5,0,0,1,26,35Zm0-8a3,3,0,1,0,3,3A3,3,0,0,0,26,27Z"/><path class="cls-4" d="M61,126H1a1,1,0,0,1,0-2H61a1,1,0,0,1,0,2Z"/><path class="cls-4" d="M127,126H82a1,1,0,0,1,0-2h45a1,1,0,0,1,0,2Z"/><path class="cls-4" d="M113,118H21a1,1,0,1,1,0-2h92a1,1,0,0,1,0,2Z"/><g class="cls-15"><path class="cls-4" d="M114,8h-6a1,1,0,0,1,0-2h6a1,1,0,0,1,0,2Z"/><path class="cls-4" d="M114,21h-6a1,1,0,0,1,0-2h6a1,1,0,0,1,0,2Z"/></g><g class="cls-15"><path class="cls-4" d="M120,8h-6a1,1,0,0,1,0-2h6a1,1,0,0,1,0,2Z"/><path class="cls-4" d="M120,21h-6a1,1,0,0,1,0-2h6a1,1,0,0,1,0,2Z"/></g><g class="cls-15"><path class="cls-4" d="M108,8h-6a1,1,0,0,1,0-2h6a1,1,0,0,1,0,2Z"/><path class="cls-4" d="M108,21h-6a1,1,0,0,1,0-2h6a1,1,0,0,1,0,2Z"/></g><g class="cls-15"><path class="cls-4" d="M97,47H91a1,1,0,0,1,0-2h6a1,1,0,0,1,0,2Z"/><path class="cls-4" d="M97,60H91a1,1,0,0,1,0-2h6a1,1,0,0,1,0,2Z"/></g><g class="cls-15"><path class="cls-4" d="M103,47H97a1,1,0,0,1,0-2h6a1,1,0,0,1,0,2Z"/><path class="cls-4" d="M103,60H97a1,1,0,0,1,0-2h6a1,1,0,0,1,0,2Z"/></g><g class="cls-15"><path class="cls-4" d="M91,47H85a1,1,0,0,1,0-2h6a1,1,0,0,1,0,2Z"/><path class="cls-4" d="M91,60H85a1,1,0,0,1,0-2h6a1,1,0,0,1,0,2Z"/></g><path class="cls-16" d="M121.73,51A26.56,26.56,0,0,0,123,42.73c0-5.3-2.91-8.74-6.5-8.74s-6.5,3.5-6.5,8.74A26.56,26.56,0,0,0,111.27,51Z"/><g class="cls-15"><path class="cls-14" d="M118.51,34.38a5.43,5.43,0,0,0-2-.39c-3.59,0-6.5,3.5-6.5,8.74A26.56,26.56,0,0,0,111.27,51h4A26.56,26.56,0,0,1,114,42.73C114,38.51,115.89,35.42,118.51,34.38Z"/></g><path class="cls-4" d="M121.73,52H111.27a1,1,0,0,1-.95-.68A27.42,27.42,0,0,1,109,42.73c0-5.64,3.15-9.74,7.5-9.74s7.5,4.09,7.5,9.74a27.42,27.42,0,0,1-1.32,8.59A1,1,0,0,1,121.73,52ZM112,50h9a26,26,0,0,0,1-7.26c0-4.48-2.31-7.74-5.5-7.74s-5.5,3.25-5.5,7.74A26,26,0,0,0,112,50Z"/><path class="cls-4" d="M111.5,39.5a1,1,0,0,1-.55-.17l-1.5-1a1,1,0,0,1,1.11-1.66l1.5,1a1,1,0,0,1-.56,1.83Z"/><path class="cls-4" d="M114.25,36.31a1,1,0,0,1-.73-.31l-1.24-1.31a1,1,0,1,1,1.45-1.37L115,34.62a1,1,0,0,1-.73,1.69Z"/><path class="cls-4" d="M118.75,36.31a1,1,0,0,1-.68-1.73l1.32-1.22a1,1,0,0,1,1.36,1.47L119.43,36A1,1,0,0,1,118.75,36.31Z"/><path class="cls-4" d="M110.5,45a1,1,0,0,1-.32-.05l-1.5-.5a1,1,0,0,1,.63-1.9l1.5.5A1,1,0,0,1,110.5,45Z"/><path class="cls-4" d="M110,50a1,1,0,0,1-.32-1.95l1.5-.5a1,1,0,0,1,.63,1.9l-1.5.5A1,1,0,0,1,110,50Z"/><path class="cls-4" d="M122,41a1,1,0,0,1-.56-1.83l1.5-1a1,1,0,1,1,1.11,1.66l-1.5,1A1,1,0,0,1,122,41Z"/><path class="cls-4" d="M123.5,44h-1a1,1,0,0,1,0-2h1a1,1,0,0,1,0,2Z"/><path class="cls-4" d="M114.5,47.5a1,1,0,0,1-.71-.29l-.5-.5a1,1,0,0,1,1.42-1.41l.5.5a1,1,0,0,1-.71,1.71Z"/><path class="cls-4" d="M114.5,41.5a1,1,0,0,1-.71-.29l-.5-.5a1,1,0,0,1,1.42-1.41l.5.5a1,1,0,0,1-.71,1.71Z"/><path class="cls-4" d="M118.5,44.5a1,1,0,0,1-.71-1.71l.5-.5a1,1,0,0,1,1.41,1.41l-.5.5A1,1,0,0,1,118.5,44.5Z"/><path class="cls-4" d="M118.5,39.5a1,1,0,0,1-.71-1.71l.5-.5a1,1,0,0,1,1.41,1.41l-.5.5A1,1,0,0,1,118.5,39.5Z"/><path class="cls-4" d="M118.5,49.5a1,1,0,0,1-.71-1.71l.5-.5a1,1,0,0,1,1.41,1.41l-.5.5A1,1,0,0,1,118.5,49.5Z"/><path class="cls-4" d="M123.5,48.5a1,1,0,0,1-.32-.05l-1.5-.5a1,1,0,0,1,.63-1.9l1.5.5a1,1,0,0,1-.32,1.95Z"/><polygon class="cls-17" points="122.5 63 110.5 63 109 54 124 54 122.5 63"/><g class="cls-15"><polygon class="cls-18" points="115 63 113 63 112 54 114 54 115 63"/></g><g class="cls-1"><polygon class="cls-19" points="123.5 57 124 54 109 54 109.5 57 123.5 57"/></g><path class="cls-4" d="M122.5,64h-12a1,1,0,0,1-1-.84l-1.5-9A1,1,0,0,1,109,53h15a1,1,0,0,1,1,1.16l-1.5,9A1,1,0,0,1,122.5,64Zm-11.15-2h10.31l1.17-7H110.18Z"/><rect class="cls-7" height="3" width="17" x="108" y="51"/><g class="cls-15"><rect class="cls-14" height="3" width="2" x="111" y="51"/></g><path class="cls-4" d="M125,55H108a1,1,0,0,1-1-1V51a1,1,0,0,1,1-1h17a1,1,0,0,1,1,1v3A1,1,0,0,1,125,55Zm-16-2h15V52H109Z"/></g><polygon class="cls-12" points="79 117 61 117 61 115 61 103 79 103 79 115 79 117"/><path class="cls-4" d="M79,118H61a1,1,0,0,1-1-1V103a1,1,0,0,1,1-1H79a1,1,0,0,1,1,1v14A1,1,0,0,1,79,118Zm-17-2H78V104H62Z"/><g class="cls-1"><rect class="cls-20" height="4" width="16" x="62" y="103"/></g><path class="cls-4" d="M82,118H58a1,1,0,0,1,0-2H82a1,1,0,0,1,0,2Z"/><path class="cls-6" d="M31,47h78a2,2,0,0,1,2,2V93a0,0,0,0,1,0,0H29a0,0,0,0,1,0,0V49A2,2,0,0,1,31,47Z"/><polygon class="cls-21" points="110 52 30 88 30 48 110 48 110 52"/><g class="cls-1"><path class="cls-22" d="M109,47H31a2,2,0,0,0-2,2v4a2,2,0,0,1,2-2h78a2,2,0,0,1,2,2V49A2,2,0,0,0,109,47Z"/></g><path class="cls-4" d="M111,94H29a1,1,0,0,1-1-1V49a3,3,0,0,1,3-3h78a3,3,0,0,1,3,3V93A1,1,0,0,1,111,94ZM30,92h80V49a1,1,0,0,0-1-1H31a1,1,0,0,0-1,1Z"/><polygon class="cls-21" points="110 58 30 94 30 91 110 55 110 58"/><path class="cls-13" d="M29,93h82a0,0,0,0,1,0,0v6a4,4,0,0,1-4,4H33a4,4,0,0,1-4-4V93A0,0,0,0,1,29,93Z"/><path class="cls-4" d="M107,104H33a5,5,0,0,1-5-5V93a1,1,0,0,1,1-1h82a1,1,0,0,1,1,1v6A5,5,0,0,1,107,104ZM30,94v5a3,3,0,0,0,3,3h74a3,3,0,0,0,3-3V94Z"/><rect class="cls-23" height="37" rx="1" ry="1" width="48" x="7" y="88"/><path class="cls-2" d="M8,88H54a1,1,0,0,1,1,1v33a0,0,0,0,1,0,0H7a0,0,0,0,1,0,0V89A1,1,0,0,1,8,88Z"/><path class="cls-21" d="M54.66,88.26A1,1,0,0,0,54,88H8a1,1,0,0,0-1,1v21.9Z"/><polygon class="cls-21" points="55 93.1 55 90.1 7 112.9 7 115.9 55 93.1"/><g class="cls-1"><path class="cls-22" d="M54,88H8a1,1,0,0,0-1,1v3a1,1,0,0,1,1-1H54a1,1,0,0,1,1,1V89A1,1,0,0,0,54,88Z"/></g><path class="cls-4" d="M54,126H8a2,2,0,0,1-2-2V89a2,2,0,0,1,2-2H54a2,2,0,0,1,2,2v35A2,2,0,0,1,54,126ZM8,89v35H54V89Z"/><path class="cls-13" d="M58,120H39l-1,1H24l-1-1H3v3a2,2,0,0,0,2,2H56a2,2,0,0,0,2-2Z"/><path class="cls-4" d="M56,126H5a3,3,0,0,1-3-3v-3a1,1,0,0,1,1-1H23a1,1,0,0,1,.71.29l.71.71H37.59l.71-.71A1,1,0,0,1,39,119H58a1,1,0,0,1,1,1v3A3,3,0,0,1,56,126ZM4,121v2a1,1,0,0,0,1,1H56a1,1,0,0,0,1-1v-2H39.41l-.71.71A1,1,0,0,1,38,122H24a1,1,0,0,1-.71-.29l-.71-.71Z"/><rect class="cls-13" height="44" rx="2" ry="2" width="30" x="85" y="81"/><path class="cls-4" d="M113,126H87a3,3,0,0,1-3-3V83a3,3,0,0,1,3-3h26a3,3,0,0,1,3,3v40A3,3,0,0,1,113,126ZM87,82a1,1,0,0,0-1,1v40a1,1,0,0,0,1,1h26a1,1,0,0,0,1-1V83a1,1,0,0,0-1-1Z"/><rect class="cls-2" height="32" width="30" x="85" y="85"/><polygon class="cls-21" points="115 89.22 85 107 85 85 115 85 115 89.22"/><polygon class="cls-21" points="115 93.22 85 111 85 109 115 91.22 115 93.22"/><path class="cls-4" d="M100,122.5a1.35,1.35,0,0,1-.29,0l-.28-.08-.26-.14a1.56,1.56,0,0,1-.42-.42,1.26,1.26,0,0,1-.13-.26,1.31,1.31,0,0,1-.09-.28,1.43,1.43,0,0,1,0-.58,1.31,1.31,0,0,1,.09-.28,1.27,1.27,0,0,1,.13-.26,1.57,1.57,0,0,1,.42-.42,1.27,1.27,0,0,1,.26-.13,1.31,1.31,0,0,1,.28-.09,1.42,1.42,0,0,1,.58,0,1.31,1.31,0,0,1,.28.09,1.26,1.26,0,0,1,.26.13,1.44,1.44,0,0,1,.23.19,2.11,2.11,0,0,1,.19.23,2.19,2.19,0,0,1,.14.26,2.26,2.26,0,0,1,.08.28,1.4,1.4,0,0,1,0,.58,2.25,2.25,0,0,1-.08.28,1.52,1.52,0,0,1-.33.49,1.47,1.47,0,0,1-.23.19l-.26.14-.28.08A1.36,1.36,0,0,1,100,122.5Z"/><g class="cls-1"><rect class="cls-22" height="3" width="30" x="85" y="85"/></g><path class="cls-4" d="M115,118H85a1,1,0,0,1-1-1V85a1,1,0,0,1,1-1h30a1,1,0,0,1,1,1v32A1,1,0,0,1,115,118Zm-29-2h28V86H86Z"/><rect class="cls-13" height="34" rx="2" ry="2" width="18" x="107" y="91"/><path class="cls-4" d="M123,126H109a3,3,0,0,1-3-3V93a3,3,0,0,1,3-3h14a3,3,0,0,1,3,3v30A3,3,0,0,1,123,126ZM109,92a1,1,0,0,0-1,1v30a1,1,0,0,0,1,1h14a1,1,0,0,0,1-1V93a1,1,0,0,0-1-1Z"/><rect class="cls-24" height="22" width="18" x="107" y="95"/><path class="cls-4" d="M125,118H107a1,1,0,0,1-1-1V95a1,1,0,0,1,1-1h18a1,1,0,0,1,1,1v22A1,1,0,0,1,125,118Zm-17-2h16V96H108Z"/><polygon class="cls-21" points="107 109 125 98.33 125 95 107 95 107 109"/><polygon class="cls-21" points="107 113 125 102.33 125 100.33 107 111 107 113"/><path class="cls-4" d="M116,122.5a1.52,1.52,0,0,1-1.06-.44,2.11,2.11,0,0,1-.19-.23,1.26,1.26,0,0,1-.13-.26,1.31,1.31,0,0,1-.09-.28,1.43,1.43,0,0,1,0-.58,1.31,1.31,0,0,1,.09-.28,1.27,1.27,0,0,1,.13-.26,2.06,2.06,0,0,1,.19-.23,1.55,1.55,0,0,1,2.12,0,1.5,1.5,0,0,1,0,2.12A1.5,1.5,0,0,1,116,122.5Z"/><g class="cls-1"><rect class="cls-22" height="3" width="18" x="107" y="95"/></g><path class="cls-4" d="M125,118H107a1,1,0,0,1-1-1V95a1,1,0,0,1,1-1h18a1,1,0,0,1,1,1v22A1,1,0,0,1,125,118Zm-17-2h16V96H108Z"/></svg>