<?xml version="1.0" ?><svg viewBox="0 0 24 24" xmlns="http://www.w3.org/2000/svg" xmlns:xlink="http://www.w3.org/1999/xlink"><defs><linearGradient gradientUnits="userSpaceOnUse" id="a" x1="-0.82515" x2="23.53979" y1="4.30318" y2="15.66473"><stop offset="0" stop-color="#fff" stop-opacity="0.2"/><stop offset="1" stop-color="#fff" stop-opacity="0"/></linearGradient></defs><title/><path d="M12,24a.49592.49592,0,0,1-.14111-.02051l-8.5-2.5a.49862.49862,0,0,1-.35645-.43066l-2-20.50049A.50017.50017,0,0,1,1.5,0h21a.50017.50017,0,0,1,.49756.54834l-2,20.50049a.49862.49862,0,0,1-.35645.43066l-8.5,2.5A.49592.49592,0,0,1,12,24Z"/><polygon fill="#f57c00" points="3.965 20.615 12 22.979 20.035 20.615 21.949 1 2.051 1 3.965 20.615"/><polygon fill="#fff" opacity="0.2" points="11.934 22.959 12 22.979 20.035 20.615 21.949 1 11.934 1 11.934 22.959"/><path d="M12,19.83008a.49592.49592,0,0,1-.14111-.02051L7.07764,18.40332a.49864.49864,0,0,1-.35645-.43066l-.38281-3.92383A.50024.50024,0,0,1,6.83594,13.5H9.8501a.49985.49985,0,0,1,.49756.45117l.125,1.28125L12,15.68164l1.52734-.44922L13.74512,13H6.68945a.49989.49989,0,0,1-.49756-.45166l-.78027-8A.50017.50017,0,0,1,5.90918,4H18.09082a.50017.50017,0,0,1,.49756.54834l-.29248,3A.49988.49988,0,0,1,17.79834,8H9.76709l.14648,1.5H17.5542a.50017.50017,0,0,1,.49756.54834l-.773,7.92432a.49864.49864,0,0,1-.35645.43066l-4.78125,1.40625A.49592.49592,0,0,1,12,19.83008Z"/><path d="M7.68359,17.53906,12,18.80859l4.31641-1.26953L17.00293,10.5H9.46a.49984.49984,0,0,1-.49756-.45117l-.24414-2.5A.50024.50024,0,0,1,9.21582,7h8.12891l.19482-2H6.46045l.68262,7h7.15332a.50019.50019,0,0,1,.49756.54834l-.3042,3.11768a.49865.49865,0,0,1-.35645.43066l-1.99219.58594a.49579.49579,0,0,1-.28222,0L9.8667,16.09668a.49865.49865,0,0,1-.35645-.43066L9.39648,14.5H7.38721Z" fill="#fff"/><path d="M12,24a.49592.49592,0,0,1-.14111-.02051l-8.5-2.5a.49862.49862,0,0,1-.35645-.43066l-2-20.50049A.50017.50017,0,0,1,1.5,0h21a.50017.50017,0,0,1,.49756.54834l-2,20.50049a.49862.49862,0,0,1-.35645.43066l-8.5,2.5A.49592.49592,0,0,1,12,24Z" fill="url(#a)"/></svg>