<?xml version="1.0" ?><svg viewBox="0 0 24 24" xmlns="http://www.w3.org/2000/svg" xmlns:xlink="http://www.w3.org/1999/xlink"><defs><linearGradient gradientUnits="userSpaceOnUse" id="a" x1="-1.0997" x2="25.0997" y1="5.89151" y2="18.10849"><stop offset="0" stop-color="#fff" stop-opacity="0.2"/><stop offset="1" stop-color="#fff" stop-opacity="0"/></linearGradient></defs><title/><rect height="22" rx="0.5" width="22" x="1" y="1"/><rect fill="#ffd54f" height="20" width="20" x="2" y="2"/><path d="M10.25,20a1.81574,1.81574,0,0,1-1.73486-1.37891.49975.49975,0,1,1,.96972-.24218A.82213.82213,0,0,0,10.25,19a.80275.80275,0,0,0,.75-.5752V12.5a.5.5,0,0,1,1,0v6a.47816.47816,0,0,1-.01514.12109A1.81574,1.81574,0,0,1,10.25,20Z"/><path d="M16.5,20a2.51053,2.51053,0,0,1-2.34814-1.47461.50024.50024,0,0,1,.92675-.377A1.50378,1.50378,0,0,0,16.5,19,1.39366,1.39366,0,0,0,18,17.75a1.39366,1.39366,0,0,0-1.5-1.25h-.15381a2.252,2.252,0,1,1,0-4.5,2.3487,2.3487,0,0,1,2.09668,1.23926.50015.50015,0,0,1-.88574.46484A1.35,1.35,0,0,0,16.34619,13a1.25344,1.25344,0,1,0,0,2.5H16.5A2.388,2.388,0,0,1,19,17.75,2.388,2.388,0,0,1,16.5,20Z"/><rect fill="url(#a)" height="22" rx="0.5" width="22" x="1" y="1"/></svg>