<?xml version="1.0" ?><svg viewBox="0 0 24 24" xmlns="http://www.w3.org/2000/svg" xmlns:xlink="http://www.w3.org/1999/xlink"><defs><linearGradient gradientUnits="userSpaceOnUse" id="a" x1="1.44526" x2="22.55474" y1="7.07825" y2="16.92176"><stop offset="0" stop-color="#fff" stop-opacity="0.2"/><stop offset="1" stop-color="#fff" stop-opacity="0"/></linearGradient></defs><title/><path d="M12,24a.50152.50152,0,0,1-.251-.06738l-9.5-5.5A.49868.49868,0,0,1,2,18V6a.49868.49868,0,0,1,.249-.43262l9.5-5.5a.50112.50112,0,0,1,.502,0l9.5,5.5A.49868.49868,0,0,1,22,6V18a.49868.49868,0,0,1-.249.43262l-9.5,5.5A.50152.50152,0,0,1,12,24ZM3,17.71191l9,5.21,9-5.21V6.28809l-9-5.21-9,5.21Z"/><path d="M12,18a.49842.49842,0,0,1-.35352-.14648l-6.5-6.5a.49983.49983,0,0,1,0-.707l2.5-2.5A.49965.49965,0,0,1,8,8h8a.49965.49965,0,0,1,.35352.14648l2.5,2.5a.49983.49983,0,0,1,0,.707l-6.5,6.5A.49842.49842,0,0,1,12,18Z"/><polygon fill="#f44336" points="6.207 11 12 16.793 17.793 11 15.793 9 8.207 9 6.207 11"/><path d="M12,24a.50152.50152,0,0,1-.251-.06738l-9.5-5.5A.49868.49868,0,0,1,2,18V6a.49868.49868,0,0,1,.249-.43262l9.5-5.5a.50112.50112,0,0,1,.502,0l9.5,5.5A.49868.49868,0,0,1,22,6V18a.49868.49868,0,0,1-.249.43262l-9.5,5.5A.50152.50152,0,0,1,12,24ZM3,17.71191l9,5.21,9-5.21V6.28809l-9-5.21-9,5.21Z" fill="url(#a)"/><path d="M12,18a.49842.49842,0,0,1-.35352-.14648l-6.5-6.5a.49983.49983,0,0,1,0-.707l2.5-2.5A.49965.49965,0,0,1,8,8h8a.49965.49965,0,0,1,.35352.14648l2.5,2.5a.49983.49983,0,0,1,0,.707l-6.5,6.5A.49842.49842,0,0,1,12,18Z" fill="url(#a)"/></svg>