<?xml version="1.0" ?><svg data-name="011" id="_011" viewBox="0 0 128 128" xmlns="http://www.w3.org/2000/svg"><defs><style>.cls-1,.cls-15,.cls-17,.cls-7{opacity:0.3;}.cls-2{fill:#c7bff3;}.cls-3{fill:#6d6daa;}.cls-4{fill:#b1f1a8;}.cls-5,.cls-8{fill:#c9c1f5;}.cls-5,.cls-6,.cls-7{fill-rule:evenodd;}.cls-24,.cls-6,.cls-9{fill:#fff;}.cls-23,.cls-27,.cls-6,.cls-9{opacity:0.5;}.cls-7{fill:#554dad;}.cls-10{fill:#919dc4;}.cls-11,.cls-27{fill:#6d6da8;}.cls-12{fill:#ccd6ec;}.cls-13{fill:#def1ff;}.cls-14{fill:#c5e7ff;}.cls-15{fill:#0070b6;}.cls-16{fill:#ecf4ff;}.cls-17{fill:#768ea6;}.cls-18{fill:#eef6ff;}.cls-19{fill:#ced8ee;}.cls-20,.cls-22{fill:#2c4b75;}.cls-20,.cls-21{opacity:0.2;}.cls-25{fill:#94d5ff;}.cls-26{fill:#95bfff;}.cls-28{fill:#ff9595;}.cls-29{fill:#ffc461;}.cls-30{fill:#afefa6;}.cls-31{fill:#d2ebff;}.cls-32{fill:#ff9797;}</style></defs><title/><g class="cls-1"><path class="cls-2" d="M102.31,37.6A38.77,38.77,0,1,0,25.54,48.51a20.5,20.5,0,0,1-9.76,20.42,30.58,30.58,0,1,0,37.51,47.78c6.07-6,15.41-7.5,22.64-2.94a33.56,33.56,0,0,0,38.83-54.61A33.49,33.49,0,0,1,102.31,37.6Z"/><path class="cls-3" d="M127,116H8a1,1,0,0,1,0-2H127a1,1,0,0,1,0,2Z"/><path class="cls-3" d="M43,116H39a1,1,0,0,1,0-2h4a1,1,0,0,1,0,2Z"/><path class="cls-3" d="M5,116H4a1,1,0,0,1,0-2H5a1,1,0,0,1,0,2Z"/><path class="cls-4" d="M34.7,55.72C27.32,69,27,85.89,27.25,103.1l-10.42.69C16.43,75.69,23.64,59.81,34.7,55.72Z"/><path class="cls-3" d="M16.83,104.79a1,1,0,0,1-1-1c-.51-36.5,11.39-46.38,18.52-49a1,1,0,0,1,1.11.29,1,1,0,0,1,.11,1.13c-7.21,13-7.58,29.57-7.32,46.89a1,1,0,0,1-.94,1l-10.42.68Zm15.63-46.9c-9.53,5.63-14.81,21.67-14.64,44.83l8.41-.55C26,86.06,26.44,70.57,32.46,57.89Z"/><path class="cls-4" d="M10.4,63.49c8.24,12.75,9.67,29.6,10.55,46.79H31.39C29.93,82.22,21.7,66.85,10.4,63.49Z"/><path class="cls-3" d="M31.39,111.28H21a1,1,0,0,1-1-1C19.06,93,17.61,76.49,9.56,64a1,1,0,0,1,0-1.14,1,1,0,0,1,1.08-.36c7.3,2.17,19.82,11.25,21.7,47.7a1,1,0,0,1-.27.74A1,1,0,0,1,31.39,111.28Zm-9.49-2h8.43C29,86.17,22.65,70.51,12.78,65.51,19.61,77.77,21.05,93.19,21.9,109.28Z"/><path class="cls-4" d="M39,70.42c-6.09,6.19-9.07,19.45-9,25.31l-11.74-.3C21.75,81.13,31.31,70.86,39,70.42Z"/><path class="cls-3" d="M29.94,96.73h0l-11.74-.3a1,1,0,0,1-.77-.4,1,1,0,0,1-.17-.84C21.1,79.62,31.3,69.86,38.93,69.42a1,1,0,0,1,1,.59,1,1,0,0,1-.19,1.11c-5.88,6-8.78,19-8.76,24.6a1,1,0,0,1-1,1ZM19.49,94.46,29,94.7c.26-5.41,2.53-16,7.4-22.71C30.18,74.19,22.8,82.46,19.49,94.46Z"/><path class="cls-4" d="M43.71,85.39c-7.35,4.31-9.64,9.22-8.36,17.15L23.5,108C24.59,91.94,33.8,84.17,43.71,85.39Z"/><path class="cls-3" d="M23.5,109a1,1,0,0,1-.57-.18,1,1,0,0,1-.43-.89c.59-8.7,3.65-15.74,8.6-19.83A16.39,16.39,0,0,1,43.83,84.4a1,1,0,0,1,.86.79,1,1,0,0,1-.47,1.06c-6.89,4-9.1,8.57-7.89,16.13a1,1,0,0,1-.56,1.07l-11.85,5.48A1,1,0,0,1,23.5,109Zm17-22.71a14.43,14.43,0,0,0-8.12,3.35c-4.2,3.47-6.92,9.37-7.72,16.73l9.6-4.44C33.31,95,35.16,90.28,40.49,86.31Z"/><path class="cls-4" d="M3.53,81.3c8.05,2.8,11.24,7.17,11.54,15.2l12.68,3.08C23.56,84,13,78.18,3.53,81.3Z"/><path class="cls-3" d="M27.75,100.58a1,1,0,0,1-.24,0L14.83,97.47a1,1,0,0,1-.76-.93c-.28-7.66-3.33-11.67-10.87-14.3a1,1,0,0,1-.67-.95,1,1,0,0,1,.69-.94,16.36,16.36,0,0,1,13.21,1.18c5.66,3,10,9.37,12.28,17.79a1,1,0,0,1-.25,1A1,1,0,0,1,27.75,100.58ZM16,95.71,26.31,98.2c-2.22-7.06-6-12.32-10.83-14.91a14.39,14.39,0,0,0-8.61-1.71C12.87,84.44,15.6,88.73,16,95.71Z"/><path class="cls-4" d="M8,73.81C15,79,19.6,90,20.49,95.74l10.69-.48C28.82,81.25,15.69,73.05,8,73.81Z"/><path class="cls-3" d="M20.49,96.74a1,1,0,0,1-1-.85c-.86-5.62-5.29-16.27-12-21.27a1,1,0,0,1-.37-1.07,1,1,0,0,1,.86-.73c8-.8,21.76,7.67,24.23,22.27a1.05,1.05,0,0,1-.21.8,1,1,0,0,1-.73.37l-10.69.48ZM10.85,74.89c5.64,5.48,9.4,14.36,10.47,19.81L30,94.31C27.55,83,17.94,75.94,10.85,74.89Z"/><path class="cls-4" d="M41.85,80.54C33.94,83.72,31,88.23,31,96.27L18.51,99.94C22,84.19,32.23,77.88,41.85,80.54Z"/><path class="cls-3" d="M18.51,100.94a1,1,0,0,1-1-1.22c1.87-8.51,5.93-15,11.44-18.34a16.4,16.4,0,0,1,13.14-1.8,1,1,0,0,1,.73.91,1,1,0,0,1-.62,1C34.81,84.45,32,88.6,32,96.26a1,1,0,0,1-.72,1L18.79,100.9A1.35,1.35,0,0,1,18.51,100.94Zm19-20A14.52,14.52,0,0,0,30,83.09c-4.67,2.82-8.23,8.25-10.11,15.4l10.15-3c.09-7,2.63-11.4,8.48-14.54C38.2,81,37.87,81,37.54,81Z"/><path class="cls-4" d="M2.11,88.05c11.06,3.12,12.05,8,10,16.26l12.32,4.3C22.74,91.83,13.89,84,2.11,88.05Z"/><path class="cls-3" d="M24.42,109.61a1.26,1.26,0,0,1-.33,0l-12.32-4.31a1,1,0,0,1-.64-1.18c2-7.87,1.07-12.13-9.29-15.06a1,1,0,0,1-.73-.93,1,1,0,0,1,.68-1c5.19-1.77,10-1.38,13.93,1.14,5.36,3.44,8.71,10.45,9.7,20.27a1,1,0,0,1-1,1.1Zm-11.14-6,10,3.48c-1.09-8.26-4.12-14.34-8.61-17.22a12.63,12.63,0,0,0-8.94-1.73C14,91.46,14.92,96.47,13.28,103.66Z"/><path class="cls-5" d="M31.85,115H14.15a2,2,0,0,1-2-1.62L10,102H36l-2.19,11.38A2,2,0,0,1,31.85,115Z"/><polygon class="cls-6" points="19 115 16 115 14 102 17 102 19 115"/><polygon class="cls-7" points="35.42 105 36 102 10 102 10.58 105 35.42 105"/><rect class="cls-8" height="8" width="30" x="8" y="94"/><rect class="cls-9" height="8" width="3" x="13" y="94"/><path class="cls-3" d="M31.85,116H14.15a3,3,0,0,1-2.94-2.43L9,102.19A1,1,0,0,1,10,101H36a1,1,0,0,1,1,1.19l-2.19,11.38A3,3,0,0,1,31.85,116ZM11.21,103l2,10.19a1,1,0,0,0,1,.81h17.7a1,1,0,0,0,1-.81l2-10.19Z"/><path class="cls-3" d="M38,103H8a1,1,0,0,1-1-1V94a1,1,0,0,1,1-1H38a1,1,0,0,1,1,1v8A1,1,0,0,1,38,103ZM9,101H37V95H9Z"/><path class="cls-10" d="M41,57h74a3,3,0,0,1,3,3v52a0,0,0,0,1,0,0H38a0,0,0,0,1,0,0V60A3,3,0,0,1,41,57Z"/><path class="cls-11" d="M118,113H38a1,1,0,0,1-1-1V60a4,4,0,0,1,4-4h74a4,4,0,0,1,4,4v52A1,1,0,0,1,118,113Zm-79-2h78V60a2,2,0,0,0-2-2H41a2,2,0,0,0-2,2Z"/><path class="cls-12" d="M66,109H90a0,0,0,0,1,0,0v1a2,2,0,0,1-2,2H68a2,2,0,0,1-2-2v-1A0,0,0,0,1,66,109Z"/><path class="cls-11" d="M88,113H68a3,3,0,0,1-3-3v-1a1,1,0,0,1,1-1H90a1,1,0,0,1,1,1v1A3,3,0,0,1,88,113Zm-21-3a1,1,0,0,0,1,1H88a1,1,0,0,0,1-1Z"/><rect class="cls-13" height="44" width="72" x="42" y="61"/><polygon class="cls-14" points="114 63.02 114 61 42 61 42 97.22 114 63.02"/><polygon class="cls-14" points="114 68.47 42 102.67 42 99.67 114 65.47 114 68.47"/><rect class="cls-15" height="4" width="72.05" x="41.95" y="61"/><path class="cls-11" d="M114,106H42a1,1,0,0,1-1-1V61a1,1,0,0,1,1-1h72a1,1,0,0,1,1,1v44A1,1,0,0,1,114,106Zm-71-2h70V62H43Z"/><path class="cls-16" d="M126,109H90v1a2,2,0,0,1-2,2H68a2,2,0,0,1-2-2v-1H30v2a4,4,0,0,0,4,4h88a4,4,0,0,0,4-4Z"/><path class="cls-17" d="M122,112H34a4,4,0,0,1-3.86-3H30v2a4,4,0,0,0,4,4h88a4,4,0,0,0,4-4v-2h-.15A4,4,0,0,1,122,112Z"/><path class="cls-11" d="M122,116H34a5,5,0,0,1-5-5v-2a1,1,0,0,1,1-1H66a1,1,0,0,1,1,1v1a1,1,0,0,0,1,1H88a1,1,0,0,0,1-1v-1a1,1,0,0,1,1-1h36a1,1,0,0,1,1,1v2A5,5,0,0,1,122,116Zm-91-6v1a3,3,0,0,0,3,3h88a3,3,0,0,0,3-3v-1H91a3,3,0,0,1-3,3H68a3,3,0,0,1-3-3Z"/><path class="cls-18" d="M90,31l-3-.08a22,22,0,0,0-1.18-3.43l2.26-1.89a1.49,1.49,0,0,0,.33-1.91l-.73-1.26a1.51,1.51,0,0,0-1.83-.64l-2.75,1.05a23.07,23.07,0,0,0-2.42-2.71l1.37-2.61a1.49,1.49,0,0,0-.42-1.89l-1.16-.88a1.5,1.5,0,0,0-1.94.1l-2.14,2a24,24,0,0,0-3.26-1.59l.26-2.93a1.5,1.5,0,0,0-1.11-1.59L71,10.35a1.51,1.51,0,0,0-1.75.84L68,13.88a23,23,0,0,0-3.63-.21l-.87-2.82a1.51,1.51,0,0,0-1.64-1l-1.45.2a1.5,1.5,0,0,0-1.29,1.45l-.08,2.95a22,22,0,0,0-3.43,1.18l-1.89-2.26A1.49,1.49,0,0,0,51.82,13l-1.26.74a1.51,1.51,0,0,0-.64,1.83l1,2.75a23.07,23.07,0,0,0-2.71,2.42l-2.61-1.37a1.48,1.48,0,0,0-1.89.42l-.88,1.16a1.5,1.5,0,0,0,.1,1.94L45,25a22.85,22.85,0,0,0-1.59,3.26L40.49,28a1.5,1.5,0,0,0-1.59,1.11l-.37,1.41a1.51,1.51,0,0,0,.84,1.75l2.69,1.2a23,23,0,0,0-.21,3.63L39,38a1.5,1.5,0,0,0-1,1.64l.2,1.45a1.5,1.5,0,0,0,1.45,1.29l2.94.08a23.15,23.15,0,0,0,1.19,3.43l-2.26,1.89a1.49,1.49,0,0,0-.34,1.91l.74,1.26a1.51,1.51,0,0,0,1.83.64l2.75-1a23.92,23.92,0,0,0,2.41,2.71l-1.37,2.61A1.49,1.49,0,0,0,48,57.74l1.16.88a1.5,1.5,0,0,0,1.94-.1l2.14-2a22.85,22.85,0,0,0,3.26,1.59L56.2,61a1.5,1.5,0,0,0,1.11,1.59l1.41.37a1.51,1.51,0,0,0,1.75-.84l1.2-2.69a22.93,22.93,0,0,0,3.62.21l.88,2.82a1.5,1.5,0,0,0,1.64,1l1.44-.2a1.5,1.5,0,0,0,1.3-1.45l.08-3a22,22,0,0,0,3.43-1.18L76,60a1.49,1.49,0,0,0,1.91.34l1.26-.74a1.51,1.51,0,0,0,.64-1.83L78.71,55a23.07,23.07,0,0,0,2.71-2.42L84,54a1.49,1.49,0,0,0,1.89-.43l.88-1.16a1.5,1.5,0,0,0-.1-1.94l-2-2.14A24,24,0,0,0,86.26,45l2.93.26a1.5,1.5,0,0,0,1.59-1.11l.37-1.41A1.51,1.51,0,0,0,90.31,41l-2.69-1.2a23,23,0,0,0,.21-3.63l2.82-.87a1.5,1.5,0,0,0,1-1.64l-.2-1.45A1.51,1.51,0,0,0,90,31ZM65.25,39.63a3,3,0,1,1,2.56-3.38A3,3,0,0,1,65.25,39.63Z"/><path class="cls-19" d="M90,31l-3-.08a22,22,0,0,0-1.18-3.43l2.26-1.89a1.49,1.49,0,0,0,.33-1.91l-.73-1.26a1.51,1.51,0,0,0-1.83-.64l-2.75,1.05a23.07,23.07,0,0,0-2.42-2.71l1.37-2.61a1.49,1.49,0,0,0-.42-1.89l-1.16-.88a1.5,1.5,0,0,0-1.94.1l-2.14,2a24,24,0,0,0-3.26-1.59l.26-2.93a1.5,1.5,0,0,0-1.11-1.59L71,10.35a1.51,1.51,0,0,0-1.75.84L68,13.88a23,23,0,0,0-3.63-.21l-.87-2.82a1.51,1.51,0,0,0-1.64-1l-1.45.2a1.5,1.5,0,0,0-1.29,1.45l-.08,2.95a22,22,0,0,0-3.43,1.18l-1.89-2.26A1.49,1.49,0,0,0,51.82,13l-1.26.74a1.51,1.51,0,0,0-.64,1.83l1,2.75a23.07,23.07,0,0,0-2.71,2.42l-2.61-1.37a1.48,1.48,0,0,0-1.89.42l-.88,1.16a1.5,1.5,0,0,0,.1,1.94L45,25a22.85,22.85,0,0,0-1.59,3.26L40.49,28a1.5,1.5,0,0,0-1.59,1.11l-.37,1.41a1.51,1.51,0,0,0,.84,1.75l2.69,1.2a23,23,0,0,0-.21,3.63L39,38a1.5,1.5,0,0,0-1,1.64l.2,1.45a1.5,1.5,0,0,0,1.45,1.29l2.94.08a23.15,23.15,0,0,0,1.19,3.43l-2.26,1.89a1.49,1.49,0,0,0-.34,1.91l.74,1.26a1.51,1.51,0,0,0,1.83.64l2.75-1a23.92,23.92,0,0,0,2.41,2.71l-1.37,2.61A1.49,1.49,0,0,0,48,57.74l1.16.88a1.5,1.5,0,0,0,1.94-.1l2.14-2a22.85,22.85,0,0,0,3.26,1.59L56.2,61a1.5,1.5,0,0,0,1.11,1.59l1.41.37a1.51,1.51,0,0,0,1.75-.84l1.2-2.69a22.93,22.93,0,0,0,3.62.21l.88,2.82a1.5,1.5,0,0,0,1.64,1l1.44-.2a1.5,1.5,0,0,0,1.3-1.45l.08-3a22,22,0,0,0,3.43-1.18L76,60a1.49,1.49,0,0,0,1.91.34l1.26-.74a1.51,1.51,0,0,0,.64-1.83L78.71,55a23.07,23.07,0,0,0,2.71-2.42L84,54a1.49,1.49,0,0,0,1.89-.43l.88-1.16a1.5,1.5,0,0,0-.1-1.94l-2-2.14A24,24,0,0,0,86.26,45l2.93.26a1.5,1.5,0,0,0,1.59-1.11l.37-1.41A1.51,1.51,0,0,0,90.31,41l-2.69-1.2a23,23,0,0,0,.21-3.63l2.82-.87a1.5,1.5,0,0,0,1-1.64l-.2-1.45A1.51,1.51,0,0,0,90,31ZM65.25,39.63a3,3,0,1,1,2.56-3.38A3,3,0,0,1,65.25,39.63Z"/><path class="cls-18" d="M63.33,25.76a11,11,0,1,0,12.41,9.4A11,11,0,0,0,63.33,25.76Zm1.92,13.87a3,3,0,1,1,2.56-3.38A3,3,0,0,1,65.25,39.63Z"/><path class="cls-20" d="M66.34,47.56a12,12,0,0,1-13.22-8.78,12.61,12.61,0,0,0,.11,1.5,12,12,0,1,0,23.46-4.75A12,12,0,0,1,66.34,47.56Z"/><g class="cls-21"><path class="cls-22" d="M65.93,44.58a11,11,0,0,1-12.08-7.92,10.79,10.79,0,0,0,.09,1.5,11,11,0,1,0,21.8-3,11.25,11.25,0,0,0-.32-1.47A11,11,0,0,1,65.93,44.58Z"/></g><g class="cls-23"><path class="cls-24" d="M63.74,28.74a11,11,0,0,1,12.09,7.92,10.79,10.79,0,0,0-.09-1.5,11,11,0,1,0-21.8,3,11.77,11.77,0,0,0,.32,1.48A11,11,0,0,1,63.74,28.74Z"/></g><path class="cls-24" d="M39.37,32.29l2.69,1.2a22.44,22.44,0,0,0-.19,2.32,24,24,0,0,1,44.85-6.19,22.68,22.68,0,0,0-.81-2.18l2.26-1.89a1.49,1.49,0,0,0,.33-1.91l-.73-1.26a1.51,1.51,0,0,0-1.83-.64l-2.75,1.05a23.07,23.07,0,0,0-2.42-2.71l1.37-2.61a1.49,1.49,0,0,0-.42-1.89l-1.16-.88a1.5,1.5,0,0,0-1.94.1l-2.14,2a24,24,0,0,0-3.26-1.59l.26-2.93a1.5,1.5,0,0,0-1.11-1.59L71,10.35a1.51,1.51,0,0,0-1.75.84L68,13.88a23,23,0,0,0-3.63-.21l-.87-2.82a1.51,1.51,0,0,0-1.64-1l-1.45.2a1.5,1.5,0,0,0-1.29,1.45l-.08,2.95a22,22,0,0,0-3.43,1.18l-1.89-2.26A1.49,1.49,0,0,0,51.82,13l-1.26.74a1.51,1.51,0,0,0-.64,1.83l1,2.75a23.07,23.07,0,0,0-2.71,2.42l-2.61-1.37a1.48,1.48,0,0,0-1.89.42l-.88,1.16a1.5,1.5,0,0,0,.1,1.94L45,25a22.85,22.85,0,0,0-1.59,3.26L40.49,28a1.5,1.5,0,0,0-1.59,1.11l-.37,1.41A1.51,1.51,0,0,0,39.37,32.29Z"/><g class="cls-21"><path class="cls-22" d="M41.51,47.79l2.26-1.89c-.31-.71-.57-1.44-.81-2.18a24,24,0,0,0,44.85-6.19,22,22,0,0,1-.19,2.31l2.69,1.21a1.51,1.51,0,0,1,.84,1.75l-.37,1.41a1.49,1.49,0,0,1-1.59,1.11l-2.93-.26a22.85,22.85,0,0,1-1.59,3.26l2,2.14a1.51,1.51,0,0,1,.11,1.94l-.88,1.16A1.52,1.52,0,0,1,84,54l-2.61-1.37A23,23,0,0,1,78.71,55l1.05,2.76a1.51,1.51,0,0,1-.64,1.83l-1.26.73A1.5,1.5,0,0,1,76,60l-1.89-2.26a22.73,22.73,0,0,1-3.43,1.18l-.08,3a1.5,1.5,0,0,1-1.29,1.44l-1.45.2a1.49,1.49,0,0,1-1.63-1l-.88-2.81a24,24,0,0,1-3.62-.21l-1.21,2.69a1.51,1.51,0,0,1-1.75.84l-1.41-.37A1.5,1.5,0,0,1,56.2,61l.26-2.93a24,24,0,0,1-3.26-1.59l-2.14,2a1.51,1.51,0,0,1-1.94.1L48,57.76a1.49,1.49,0,0,1-.42-1.89l1.37-2.61a24.91,24.91,0,0,1-2.42-2.71L43.74,51.6A1.5,1.5,0,0,1,41.91,51l-.73-1.25A1.5,1.5,0,0,1,41.51,47.79Z"/></g><g class="cls-23"><path class="cls-24" d="M80.77,20.08l1.37-2.61a1.49,1.49,0,0,0-.42-1.89l-.49-.37L66.74,34.35a3,3,0,0,1-1.49,5.28,2.94,2.94,0,0,1-2.12-.52L48.63,58.25l.49.37a1.5,1.5,0,0,0,1.94-.1l2.14-2,.38.2,27.49-36.3C81,20.29,80.88,20.18,80.77,20.08Z"/><path class="cls-24" d="M63,34.3l13.3-17.56a23.18,23.18,0,0,0-3.09-1.5l.26-2.93a1.5,1.5,0,0,0-1.11-1.59L71,10.35a1.51,1.51,0,0,0-1.75.84L68,13.88a23,23,0,0,0-3.63-.21l-.87-2.82a1.51,1.51,0,0,0-1.64-1l-1.45.2a1.5,1.5,0,0,0-1.29,1.45l-.08,2.95a22,22,0,0,0-3.43,1.18l-1.89-2.26A1.49,1.49,0,0,0,51.82,13l-1.26.74a1.51,1.51,0,0,0-.64,1.83l1,2.75a23.07,23.07,0,0,0-2.71,2.42l-2.61-1.37a1.48,1.48,0,0,0-1.89.42l-.88,1.16a1.5,1.5,0,0,0,.1,1.94L45,25a22.85,22.85,0,0,0-1.59,3.26L40.49,28a1.5,1.5,0,0,0-1.59,1.11l-.37,1.41a1.51,1.51,0,0,0,.84,1.75l2.69,1.2a23,23,0,0,0-.21,3.63L39,38a1.5,1.5,0,0,0-1,1.64l.2,1.45a1.5,1.5,0,0,0,1.45,1.29l2.94.08a23.15,23.15,0,0,0,1.19,3.43l-2.26,1.89a1.49,1.49,0,0,0-.34,1.91l.74,1.26a1.51,1.51,0,0,0,1.83.64l2.75-1a23.26,23.26,0,0,0,2.28,2.57l13.3-17.56A3,3,0,0,1,63,34.3Z"/></g><path class="cls-3" d="M67.6,64.52a2.49,2.49,0,0,1-2.38-1.76l-.66-2.1c-.76,0-1.52-.06-2.28-.14l-.9,2a2.5,2.5,0,0,1-2.91,1.4l-1.41-.37a2.5,2.5,0,0,1-1.86-2.65l.2-2.2c-.7-.3-1.38-.63-2-1l-1.61,1.52a2.49,2.49,0,0,1-3.22.17l-1.17-.88a2.48,2.48,0,0,1-.7-3.15l1-2c-.54-.55-1-1.12-1.52-1.7l-2.06.78a2.49,2.49,0,0,1-3.05-1.07l-.74-1.26A2.48,2.48,0,0,1,40.87,47l1.69-1.41c-.28-.71-.53-1.43-.74-2.16l-2.21-.06a2.49,2.49,0,0,1-2.41-2.16L37,39.77A2.49,2.49,0,0,1,38.73,37l2.11-.66c0-.76.06-1.52.14-2.28l-2-.9a2.49,2.49,0,0,1-1.4-2.91l.37-1.41A2.49,2.49,0,0,1,40.58,27l2.2.2c.3-.7.63-1.38,1-2l-1.52-1.61a2.49,2.49,0,0,1-.17-3.22L43,19.17a2.49,2.49,0,0,1,3.15-.7l2,1c.55-.54,1.11-1,1.7-1.52L49,15.92a2.49,2.49,0,0,1,1.07-3.05l1.26-.74a2.49,2.49,0,0,1,3.18.56l1.41,1.69c.71-.28,1.43-.53,2.16-.74l.06-2.21A2.49,2.49,0,0,1,60.29,9l1.44-.2a2.5,2.5,0,0,1,2.73,1.74l.66,2.11a21.44,21.44,0,0,1,2.27.13l.91-2a2.5,2.5,0,0,1,2.91-1.4l1.41.37a2.5,2.5,0,0,1,1.86,2.65l-.2,2.2c.7.3,1.38.63,2,1l1.61-1.51a2.48,2.48,0,0,1,3.22-.18l1.17.88a2.5,2.5,0,0,1,.7,3.15l-1,2c.54.55,1,1.12,1.52,1.7l2.06-.78a2.49,2.49,0,0,1,3,1.07l.74,1.26a2.49,2.49,0,0,1-.56,3.18l-1.69,1.41c.28.71.53,1.43.74,2.16l2.21.06a2.49,2.49,0,0,1,2.41,2.16l.2,1.44a2.49,2.49,0,0,1-1.74,2.73l-2.11.66a21.78,21.78,0,0,1-.13,2.28l2,.9A2.48,2.48,0,0,1,92.11,43l-.36,1.41A2.49,2.49,0,0,1,89.1,46.3l-2.2-.2c-.3.7-.63,1.38-1,2l1.52,1.61A2.48,2.48,0,0,1,87.6,53l-.88,1.17a2.5,2.5,0,0,1-3.15.7l-2-1c-.55.54-1.12,1-1.7,1.52l.78,2.06a2.49,2.49,0,0,1-1.07,3.05l-1.26.74a2.49,2.49,0,0,1-3.18-.56l-1.42-1.69a22.7,22.7,0,0,1-2.15.74l-.06,2.21a2.49,2.49,0,0,1-2.16,2.41L68,64.5Zm-2.31-5.87a1,1,0,0,1,1,.7l.88,2.82a.5.5,0,0,0,.54.35l1.45-.2a.51.51,0,0,0,.43-.48l.08-3a1,1,0,0,1,.75-.94,21.22,21.22,0,0,0,3.28-1.14,1,1,0,0,1,1.17.28l1.88,2.26a.49.49,0,0,0,.64.11l1.26-.73a.5.5,0,0,0,.21-.61l-1-2.76a1,1,0,0,1,.33-1.15,21.81,21.81,0,0,0,2.6-2.31,1,1,0,0,1,1.18-.19l2.61,1.37a.51.51,0,0,0,.64-.14L86,51.78a.51.51,0,0,0,0-.65l-2-2.14a1,1,0,0,1-.13-1.2,21.92,21.92,0,0,0,1.52-3.12,1,1,0,0,1,1-.63l2.93.27a.51.51,0,0,0,.53-.37l.37-1.42a.51.51,0,0,0-.28-.58l-2.69-1.2a1,1,0,0,1-.58-1.05,22.31,22.31,0,0,0,.2-3.46,1,1,0,0,1,.7-1l2.82-.88a.49.49,0,0,0,.34-.54h0l-.19-1.45A.51.51,0,0,0,90,32l-2.94-.08a1,1,0,0,1-.94-.75A21.22,21.22,0,0,0,85,27.84a1,1,0,0,1,.28-1.17l2.26-1.89a.48.48,0,0,0,.11-.63l-.74-1.26a.51.51,0,0,0-.61-.22l-2.75,1.06a1,1,0,0,1-1.15-.33,21.81,21.81,0,0,0-2.31-2.6,1,1,0,0,1-.19-1.18L81.26,17a.51.51,0,0,0-.14-.63L80,15.49a.5.5,0,0,0-.65,0l-2.14,2a1,1,0,0,1-1.2.13,21.92,21.92,0,0,0-3.12-1.52,1,1,0,0,1-.63-1l.27-2.93a.5.5,0,0,0-.37-.53l-1.42-.37a.51.51,0,0,0-.58.28l-1.2,2.69a1,1,0,0,1-1,.58,21.2,21.2,0,0,0-3.47-.2,1,1,0,0,1-1-.7l-.88-2.82A.5.5,0,0,0,62,10.8l-1.45.2a.51.51,0,0,0-.43.49l-.08,2.94a1,1,0,0,1-.75.94A21.22,21.22,0,0,0,56,16.51a1,1,0,0,1-1.17-.28L53,14a.48.48,0,0,0-.63-.11l-1.26.73a.52.52,0,0,0-.22.61l1,2.76a1,1,0,0,1-.33,1.15A22.52,22.52,0,0,0,49,21.42a1,1,0,0,1-1.18.19l-2.62-1.37a.51.51,0,0,0-.63.14l-.88,1.16a.5.5,0,0,0,0,.65l2,2.14a1,1,0,0,1,.14,1.2,21.92,21.92,0,0,0-1.52,3.12,1,1,0,0,1-1,.63L40.4,29a.5.5,0,0,0-.53.37L39.5,30.8a.49.49,0,0,0,.28.58l2.69,1.2a1,1,0,0,1,.58,1.05,21.14,21.14,0,0,0-.2,3.46,1,1,0,0,1-.7,1L39.33,39a.5.5,0,0,0-.35.54l.2,1.45a.51.51,0,0,0,.48.43l3,.08a1,1,0,0,1,.94.75,21.22,21.22,0,0,0,1.14,3.28,1,1,0,0,1-.28,1.17l-2.26,1.89a.48.48,0,0,0-.11.63l.73,1.26a.52.52,0,0,0,.61.22l2.76-1.06a1,1,0,0,1,1.15.33,21.81,21.81,0,0,0,2.31,2.6,1,1,0,0,1,.19,1.18l-1.37,2.62a.5.5,0,0,0,.14.63l1.16.88a.5.5,0,0,0,.65,0l2.14-2a1,1,0,0,1,1.2-.13,21.92,21.92,0,0,0,3.12,1.52,1,1,0,0,1,.63,1l-.27,2.93a.5.5,0,0,0,.37.53L59,62a.51.51,0,0,0,.59-.28L60.76,59a1,1,0,0,1,1.05-.58,22.31,22.31,0,0,0,3.46.2Z"/><path class="cls-3" d="M64.81,48.66A12,12,0,1,1,76.73,35h0A12,12,0,0,1,66.48,48.55,13.38,13.38,0,0,1,64.81,48.66Zm0-22a10.66,10.66,0,0,0-1.38.09,10,10,0,1,0,11.28,8.54h0A10,10,0,0,0,64.85,26.66Z"/><path class="cls-3" d="M64.84,40.66a4,4,0,0,1-3.19-6.41,3.93,3.93,0,0,1,2.64-1.55,4,4,0,0,1,3,.77,3.93,3.93,0,0,1,1.55,2.64,4,4,0,0,1-3.41,4.51A3.48,3.48,0,0,1,64.84,40.66Zm0-6-.27,0a2,2,0,1,0,1.86,3.19,2,2,0,0,0,.39-1.48h0a2,2,0,0,0-2-1.73Z"/></g><rect class="cls-24" height="66" width="84" x="22" y="49"/><rect class="cls-25" height="10" width="9" x="64" y="85"/><rect class="cls-25" height="10" width="25" x="76" y="85"/><g class="cls-23"><path class="cls-11" d="M100,56H96a1,1,0,0,1,0-2h4a1,1,0,0,1,0,2Z"/><path class="cls-11" d="M92,56H88a1,1,0,0,1,0-2h4a1,1,0,0,1,0,2Z"/><path class="cls-11" d="M84,56H80a1,1,0,0,1,0-2h4a1,1,0,0,1,0,2Z"/><path class="cls-11" d="M65,82a1,1,0,0,1-.71-.3A1,1,0,0,1,64,81a1,1,0,0,1,.29-.71,1,1,0,0,1,1.42,0A1,1,0,0,1,65,82Z"/><path class="cls-11" d="M68,82a1,1,0,0,1-1-1,1,1,0,0,1,1.38-.93,1.06,1.06,0,0,1,.33.22A1,1,0,0,1,69,81a1,1,0,0,1-.29.7A1,1,0,0,1,68,82Z"/><path class="cls-11" d="M84,100H77a1,1,0,0,1,0-2h7a1,1,0,0,1,0,2Z"/><path class="cls-11" d="M100,100H87a1,1,0,0,1,0-2h13a1,1,0,0,1,0,2Z"/><path class="cls-11" d="M93,104H77a1,1,0,0,1,0-2H93a1,1,0,0,1,0,2Z"/><path class="cls-11" d="M100,104H96a1,1,0,0,1,0-2h4a1,1,0,0,1,0,2Z"/><path class="cls-11" d="M89,108H82a1,1,0,0,1,0-2h7a1,1,0,0,1,0,2Z"/><path class="cls-11" d="M79,108H77a1,1,0,0,1,0-2h2a1,1,0,0,1,0,2Z"/><path class="cls-11" d="M68,100H64a1,1,0,0,1,0-2h4a1,1,0,0,1,0,2Z"/><path class="cls-11" d="M72,100H71a1,1,0,0,1,0-2h1a1,1,0,0,1,0,2Z"/><path class="cls-11" d="M72,104H64a1,1,0,0,1,0-2h8a1,1,0,0,1,0,2Z"/><path class="cls-11" d="M66,108H64a1,1,0,0,1,0-2h2a1,1,0,0,1,0,2Z"/></g><rect class="cls-26" height="16" width="37" x="64" y="61"/><rect class="cls-2" height="66" width="42" x="22" y="49"/><rect class="cls-17" height="4" width="84" x="22" y="111"/><path class="cls-16" d="M106,41v8H22V41a4,4,0,0,1,4-4h76A4,4,0,0,1,106,41Z"/><path class="cls-24" d="M102,37H26a4,4,0,0,0-4,4v3a4,4,0,0,1,4-4h76a4,4,0,0,1,4,4V41A4,4,0,0,0,102,37Z"/><path class="cls-11" d="M106,116H22a1,1,0,0,1-1-1V41a5,5,0,0,1,5-5h76a5,5,0,0,1,5,5v74A1,1,0,0,1,106,116Zm-83-2h82V41a3,3,0,0,0-3-3H26a3,3,0,0,0-3,3Z"/><path class="cls-11" d="M106,50H22a1,1,0,0,1,0-2h84a1,1,0,0,1,0,2Z"/><rect class="cls-27" height="4" rx="2" ry="2" width="52" x="50" y="41"/><circle class="cls-28" cx="28" cy="43" r="2"/><circle class="cls-29" cx="36" cy="43" r="2"/><circle class="cls-30" cx="44" cy="43" r="2"/><path class="cls-11" d="M64,116a1,1,0,0,1-1-1V49a1,1,0,0,1,2,0v66A1,1,0,0,1,64,116Z"/><path class="cls-24" d="M40,56H35a1,1,0,0,1,0-2h5a1,1,0,0,1,0,2Z"/><path class="cls-31" d="M54,56H44a1,1,0,0,1,0-2H54a1,1,0,0,1,0,2Z"/><path class="cls-24" d="M44,60H35a1,1,0,0,1,0-2h9a1,1,0,0,1,0,2Z"/><path class="cls-24" d="M50,60H48a1,1,0,0,1,0-2h2a1,1,0,0,1,0,2Z"/><path class="cls-24" d="M45,72H43a1,1,0,0,1,0-2h2a1,1,0,0,1,0,2Z"/><path class="cls-24" d="M39,72H35a1,1,0,0,1,0-2h4a1,1,0,0,1,0,2Z"/><path class="cls-24" d="M58,76H55a1,1,0,0,1,0-2h3a1,1,0,0,1,0,2Z"/><path class="cls-24" d="M51,76H35a1,1,0,0,1,0-2H51a1,1,0,0,1,0,2Z"/><path class="cls-24" d="M46,64H35a1,1,0,0,1,0-2H46a1,1,0,0,1,0,2Z"/><path class="cls-31" d="M58,64H50a1,1,0,0,1,0-2h8a1,1,0,0,1,0,2Z"/><path class="cls-24" d="M46,88H35a1,1,0,0,1,0-2H46a1,1,0,0,1,0,2Z"/><path class="cls-24" d="M58,88H50a1,1,0,0,1,0-2h8a1,1,0,0,1,0,2Z"/><path class="cls-24" d="M38,80H35a1,1,0,0,1,0-2h3a1,1,0,0,1,0,2Z"/><path class="cls-31" d="M50,80H42a1,1,0,0,1,0-2h8a1,1,0,0,1,0,2Z"/><path class="cls-24" d="M46,84H35a1,1,0,0,1,0-2H46a1,1,0,0,1,0,2Z"/><path class="cls-31" d="M58,84H50a1,1,0,0,1,0-2h8a1,1,0,0,1,0,2Z"/><path class="cls-31" d="M40,68H35a1,1,0,0,1,0-2h5a1,1,0,0,1,0,2Z"/><path class="cls-24" d="M58,68H44a1,1,0,0,1,0-2H58a1,1,0,0,1,0,2Z"/><path class="cls-32" d="M31,56H28a1,1,0,0,1,0-2h3a1,1,0,0,1,0,2Z"/><path class="cls-32" d="M31,68H28a1,1,0,0,1,0-2h3a1,1,0,0,1,0,2Z"/><path class="cls-32" d="M31,84H28a1,1,0,0,1,0-2h3a1,1,0,0,1,0,2Z"/><path class="cls-24" d="M40,92H35a1,1,0,0,1,0-2h5a1,1,0,0,1,0,2Z"/><path class="cls-24" d="M51,92H44a1,1,0,0,1,0-2h7a1,1,0,0,1,0,2Z"/><path class="cls-31" d="M44,96H35a1,1,0,0,1,0-2h9a1,1,0,0,1,0,2Z"/><path class="cls-24" d="M50,96H48a1,1,0,0,1,0-2h2a1,1,0,0,1,0,2Z"/><path class="cls-24" d="M58,96H54a1,1,0,0,1,0-2h4a1,1,0,0,1,0,2Z"/><path class="cls-24" d="M48,108H35a1,1,0,0,1,0-2H48a1,1,0,0,1,0,2Z"/><path class="cls-24" d="M41,100H35a1,1,0,0,1,0-2h6a1,1,0,0,1,0,2Z"/><path class="cls-24" d="M38,104H35a1,1,0,0,1,0-2h3a1,1,0,0,1,0,2Z"/><path class="cls-31" d="M58,104H42a1,1,0,0,1,0-2H58a1,1,0,0,1,0,2Z"/><path class="cls-32" d="M31,104H28a1,1,0,0,1,0-2h3a1,1,0,0,1,0,2Z"/></svg>