<?xml version="1.0" ?><svg id="Layer_3" style="enable-background:new 0 0 32 32;" version="1.1" viewBox="0 0 32 32" xml:space="preserve" xmlns="http://www.w3.org/2000/svg" xmlns:xlink="http://www.w3.org/1999/xlink"><path d="M27.2,26c2.4-2.7,3.8-6.3,3.8-10c0-4.3-1.9-8.4-5.1-11.2C23.2,2.3,19.7,1,16,1c-3.7,0-7.2,1.3-9.9,3.7C2.9,7.6,1,11.7,1,16  s1.9,8.4,5.1,11.2C8.8,29.7,12.3,31,16,31c3.7,0,7.2-1.3,9.9-3.7C26.3,26.9,26.7,26.5,27.2,26C27.2,26,27.2,26,27.2,26z M23.1,22.9  c0.5-1.8,0.8-3.8,0.9-5.9h5c-0.2,2.6-1.2,5.1-2.8,7.1C25.3,23.6,24.2,23.3,23.1,22.9z M5.8,24.1c-1.6-2-2.6-4.5-2.8-7.1h5  c0.1,2.1,0.4,4.1,0.9,5.9C7.8,23.3,6.7,23.6,5.8,24.1z M5.8,7.9c0.9,0.4,1.9,0.8,3,1.1C8.4,10.9,8.1,12.9,8,15h-5  C3.3,12.4,4.2,9.9,5.8,7.9z M26.2,7.9c1.6,2,2.6,4.5,2.8,7.1h-5c-0.1-2.1-0.4-4.1-0.9-5.9C24.2,8.7,25.3,8.4,26.2,7.9z M15,15h-5  c0.1-2,0.4-3.9,0.8-5.5c1.3,0.3,2.7,0.4,4.2,0.5V15z M15,17v5c-1.4,0-2.8,0.2-4.2,0.5C10.4,20.9,10.1,19,10,17H15z M17,17h5  c-0.1,2-0.4,3.9-0.8,5.5c-1.4-0.3-2.8-0.4-4.2-0.5V17z M17,15v-5c1.4,0,2.8-0.2,4.2-0.5c0.4,1.6,0.7,3.4,0.8,5.5H17z M17,8V3.2  c1.3,0.5,2.6,2.1,3.5,4.4C19.4,7.8,18.2,7.9,17,8z M15,3.2V8c-1.2,0-2.4-0.2-3.5-0.4C12.4,5.3,13.7,3.7,15,3.2z M15,24v4.8  c-1.3-0.5-2.6-2.1-3.5-4.4C12.6,24.2,13.8,24.1,15,24z M17,28.8V24c1.2,0,2.4,0.2,3.5,0.4C19.6,26.7,18.3,28.3,17,28.8z M24.7,6.4  c-0.7,0.3-1.4,0.6-2.2,0.8c-0.5-1.2-1.1-2.3-1.7-3.2c1.4,0.5,2.7,1.3,3.8,2.3C24.6,6.3,24.7,6.3,24.7,6.4z M11.2,3.9  c-0.7,0.9-1.2,2-1.7,3.2C8.7,6.9,8,6.7,7.3,6.4c0,0,0.1-0.1,0.1-0.1C8.5,5.2,9.8,4.5,11.2,3.9z M7.3,25.6c0.7-0.3,1.4-0.6,2.2-0.8  c0.5,1.2,1.1,2.3,1.7,3.2c-1.4-0.5-2.7-1.3-3.8-2.3C7.4,25.7,7.3,25.7,7.3,25.6z M20.8,28.1c0.7-0.9,1.2-2,1.7-3.2  c0.8,0.2,1.6,0.5,2.2,0.8c0,0-0.1,0.1-0.1,0.1C23.5,26.8,22.2,27.5,20.8,28.1z" style="fill:#3500d3;"/></svg>