<?xml version="1.0" ?><svg viewBox="0 0 24 24" xmlns="http://www.w3.org/2000/svg" xmlns:xlink="http://www.w3.org/1999/xlink"><defs><linearGradient gradientUnits="userSpaceOnUse" id="a" x1="1.95025" x2="22.04983" y1="7.31362" y2="16.68621"><stop offset="0" stop-color="#fff" stop-opacity="0.2"/><stop offset="1" stop-color="#fff" stop-opacity="0"/></linearGradient></defs><title/><path d="M24,12c0-1.69275-1.9292-3.15991-4.93274-4.06018.77149-3.2005.4762-5.72907-1.01941-6.60974a2.771,2.771,0,0,0-2.19092-.2002A9.58681,9.58681,0,0,0,12,3.63721,9.58681,9.58681,0,0,0,8.14307,1.12988a2.77053,2.77053,0,0,0-2.19092.2002c-1.49561.88067-1.7909,3.40924-1.01941,6.60974C1.9292,8.84009,0,10.30725,0,12s1.9292,3.15991,4.93274,4.06018c-.77149,3.2005-.4762,5.72907,1.01941,6.60974a2.44081,2.44081,0,0,0,1.26221.33106,3.61447,3.61447,0,0,0,.92871-.13086A9.58681,9.58681,0,0,0,12,20.36279a9.58681,9.58681,0,0,0,3.85693,2.50733,3.61447,3.61447,0,0,0,.92871.13086,2.44081,2.44081,0,0,0,1.26221-.33106c1.49561-.88067,1.7909-3.40924,1.01941-6.60974C22.0708,15.15991,24,13.69275,24,12ZM16.11572,2.0957A2.60147,2.60147,0,0,1,16.78076,2a1.475,1.475,0,0,1,.75928.19141c.99457.58606,1.22894,2.66919.55591,5.48651a23.69155,23.69155,0,0,0-3.16675-.52765,24.95778,24.95778,0,0,0-2.22992-2.79938A8.61177,8.61177,0,0,1,16.11572,2.0957Zm-.624,11.97168c-.361.63794-.74152,1.24958-1.13281,1.8357C13.60724,15.96582,12.81964,16,12,16s-1.60724-.03418-2.35889-.09692c-.39129-.58612-.77185-1.19776-1.13281-1.8357Q7.91312,13.01563,7.44366,12q.472-1.01313,1.06464-2.06738c.361-.63794.74152-1.24958,1.13281-1.8357C10.39276,8.03418,11.18036,8,12,8s1.60724.03418,2.35889.09692c.39129.58612.77185,1.19776,1.13281,1.8357Q16.08688,10.98438,16.55634,12,16.08438,13.01313,15.4917,14.06738Zm1.58948-.86352c.30389.74615.55261,1.4635.75537,2.149a21.80553,21.80553,0,0,1-2.19422.40765c.24506-.39087.48652-.78919.71949-1.201C16.61865,14.10571,16.855,13.65387,17.08118,13.20386ZM12,18.9295a23.38668,23.38668,0,0,1-1.6275-1.97857C10.90521,16.97986,11.44531,17,12,17s1.09479-.02014,1.6275-.04907A23.38668,23.38668,0,0,1,12,18.9295ZM8.35767,15.76056a21.80553,21.80553,0,0,1-2.19422-.40765c.20276-.68555.45148-1.4029.75537-2.149.22614.45.46253.90185.71936,1.35571C7.87115,14.97137,8.11261,15.36969,8.35767,15.76056ZM6.91882,10.79614c-.30389-.74615-.55261-1.4635-.75537-2.149a21.80553,21.80553,0,0,1,2.19422-.40765c-.24506.39087-.48652.78919-.71949,1.201C7.38135,9.89429,7.145,10.34613,6.91882,10.79614ZM12,5.0705a23.39651,23.39651,0,0,1,1.62756,1.97857C13.09485,7.02014,12.55469,7,12,7s-1.09485.02014-1.62756.04907A23.39651,23.39651,0,0,1,12,5.0705Zm4.36182,4.36993c-.233-.4118-.47443-.81012-.71949-1.201a21.80553,21.80553,0,0,1,2.19422.40765c-.20276.68555-.45148,1.4029-.75537,2.149C16.855,10.34613,16.61865,9.89429,16.36182,9.44043ZM6.46,2.19141A1.475,1.475,0,0,1,7.21924,2a2.60147,2.60147,0,0,1,.665.0957,8.61177,8.61177,0,0,1,3.41644,2.25519A24.95778,24.95778,0,0,0,9.0708,7.15027a23.69155,23.69155,0,0,0-3.16675.52765C5.231,4.8606,5.46539,2.77747,6.46,2.19141ZM1,12c0-1.11487,1.57794-2.3017,4.19379-3.09113A24.97336,24.97336,0,0,0,6.34833,12a24.97336,24.97336,0,0,0-1.15454,3.09113C2.57794,14.3017,1,13.11487,1,12Zm6.88428,9.9043A1.82592,1.82592,0,0,1,6.46,21.80859c-.99457-.58606-1.22894-2.66919-.55591-5.48651a23.69155,23.69155,0,0,0,3.16675.52765,24.95778,24.95778,0,0,0,2.22992,2.79938A8.61177,8.61177,0,0,1,7.88428,21.9043ZM17.54,21.80859a1.82548,1.82548,0,0,1-1.42432.09571,8.61177,8.61177,0,0,1-3.41644-2.25519,24.95778,24.95778,0,0,0,2.22992-2.79938,23.69155,23.69155,0,0,0,3.16675-.52765C18.769,19.1394,18.53461,21.22253,17.54,21.80859Zm1.26617-6.71746A24.97336,24.97336,0,0,0,17.65167,12a24.97336,24.97336,0,0,0,1.15454-3.09113C21.42206,9.6983,23,10.88513,23,12S21.42206,14.3017,18.80621,15.09113Z" fill="#42a5f5"/><path d="M12,10a2,2,0,1,0,2,2A2.00229,2.00229,0,0,0,12,10Zm0,3a1,1,0,1,1,1-1A1.001,1.001,0,0,1,12,13Z" fill="#42a5f5"/><path d="M24,12c0-1.69275-1.9292-3.15991-4.93274-4.06018.77149-3.2005.4762-5.72907-1.01941-6.60974a2.771,2.771,0,0,0-2.19092-.2002A9.58681,9.58681,0,0,0,12,3.63721,9.58681,9.58681,0,0,0,8.14307,1.12988a2.77053,2.77053,0,0,0-2.19092.2002c-1.49561.88067-1.7909,3.40924-1.01941,6.60974C1.9292,8.84009,0,10.30725,0,12s1.9292,3.15991,4.93274,4.06018c-.77149,3.2005-.4762,5.72907,1.01941,6.60974a2.44081,2.44081,0,0,0,1.26221.33106,3.61447,3.61447,0,0,0,.92871-.13086A9.58681,9.58681,0,0,0,12,20.36279a9.58681,9.58681,0,0,0,3.85693,2.50733,3.61447,3.61447,0,0,0,.92871.13086,2.44081,2.44081,0,0,0,1.26221-.33106c1.49561-.88067,1.7909-3.40924,1.01941-6.60974C22.0708,15.15991,24,13.69275,24,12ZM16.11572,2.0957A2.60147,2.60147,0,0,1,16.78076,2a1.475,1.475,0,0,1,.75928.19141c.99457.58606,1.22894,2.66919.55591,5.48651a23.69155,23.69155,0,0,0-3.16675-.52765,24.95778,24.95778,0,0,0-2.22992-2.79938A8.61177,8.61177,0,0,1,16.11572,2.0957Zm-.624,11.97168c-.361.63794-.74152,1.24958-1.13281,1.8357C13.60724,15.96582,12.81964,16,12,16s-1.60724-.03418-2.35889-.09692c-.39129-.58612-.77185-1.19776-1.13281-1.8357Q7.91312,13.01563,7.44366,12q.472-1.01313,1.06464-2.06738c.361-.63794.74152-1.24958,1.13281-1.8357C10.39276,8.03418,11.18036,8,12,8s1.60724.03418,2.35889.09692c.39129.58612.77185,1.19776,1.13281,1.8357Q16.08688,10.98438,16.55634,12,16.08438,13.01313,15.4917,14.06738Zm1.58948-.86352c.30389.74615.55261,1.4635.75537,2.149a21.80553,21.80553,0,0,1-2.19422.40765c.24506-.39087.48652-.78919.71949-1.201C16.61865,14.10571,16.855,13.65387,17.08118,13.20386ZM12,18.9295a23.38668,23.38668,0,0,1-1.6275-1.97857C10.90521,16.97986,11.44531,17,12,17s1.09479-.02014,1.6275-.04907A23.38668,23.38668,0,0,1,12,18.9295ZM8.35767,15.76056a21.80553,21.80553,0,0,1-2.19422-.40765c.20276-.68555.45148-1.4029.75537-2.149.22614.45.46253.90185.71936,1.35571C7.87115,14.97137,8.11261,15.36969,8.35767,15.76056ZM6.91882,10.79614c-.30389-.74615-.55261-1.4635-.75537-2.149a21.80553,21.80553,0,0,1,2.19422-.40765c-.24506.39087-.48652.78919-.71949,1.201C7.38135,9.89429,7.145,10.34613,6.91882,10.79614ZM12,5.0705a23.39651,23.39651,0,0,1,1.62756,1.97857C13.09485,7.02014,12.55469,7,12,7s-1.09485.02014-1.62756.04907A23.39651,23.39651,0,0,1,12,5.0705Zm4.36182,4.36993c-.233-.4118-.47443-.81012-.71949-1.201a21.80553,21.80553,0,0,1,2.19422.40765c-.20276.68555-.45148,1.4029-.75537,2.149C16.855,10.34613,16.61865,9.89429,16.36182,9.44043ZM6.46,2.19141A1.475,1.475,0,0,1,7.21924,2a2.60147,2.60147,0,0,1,.665.0957,8.61177,8.61177,0,0,1,3.41644,2.25519A24.95778,24.95778,0,0,0,9.0708,7.15027a23.69155,23.69155,0,0,0-3.16675.52765C5.231,4.8606,5.46539,2.77747,6.46,2.19141ZM1,12c0-1.11487,1.57794-2.3017,4.19379-3.09113A24.97336,24.97336,0,0,0,6.34833,12a24.97336,24.97336,0,0,0-1.15454,3.09113C2.57794,14.3017,1,13.11487,1,12Zm6.88428,9.9043A1.82592,1.82592,0,0,1,6.46,21.80859c-.99457-.58606-1.22894-2.66919-.55591-5.48651a23.69155,23.69155,0,0,0,3.16675.52765,24.95778,24.95778,0,0,0,2.22992,2.79938A8.61177,8.61177,0,0,1,7.88428,21.9043ZM17.54,21.80859a1.82548,1.82548,0,0,1-1.42432.09571,8.61177,8.61177,0,0,1-3.41644-2.25519,24.95778,24.95778,0,0,0,2.22992-2.79938,23.69155,23.69155,0,0,0,3.16675-.52765C18.769,19.1394,18.53461,21.22253,17.54,21.80859Zm1.26617-6.71746A24.97336,24.97336,0,0,0,17.65167,12a24.97336,24.97336,0,0,0,1.15454-3.09113C21.42206,9.6983,23,10.88513,23,12S21.42206,14.3017,18.80621,15.09113Z" fill="url(#a)"/><path d="M12,10a2,2,0,1,0,2,2A2.00229,2.00229,0,0,0,12,10Zm0,3a1,1,0,1,1,1-1A1.001,1.001,0,0,1,12,13Z" fill="url(#a)"/></svg>