<?xml version="1.0" ?><svg data-name="013" height="128" id="_013" viewBox="0 0 128 128" width="128" xmlns="http://www.w3.org/2000/svg" xmlns:xlink="http://www.w3.org/1999/xlink"><defs><clipPath id="clip-path"><path d="M2.31479,48.66277a30.00059,30.00059,0,0,1,23.51163-25.0453A19.68967,19.68967,0,0,0,36.75906,17.0691a37.01139,37.01139,0,0,1,64.2547,15.37177,21.01331,21.01331,0,0,0,10.88216,13.67358c14.16287,7.35847,21.25849,26.45884,8.3499,44.38322a16.60222,16.60222,0,0,1-6.35231,4.90944,20.57854,20.57854,0,0,0-10.01954,10.876,28.48779,28.48779,0,0,1-42.6239,12.6366,20.05863,20.05863,0,0,0-16.62372-2.94261A29.00072,29.00072,0,0,1,8.58824,82.18442,20.08025,20.08025,0,0,0,6.07871,68.05283,29.83225,29.83225,0,0,1,2.31479,48.66277Z" style="fill:#97c1ff"/></clipPath></defs><title/><g style="opacity:0.30000000000000004"><path d="M2.31479,48.66277a30.00059,30.00059,0,0,1,23.51163-25.0453A19.68967,19.68967,0,0,0,36.75906,17.0691a37.01139,37.01139,0,0,1,64.2547,15.37177,21.01331,21.01331,0,0,0,10.88216,13.67358c14.16287,7.35847,21.25849,26.45884,8.3499,44.38322a16.60222,16.60222,0,0,1-6.35231,4.90944,20.57854,20.57854,0,0,0-10.01954,10.876,28.48779,28.48779,0,0,1-42.6239,12.6366,20.05863,20.05863,0,0,0-16.62372-2.94261A29.00072,29.00072,0,0,1,8.58824,82.18442,20.08025,20.08025,0,0,0,6.07871,68.05283,29.83225,29.83225,0,0,1,2.31479,48.66277Z" style="fill:#97c1ff"/><g style="clip-path:url(#clip-path)"><rect height="23" style="fill:#4fbdff" width="121.5" x="3.5" y="105"/><circle cx="37.75" cy="18.25" r="7.75" style="fill:#fff27d"/><path d="M121,48H109a1,1,0,0,1,0-2h12a1,1,0,0,1,0,2Z" style="fill:#fff"/><path d="M117,52.001h-6.00244a1,1,0,0,1,0-2H117a1,1,0,0,1,0,2Z" style="fill:#fff"/><path d="M115,56.001h-3.99951a1,1,0,0,1,0-2H115a1,1,0,0,1,0,2Z" style="fill:#fff"/><path d="M120,56.001h-1a1,1,0,0,1,0-2h1a1,1,0,0,1,0,2Z" style="fill:#fff"/><polygon points="80.998 93 80.998 33 87 33 87 27 93 27 93 21 99 21 99 27 105 27 105 32.833 110.998 33 110.998 93 80.998 93" style="fill:#96d7ff"/><path d="M110.998,94h-30a.99974.99974,0,0,1-1-1V33a1,1,0,0,1,1-1H86V27a1,1,0,0,1,1-1h5V21a1,1,0,0,1,1-1h6a1,1,0,0,1,1,1v5h5a1,1,0,0,1,1,1v4.86084l5.02588.14014a1.00007,1.00007,0,0,1,.97217.99951V93A.99974.99974,0,0,1,110.998,94Zm-29-2h28V33.97314l-5.02588-.14014A1.00007,1.00007,0,0,1,104,32.8335V28H99a1,1,0,0,1-1-1V22H94v5a1,1,0,0,1-1,1H88v5a1,1,0,0,1-1,1H81.998Z" style="fill:#6d6daa"/><g style="opacity:0.5"><path d="M104.998,94a.99974.99974,0,0,1-1-1V27a1,1,0,0,1,2,0V93A.99974.99974,0,0,1,104.998,94Z" style="fill:#6d6daa"/><path d="M98.998,94a.99974.99974,0,0,1-1-1V27a1,1,0,0,1,2,0V93A.99974.99974,0,0,1,98.998,94Z" style="fill:#6d6daa"/><path d="M92.998,94a.99974.99974,0,0,1-1-1V27a1,1,0,0,1,2,0V93A.99974.99974,0,0,1,92.998,94Z" style="fill:#6d6daa"/><path d="M86.998,94a.99974.99974,0,0,1-1-1V27a1,1,0,0,1,2,0V93A.99974.99974,0,0,1,86.998,94Z" style="fill:#6d6daa"/><path d="M110.998,64h-30a1,1,0,0,1,0-2h30a1,1,0,1,1,0,2Z" style="fill:#6d6daa"/><path d="M110.998,70h-30a1,1,0,0,1,0-2h30a1,1,0,1,1,0,2Z" style="fill:#6d6daa"/><path d="M111,82H81a1,1,0,0,1,0-2h30a1,1,0,0,1,0,2Z" style="fill:#6d6daa"/><path d="M110.998,46h-30a1,1,0,0,1,0-2h30a1,1,0,1,1,0,2Z" style="fill:#6d6daa"/><path d="M110.998,52h-30a1,1,0,0,1,0-2h30a1,1,0,1,1,0,2Z" style="fill:#6d6daa"/><path d="M111,58H81a1,1,0,0,1,0-2h30a1,1,0,0,1,0,2Z" style="fill:#6d6daa"/><path d="M110.998,40h-30a1,1,0,0,1,0-2h30a1,1,0,1,1,0,2Z" style="fill:#6d6daa"/><path d="M110.998,34h-30a1,1,0,0,1,0-2h30a1,1,0,1,1,0,2Z" style="fill:#6d6daa"/><path d="M99,28H93a1,1,0,0,1,0-2h6a1,1,0,0,1,0,2Z" style="fill:#6d6daa"/><path d="M110.998,76h-30a1,1,0,0,1,0-2h30a1,1,0,1,1,0,2Z" style="fill:#6d6daa"/><path d="M111,94H81a1,1,0,0,1,0-2h30a1,1,0,0,1,0,2Z" style="fill:#6d6daa"/><path d="M111,88H81a1,1,0,0,1,0-2h30a1,1,0,0,1,0,2Z" style="fill:#6d6daa"/></g><rect height="95.974" style="fill:#96d7ff" width="30" x="50.99796" y="3.026"/><rect height="94" style="fill:#2c4b75;opacity:0.4" width="2.99796" x="78" y="5"/><path d="M80.998,100h-30a.99974.99974,0,0,1-1-1V3.02588a1,1,0,0,1,1-1h30a1,1,0,0,1,1,1V99A.99974.99974,0,0,1,80.998,100Zm-29-2h28V4.02588h-28Z" style="fill:#6d6daa"/><g style="opacity:0.5"><path d="M74.998,100a.99974.99974,0,0,1-1-1V3.02588a1,1,0,0,1,2,0V99A.99974.99974,0,0,1,74.998,100Z" style="fill:#6d6daa"/><path d="M68.998,100a.99974.99974,0,0,1-1-1V3.02588a1,1,0,0,1,2,0V99A.99974.99974,0,0,1,68.998,100Z" style="fill:#6d6daa"/><path d="M62.998,100a.99974.99974,0,0,1-1-1V3.02588a1,1,0,1,1,2,0V99A.99974.99974,0,0,1,62.998,100Z" style="fill:#6d6daa"/><path d="M56.998,100a.99974.99974,0,0,1-1-1V3.02588a1,1,0,0,1,2,0V99A.99974.99974,0,0,1,56.998,100Z" style="fill:#6d6daa"/><path d="M80.998,52h-30a1,1,0,0,1,0-2h30a1,1,0,0,1,0,2Z" style="fill:#6d6daa"/><path d="M80.998,60h-30a1,1,0,0,1,0-2h30a1,1,0,0,1,0,2Z" style="fill:#6d6daa"/><path d="M81,76H51a1,1,0,0,1,0-2H81a1,1,0,0,1,0,2Z" style="fill:#6d6daa"/><path d="M81,92H51a1,1,0,0,1,0-2H81a1,1,0,0,1,0,2Z" style="fill:#6d6daa"/><path d="M80.998,28h-30a1,1,0,0,1,0-2h30a1,1,0,0,1,0,2Z" style="fill:#6d6daa"/><path d="M80.998,36h-30a1,1,0,0,1,0-2h30a1,1,0,0,1,0,2Z" style="fill:#6d6daa"/><path d="M80.998,44h-30a1,1,0,0,1,0-2h30a1,1,0,0,1,0,2Z" style="fill:#6d6daa"/><path d="M80.998,12h-30a1,1,0,0,1,0-2h30a1,1,0,0,1,0,2Z" style="fill:#6d6daa"/><path d="M80.998,20h-30a1,1,0,0,1,0-2h30a1,1,0,0,1,0,2Z" style="fill:#6d6daa"/><path d="M80.998,68h-30a1,1,0,0,1,0-2h30a1,1,0,0,1,0,2Z" style="fill:#6d6daa"/><path d="M81,100H51a1,1,0,0,1,0-2H81a1,1,0,0,1,0,2Z" style="fill:#6d6daa"/><path d="M81,84H51a1,1,0,0,1,0-2H81a1,1,0,0,1,0,2Z" style="fill:#6d6daa"/></g><path d="M83,4H48.99609a1,1,0,0,1,0-2H83a1,1,0,0,1,0,2Z" style="fill:#6d6daa"/><rect height="64.00004" style="fill:#d6b5b0" width="38" x="19" y="37"/><path d="M57,102H19a.99974.99974,0,0,1-1-1V37a1,1,0,0,1,1-1H57a1,1,0,0,1,1,1v64A.99974.99974,0,0,1,57,102Zm-37-2H56V38H20Z" style="fill:#6d6daa"/><rect height="60.00004" style="fill:#96d7ff" width="30" x="23" y="41"/><rect height="11" style="fill:#d4edff" width="30" x="23" y="41"/><rect height="24.00004" style="fill:#eef6ff" width="4" x="63" y="77"/><path d="M67,102H63a.99974.99974,0,0,1-1-1V77a.99974.99974,0,0,1,1-1h4a.99974.99974,0,0,1,1,1v24A.99974.99974,0,0,1,67,102Zm-3-2h2V78H64Z" style="fill:#6d6daa"/><rect height="24.00004" style="fill:#d4edff" width="6" x="57" y="77"/><path d="M63,102H57a.99974.99974,0,0,1-1-1V77a.99974.99974,0,0,1,1-1h6a.99974.99974,0,0,1,1,1v24A.99974.99974,0,0,1,63,102Zm-5-2h4V78H58Z" style="fill:#6d6daa"/><path d="M53,102H23a.99974.99974,0,0,1-1-1V41a1,1,0,0,1,1-1H53a1,1,0,0,1,1,1v60A.99974.99974,0,0,1,53,102Zm-29-2H52V42H24Z" style="fill:#6d6daa"/><g style="opacity:0.5"><path d="M47,102a.99974.99974,0,0,1-1-1V41a1,1,0,0,1,2,0v60A.99974.99974,0,0,1,47,102Z" style="fill:#6d6daa"/><path d="M41,102a.99974.99974,0,0,1-1-1V41a1,1,0,0,1,2,0v60A.99974.99974,0,0,1,41,102Z" style="fill:#6d6daa"/><path d="M35,102a.99974.99974,0,0,1-1-1V41a1,1,0,0,1,2,0v60A.99974.99974,0,0,1,35,102Z" style="fill:#6d6daa"/><path d="M29,102a.99974.99974,0,0,1-1-1V41a1,1,0,0,1,2,0v60A.99974.99974,0,0,1,29,102Z" style="fill:#6d6daa"/><path d="M53,72H23a1,1,0,0,1,0-2H53a1,1,0,0,1,0,2Z" style="fill:#6d6daa"/><path d="M53,82H23a1,1,0,0,1,0-2H53a1,1,0,0,1,0,2Z" style="fill:#6d6daa"/><path d="M53,92H23a1,1,0,0,1,0-2H53a1,1,0,0,1,0,2Z" style="fill:#6d6daa"/><path d="M57,52H19a1,1,0,0,1,0-2H57a1,1,0,0,1,0,2Z" style="fill:#6d6daa"/><path d="M57,62H19a1,1,0,0,1,0-2H57a1,1,0,0,1,0,2Z" style="fill:#6d6daa"/></g><path d="M63,98.59766a.99974.99974,0,0,1-1-1v-17.165a1,1,0,0,1,2,0v17.165A.99974.99974,0,0,1,63,98.59766Z" style="fill:#6d6daa"/><rect height="3.96904" style="fill:#939fc6" width="10" x="57" y="97.031"/><path d="M67,102H57a.99974.99974,0,0,1-1-1V97.03125a.99974.99974,0,0,1,1-1H67a.99974.99974,0,0,1,1,1V101A.99974.99974,0,0,1,67,102Zm-9-2h8V98.03125H58Z" style="fill:#6d6daa"/><rect height="4" style="fill:#d6b5b0" width="10" x="57" y="73.031"/><path d="M67,78.03125H57a.99974.99974,0,0,1-1-1v-4a.99974.99974,0,0,1,1-1H67a.99974.99974,0,0,1,1,1v4A.99974.99974,0,0,1,67,78.03125Zm-9-2h8v-2H58Z" style="fill:#6d6daa"/><polygon points="19 37 19 32 22 27 54 27 57 32 57 37 19 37" style="fill:#d6b5b0"/><path d="M57,38H19a1,1,0,0,1-1-1V32a1.00166,1.00166,0,0,1,.14258-.51465l3-5A.99976.99976,0,0,1,22,26H54a.99976.99976,0,0,1,.85742.48535l3,5A1.00166,1.00166,0,0,1,58,32v5A1,1,0,0,1,57,38ZM20,36H56V32.27686L53.43359,28H22.56641L20,32.27686Z" style="fill:#6d6daa"/><g style="opacity:0.5"><path d="M46,38a1,1,0,0,1-1-1V27a1,1,0,0,1,2,0V37A1,1,0,0,1,46,38Z" style="fill:#6d6daa"/><path d="M51,38a1,1,0,0,1-1-1V32.09912l-.98047-4.90283a.99992.99992,0,0,1,1.96094-.39258l1,5A.98392.98392,0,0,1,52,32v5A1,1,0,0,1,51,38Z" style="fill:#6d6daa"/><path d="M26,38a1,1,0,0,1-1-1V32a.98392.98392,0,0,1,.01953-.19629l1-5a.99992.99992,0,0,1,1.96094.39258L27,32.09912V37A1,1,0,0,1,26,38Z" style="fill:#6d6daa"/><path d="M41,38a1,1,0,0,1-1-1V27a1,1,0,0,1,2,0V37A1,1,0,0,1,41,38Z" style="fill:#6d6daa"/><path d="M36,38a1,1,0,0,1-1-1V27a1,1,0,0,1,2,0V37A1,1,0,0,1,36,38Z" style="fill:#6d6daa"/><path d="M31,38a1,1,0,0,1-1-1V27a1,1,0,0,1,2,0V37A1,1,0,0,1,31,38Z" style="fill:#6d6daa"/><path d="M57,33H19a1,1,0,0,1,0-2H57a1,1,0,0,1,0,2Z" style="fill:#6d6daa"/></g><path d="M119.99951,108H6a1,1,0,0,1,0-2H119.99951a1,1,0,0,1,0,2Z" style="fill:#6d6daa"/><path d="M124,108h-.99951a1,1,0,0,1,0-2H124a1,1,0,0,1,0,2Z" style="fill:#6d6daa"/><rect height="25.00008" style="fill:#d4edff" width="7.99999" x="7.00019" y="45.99991"/><path d="M15,72H7a.99974.99974,0,0,1-1-1V46a1,1,0,0,1,1-1h8a1,1,0,0,1,1,1V71A.99974.99974,0,0,1,15,72ZM8,70h6V47H8Z" style="fill:#6d6daa"/><g style="opacity:0.5"><path d="M15,57H7a1,1,0,0,1,0-2h8a1,1,0,0,1,0,2Z" style="fill:#6d6daa"/><path d="M15,52H7a1,1,0,0,1,0-2h8a1,1,0,0,1,0,2Z" style="fill:#6d6daa"/><path d="M11,72a.99974.99974,0,0,1-1-1V46a1,1,0,0,1,2,0V71A.99974.99974,0,0,1,11,72Z" style="fill:#6d6daa"/><path d="M15,62H7a1,1,0,0,1,0-2h8a1,1,0,0,1,0,2Z" style="fill:#6d6daa"/><path d="M15,67H7a1,1,0,0,1,0-2h8a1,1,0,0,1,0,2Z" style="fill:#6d6daa"/></g><path d="M11,47a1,1,0,0,1-1-1V43a1,1,0,0,1,2,0v3A1,1,0,0,1,11,47Z" style="fill:#6d6daa"/><path d="M28.97168,113.998a3.114,3.114,0,0,1-2.20752-.91309,1.12223,1.12223,0,0,0-1.58594,0,3.125,3.125,0,0,1-4.41406,0,1.12223,1.12223,0,0,0-1.58594,0,.99989.99989,0,1,1-1.41406-1.41406,3.125,3.125,0,0,1,4.41406,0,1.12223,1.12223,0,0,0,1.58594,0,3.125,3.125,0,0,1,4.41406,0,1.12223,1.12223,0,0,0,1.58594,0,3.125,3.125,0,0,1,4.41406,0,.99989.99989,0,0,1-1.41406,1.41406,1.12223,1.12223,0,0,0-1.58594,0A3.11174,3.11174,0,0,1,28.97168,113.998Z" style="fill:#fff"/><path d="M64.9751,113.99707a3.1058,3.1058,0,0,1-2.20654-.91211,1.12223,1.12223,0,0,0-1.58594,0,3.125,3.125,0,0,1-4.41406,0,1.12223,1.12223,0,0,0-1.58594,0,.99989.99989,0,0,1-1.41406-1.41406,3.125,3.125,0,0,1,4.41406,0,1.12223,1.12223,0,0,0,1.58594,0,3.125,3.125,0,0,1,4.41406,0,1.12223,1.12223,0,0,0,1.58594,0,3.125,3.125,0,0,1,4.41406,0,.99989.99989,0,1,1-1.41406,1.41406,1.12223,1.12223,0,0,0-1.58594,0A3.11211,3.11211,0,0,1,64.9751,113.99707Z" style="fill:#fff"/><path d="M11.97266,119.999a3.112,3.112,0,0,1-2.207-.91309,1.14741,1.14741,0,0,0-1.58545,0,3.12564,3.12564,0,0,1-4.41455,0,.99989.99989,0,0,1,1.41406-1.41406,1.12223,1.12223,0,0,0,1.58594,0,3.19473,3.19473,0,0,1,4.41455,0,1.12076,1.12076,0,0,0,1.58545,0,.99989.99989,0,1,1,1.41406,1.41406A3.11369,3.11369,0,0,1,11.97266,119.999Z" style="fill:#fff"/><path d="M96.98242,113.998a3.112,3.112,0,0,1-2.207-.91309,1.12223,1.12223,0,0,0-1.58594,0,3.125,3.125,0,0,1-4.41406,0,.99989.99989,0,0,1,1.41406-1.41406,1.12223,1.12223,0,0,0,1.58594,0,3.125,3.125,0,0,1,4.41406,0,1.12223,1.12223,0,0,0,1.58594,0,.99989.99989,0,1,1,1.41406,1.41406A3.11369,3.11369,0,0,1,96.98242,113.998Z" style="fill:#fff"/><path d="M82.97949,120.999a3.11286,3.11286,0,0,1-2.207-.91309,1.14741,1.14741,0,0,0-1.58545,0,3.12564,3.12564,0,0,1-4.41455,0,.99989.99989,0,1,1,1.41406-1.41406,1.12223,1.12223,0,0,0,1.58594,0,3.19665,3.19665,0,0,1,4.41455,0,1.12164,1.12164,0,0,0,1.58545,0,.99989.99989,0,0,1,1.41406,1.41406A3.112,3.112,0,0,1,82.97949,120.999Z" style="fill:#fff"/><path d="M114.97705,120.998a3.10774,3.10774,0,0,1-2.207-.91211,1.14741,1.14741,0,0,0-1.58545,0,3.12564,3.12564,0,0,1-4.41455,0,1.14741,1.14741,0,0,0-1.58545,0,3.12564,3.12564,0,0,1-4.41455,0,1.14741,1.14741,0,0,0-1.58545,0,1.00024,1.00024,0,0,1-1.415-1.41406,3.19726,3.19726,0,0,1,4.415,0,1.12164,1.12164,0,0,0,1.58545,0,3.19665,3.19665,0,0,1,4.41455,0,1.12164,1.12164,0,0,0,1.58545,0,3.19665,3.19665,0,0,1,4.41455,0,1.12164,1.12164,0,0,0,1.58545,0,3.19665,3.19665,0,0,1,4.41455,0,1.00024,1.00024,0,1,1-1.415,1.41406,1.1468,1.1468,0,0,0-1.585,0A3.11211,3.11211,0,0,1,114.97705,120.998Z" style="fill:#fff"/><rect height="30.99992" style="fill:#d4edff" width="15.99974" x="3.00025" y="61.00008"/><path d="M19,93H3.00049a.99974.99974,0,0,1-1-1V61a1,1,0,0,1,1-1H19a1,1,0,0,1,1,1V92A.99974.99974,0,0,1,19,93ZM4.00049,91H18V62H4.00049Z" style="fill:#6d6daa"/><g style="opacity:0.5"><path d="M18.99951,72H3a1,1,0,0,1,0-2H18.99951a1,1,0,0,1,0,2Z" style="fill:#6d6daa"/><path d="M19,67H3a1,1,0,0,1,0-2H19a1,1,0,0,1,0,2Z" style="fill:#6d6daa"/><path d="M11,93a.99974.99974,0,0,1-1-1V61a1,1,0,0,1,2,0V92A.99974.99974,0,0,1,11,93Z" style="fill:#6d6daa"/><path d="M7,93a.99974.99974,0,0,1-1-1V61a1,1,0,0,1,2,0V92A.99974.99974,0,0,1,7,93Z" style="fill:#6d6daa"/><path d="M15,93a.99974.99974,0,0,1-1-1V61a1,1,0,0,1,2,0V92A.99974.99974,0,0,1,15,93Z" style="fill:#6d6daa"/><path d="M18.99951,77H3a1,1,0,0,1,0-2H18.99951a1,1,0,0,1,0,2Z" style="fill:#6d6daa"/><path d="M18.99951,82H3a1,1,0,0,1,0-2H18.99951a1,1,0,0,1,0,2Z" style="fill:#6d6daa"/><path d="M18.99951,87H3a1,1,0,0,1,0-2H18.99951a1,1,0,0,1,0,2Z" style="fill:#6d6daa"/></g><rect height="25.00008" style="fill:#d4edff" width="15.99974" x="112.00026" y="60"/><path d="M128,86H112.00049a.99974.99974,0,0,1-1-1V60a1,1,0,0,1,1-1H128a1,1,0,0,1,1,1V85A.99974.99974,0,0,1,128,86Zm-14.99951-2H127V61H113.00049Z" style="fill:#6d6daa"/><rect height="25.00008" style="fill:#96d7ff" width="15.99974" x="112.00026" y="63.99992"/><path d="M128,90H112.00049a.99974.99974,0,0,1-1-1V64a1,1,0,0,1,1-1H128a1,1,0,0,1,1,1V89A.99974.99974,0,0,1,128,90Zm-14.99951-2H127V65H113.00049Z" style="fill:#6d6daa"/><g style="opacity:0.5"><path d="M128,75H112a1,1,0,0,1,0-2h16a1,1,0,0,1,0,2Z" style="fill:#6d6daa"/><path d="M128,70H112a1,1,0,0,1,0-2h16a1,1,0,0,1,0,2Z" style="fill:#6d6daa"/><path d="M116,90a.99974.99974,0,0,1-1-1V64a1,1,0,0,1,2,0V89A.99974.99974,0,0,1,116,90Z" style="fill:#6d6daa"/><path d="M120,90a.99974.99974,0,0,1-1-1V64a1,1,0,0,1,2,0V89A.99974.99974,0,0,1,120,90Z" style="fill:#6d6daa"/><path d="M124,90a.99974.99974,0,0,1-1-1V64a1,1,0,0,1,2,0V89A.99974.99974,0,0,1,124,90Z" style="fill:#6d6daa"/><path d="M128,80H112a1,1,0,0,1,0-2h16a1,1,0,0,1,0,2Z" style="fill:#6d6daa"/><path d="M128,85H112a1,1,0,0,1,0-2h16a1,1,0,0,1,0,2Z" style="fill:#6d6daa"/></g></g><path d="M8.00049,108.001H7.70361a1,1,0,0,1,0-2h.29688a1,1,0,1,1,0,2Z" style="fill:#6d6daa"/><path d="M54,108.001H11a1,1,0,0,1,0-2H54a1,1,0,0,1,0,2Z" style="fill:#6d6daa"/><path d="M5.00293,108H3.00342a1,1,0,1,1,0-2H5.00293a1,1,0,0,1,0,2Z" style="fill:#6d6daa"/><path d="M125,108.001h-3a1,1,0,0,1,0-2h3a1,1,0,0,1,0,2Z" style="fill:#6d6daa"/></g><path d="M126,87.85a10.5,10.5,0,0,0-21,0v.525a2.625,2.625,0,0,0,5.25,0h0a2.625,2.625,0,0,0,5.25,0h0a2.625,2.625,0,0,0,5.25,0h0a2.625,2.625,0,0,0,5.25,0Z" style="fill:#b1f1a8"/><path d="M115.5,77.35A10.5,10.5,0,0,0,105,87.85v.525a2.597,2.597,0,0,0,.14319.81842,10.4863,10.4863,0,0,1,20.71362,0A2.597,2.597,0,0,0,126,88.375V87.85A10.5,10.5,0,0,0,115.5,77.35Z" style="fill:#fff;opacity:0.5"/><path d="M123.375,92a3.61476,3.61476,0,0,1-2.625-1.12793,3.61851,3.61851,0,0,1-5.25,0,3.61851,3.61851,0,0,1-5.25,0A3.62305,3.62305,0,0,1,104,88.375v-.52539a11.5,11.5,0,0,1,23,0V88.375A3.62886,3.62886,0,0,1,123.375,92Zm-1.625-3.625a1.625,1.625,0,0,0,3.25,0v-.52539a9.5,9.5,0,0,0-19,0V88.375a1.625,1.625,0,0,0,3.25,0v-.13477a1,1,0,0,1,2,0V88.375a1.625,1.625,0,0,0,3.25,0v-.13477a1,1,0,0,1,2,0V88.375a1.625,1.625,0,0,0,3.25,0v-.13477a1,1,0,0,1,2,0Z" style="fill:#6d6daa"/><g style="opacity:0.5"><path d="M120.75,89.375a.99974.99974,0,0,1-1-1v-.52539c0-5.59863-2.23975-9.5-4.25-9.5s-4.25,3.90137-4.25,9.5V88.375a1,1,0,0,1-2,0v-.52539c0-6.44824,2.74512-11.5,6.25-11.5s6.25,5.05176,6.25,11.5V88.375A.99974.99974,0,0,1,120.75,89.375Z" style="fill:#6d6daa"/><path d="M115.5,88.84961a.99974.99974,0,0,1-1-1v-10.5a1,1,0,0,1,2,0v10.5A.99974.99974,0,0,1,115.5,88.84961Z" style="fill:#6d6daa"/></g><path d="M114.51141,87H83.57173c6.44577-12.21429,20.40139-25.78572,30.71461-29.00409A72.39229,72.39229,0,0,1,114.51141,87Z" style="fill:#ced8ee"/><path d="M114.51123,88H83.57178a.99972.99972,0,0,1-.88428-1.4668c6.75488-12.7998,21.08887-26.30518,31.30078-29.4917a.99956.99956,0,0,1,1.27295.7334,73.80164,73.80164,0,0,1,.22314,29.45654A1.0007,1.0007,0,0,1,114.51123,88Zm-29.249-2h28.44727a72.72756,72.72756,0,0,0-.16309-26.69385C104.24121,62.7666,91.83447,74.48438,85.26221,86Z" style="fill:#6d6daa"/><path d="M83.57172,87H112.5191c.9856-4.76764,1.41327-16.3819-2.21472-27.23926C100.63037,64.73431,89.177,76.37848,83.57172,87Z" style="fill:#939fc6"/><path d="M100.33073,87H74.74709C77.3254,70.71429,88.92778,51.71429,96.46327,44.34694,100.33073,55.78571,100.33073,74.78571,100.33073,87Z" style="fill:#ced8ee"/><path d="M100.33057,88H74.74707a1.00036,1.00036,0,0,1-.98779-1.15625c2.65186-16.75,14.4834-35.85791,22.00488-43.21143a.9996.9996,0,0,1,1.64648.39453c3.91992,11.59424,3.91992,30.478,3.91992,42.97314A.99974.99974,0,0,1,100.33057,88ZM75.93213,86H99.33057c-.00244-11.77832-.09229-28.6875-3.31934-39.75537C88.86963,53.918,78.70654,70.80078,75.93213,86Z" style="fill:#6d6daa"/><path d="M87.63862,87H61c1-26,11-46,22.77116-57C88.92778,50.35714,87.63862,68,87.63862,87Z" style="fill:#ced8ee"/><path d="M87.63867,88H61a.99941.99941,0,0,1-.999-1.03809c.90186-23.459,9.53271-45.02588,23.0874-57.69238a.99966.99966,0,0,1,1.65186.48486c4.32422,17.07031,4.15234,31.99512,3.9707,47.79541-.03613,3.125-.07227,6.26855-.07227,9.4502A.99974.99974,0,0,1,87.63867,88ZM62.04443,86H86.63965c.00684-2.84863.03906-5.668.07129-8.47266.17432-15.1416.33887-29.47314-3.49609-45.59912C70.94434,44.188,63.10107,64.18506,62.04443,86Z" style="fill:#6d6daa"/><path d="M18.60265,92H39.2291c0-21.40657-5.15661-31.816-20.47668-26.72542C18.60265,74.18306,18.5886,86.22362,18.60265,92Z" style="fill:#f2f9ff"/><path d="M39.229,93H18.60254a1.00006,1.00006,0,0,1-1-.99707c-.01416-5.78027.00146-17.917.1499-26.74512a1.00111,1.00111,0,0,1,.68457-.93262c6.04785-2.00928,10.69678-1.752,14.21338.78516C37.8208,68.84082,40.229,77.38574,40.229,92A.99974.99974,0,0,1,39.229,93ZM19.60059,91H38.2251c-.106-13.12793-2.31494-21.07129-6.74463-24.26758-2.835-2.04492-6.67969-2.28516-11.73975-.72461C19.61084,74.26074,19.59082,85.08789,19.60059,91Z" style="fill:#6d6daa"/><path d="M10.00027,92H34.49418c0-15.00374-8.87164-21.63486-20.47668-20.36222C10.518,77.71072,9.98622,87.95137,10.00027,92Z" style="fill:#f2f9ff"/><path d="M34.49414,93H10.00049a.99985.99985,0,0,1-1-.99609c-.00781-2.26758.15479-13.93066,4.15088-20.86523a1.00094,1.00094,0,0,1,.75732-.49512c6.14551-.6709,11.40918.77832,15.22363,4.19727C33.29443,78.57129,35.49414,84.50488,35.49414,92A.99974.99974,0,0,1,34.49414,93ZM11.00977,91H33.48c-.18213-6.43359-2.13721-11.49219-5.68213-14.66992-3.27637-2.93652-7.82275-4.23145-13.15967-3.749C11.52979,78.40625,11.07324,87.78906,11.00977,91Z" style="fill:#6d6daa"/><path d="M78.27167,36.01257C69.02661,47.60767,61.83929,65.17834,61,87H83.46643C83.46643,70.7,86.35724,54.81506,78.27167,36.01257Z" style="fill:#939fc6"/><path d="M74.74707,87H97.563c.03589-10.789.27716-26.76758-5.48389-37.62921C85.0462,58.46405,76.86176,73.64258,74.74707,87Z" style="fill:#939fc6"/><path d="M108,61.06158C98.86987,66.56512,88.738,77.21033,83.57172,87H118l-10-8Z" style="fill:#c9c1f5"/><path d="M108.97571,79.78058,108,79V61.06158a62.76565,62.76565,0,0,0-10.20361,7.88379c-.07312.06848-.147.13458-.22.20349-.44135.41632-.87738.84351-1.31207,1.27289-.15021.14844-.30145.2948-.45074.4447-.38574.38708-.76611.78156-1.1452,1.17761-.19452.20337-.3894.40594-.58191.61145q-.5148.54913-1.01782,1.10919-.3316.3674-.65912.73773-.46262.525-.91437,1.05676-.35458.41711-.70178.83777-.41611.50327-.82275,1.01031c-.24609.30817-.48694.61792-.72675.9281-.24652.31873-.49268.63757-.73218.958-.25256.33807-.49677.67743-.741,1.01691-.21545.29938-.43292.59845-.6416.89856-.25732.37024-.50287.741-.74921,1.11182-.18134.27283-.36755.54547-.54266.81836-.27222.42432-.52844.84778-.78485,1.2713-.13373.22095-.27551.44238-.40479.6629C84.26965,85.718,83.90894,86.361,83.57172,87c5.60529-5.576,13.10663-7.56824,21.095-8A9.86624,9.86624,0,0,1,108.97571,79.78058Z" style="fill:#2c4b75;opacity:0.2"/><g style="opacity:0.5"><path d="M110.001,88a.99623.99623,0,0,1-.80078-.40039l-6-8A.99718.99718,0,0,1,103,79V61.06152a1,1,0,0,1,2,0V78.667l5.7998,7.7334A.99981.99981,0,0,1,110.001,88Z" style="fill:#6d6daa"/><path d="M104.001,88a.99956.99956,0,0,1-.89551-.55273l-4-8A1.00067,1.00067,0,0,1,99,79V61.06152a1,1,0,0,1,2,0V78.76367l3.89453,7.78906A.99991.99991,0,0,1,104.001,88Z" style="fill:#6d6daa"/><path d="M97.79883,88a.99976.99976,0,0,1-.97461-.78027l-1.7998-8A1.00683,1.00683,0,0,1,95,79V61.06152a1,1,0,0,1,2,0V78.88867l1.77539,7.8916A.99993.99993,0,0,1,97.79883,88Z" style="fill:#6d6daa"/><path d="M92.66553,88a1,1,0,0,1-.99561-.917l-.6665-8L91,67a1,1,0,0,1,2,0V79l.66309,7.917a.99885.99885,0,0,1-.91357,1.0791A.81193.81193,0,0,1,92.66553,88Z" style="fill:#6d6daa"/><path d="M88,88a.99974.99974,0,0,1-1-1V79a.997.997,0,0,1,.01611-.17871l2-11a1,1,0,0,1,1.96777.35742L89,79.08984V87A.99974.99974,0,0,1,88,88Z" style="fill:#6d6daa"/></g><path d="M114.28638,57.99591c-4.507,0-15.04535.50409-24.06946,4.5755A72.56807,72.56807,0,0,0,85.375,57.125C80.69855,65,74.50818,78.46368,72.625,87H83.57172C90.01752,74.78571,103.97314,61.21429,114.28638,57.99591Z" style="fill:#f2f9ff"/><path d="M118,88H83.57178a1,1,0,1,1,0-2h31.57764l-7.77393-6.21875A1.00174,1.00174,0,0,1,107,79V61.06152a1,1,0,0,1,2,0v17.458l9.62451,7.69922A1,1,0,0,1,118,88Z" style="fill:#6d6daa"/><path d="M90.21692,62.57141A72.56807,72.56807,0,0,0,85.375,57.125C80.69855,65,74.50818,78.46368,72.625,87h2.12209A53.1335,53.1335,0,0,1,90.21692,62.57141Z" style="fill:#2c4b75;opacity:0.2"/><path d="M77,52c-1.49536-1.95551-5.0332-4.8139-5.84595-5.00549C65.53687,57.68134,61.60663,71.22711,61,87H74.74707C77.32538,70.71429,88.9278,51.71429,96.46326,44.34692,88.40137,44.90491,81.62549,48.78168,77,52Z" style="fill:#f2f9ff"/><path d="M77,52c-1.49536-1.95551-5.0332-4.8139-5.84595-5.00549C65.53687,57.68134,61.60663,71.22711,61,87,61,87,61.5,61.5,77,52Z" style="fill:#2c4b75;opacity:0.2"/><path d="M83.5708,88a.9994.9994,0,0,1-.8833-1.4668c5.7168-10.832,16.86279-22.1709,26.34375-27.33154a56.48873,56.48873,0,0,0-18.40332,4.28125,1.00118,1.00118,0,0,1-1.24219-.356c-.39844-.5957-2.40918-2.86719-3.873-4.42334a1,1,0,1,1,1.457-1.37012c.91992.978,2.63428,2.86621,3.563,4.00684,9.1626-3.91309,19.61133-4.34424,23.75391-4.34424a.99995.99995,0,0,1,.29785,1.95459c-9.78516,3.05322-23.582,16.11182-30.12842,28.51611A.99871.99871,0,0,1,83.5708,88Z" style="fill:#6d6daa"/><path d="M83.77118,30C64.43384,36.78571,45.09656,62.57141,43.80743,87H61C62,61,72,41,83.77118,30Z" style="fill:#f2f9ff"/><path d="M61,88H43.80762a.99936.99936,0,0,1-.99854-1.05273c1.24951-23.68213,20.23584-50.73389,40.63086-57.89062a.99968.99968,0,0,1,1.01367,1.67383C71.27588,43.04541,62.88184,64.09521,61.999,87.03809A1,1,0,0,1,61,88ZM44.87354,86H60.042c.998-20.98926,8.18213-40.38184,19.52686-53.12012C61.94531,41.7417,46.44531,65.06836,44.87354,86Z" style="fill:#6d6daa"/><path d="M74.74854,88a.95844.95844,0,0,1-.15771-.0127.99974.99974,0,0,1-.83154-1.14355c2.43506-15.38281,12.61328-32.75537,20.085-41.18457-5.26709.86865-10.61768,3.22656-16.27295,7.16162a1.00007,1.00007,0,0,1-1.36572-.21338,22.78182,22.78182,0,0,0-5.30859-4.647.988.988,0,0,1-.73-1.19873,1.00823,1.00823,0,0,1,1.2168-.74023c1.04443.24561,4.06641,2.70459,5.80029,4.64014,6.64551-4.48437,12.938-6.87842,19.21045-7.3125a.99984.99984,0,0,1,.76807,1.7124C89.83936,52.22168,78.31885,70.834,75.73486,87.15625A1.00085,1.00085,0,0,1,74.74854,88Z" style="fill:#6d6daa"/><path d="M59.27725,92H19.181c1.28915-19.86486,9.98571-43.16667,25.91561-52.5C51.54233,51.5,57.24965,74.19129,59.27725,92Z" style="fill:#f2f9ff"/><path d="M59.27725,92H23.181C24.47011,72.13514,32.205,52.27027,45.09656,39.5,51.54233,51.5,57.24965,74.19129,59.27725,92Z" style="fill:#ced8ee"/><path d="M59.27734,93H19.18115a1.00079,1.00079,0,0,1-.998-1.06445c1.27-19.57227,9.92822-43.64307,26.4082-53.29834a.99929.99929,0,0,1,1.38623.38965C52.87109,51.85986,58.38574,75.333,60.271,91.88672A.9999.9999,0,0,1,59.27734,93Zm-39.022-2H58.15332c-2.2085-18.291-7.75439-38.92871-13.44824-50.0918C29.729,50.354,21.69824,72.52344,20.25537,91Z" style="fill:#6d6daa"/><path d="M58.75,92H23.25c3-18,9.75-32.6,20.57143-44.6C50.375,57.525,57.00867,77.0746,58.75,92Z" style="fill:#939fc6"/><path d="M43.125,59.5a17.92337,17.92337,0,0,0-1.9577-2.599A63.30161,63.30161,0,0,0,23.25,92H67.01215C65.723,80.88885,61.85553,65,54.12061,54.5A35.20692,35.20692,0,0,0,43.125,59.5Z" style="fill:#f2f9ff"/><path d="M43.125,59.5a17.92337,17.92337,0,0,0-1.9577-2.599A63.30161,63.30161,0,0,0,23.25,92S26.875,70.375,43.125,59.5Z" style="fill:#2c4b75;opacity:0.2"/><path d="M43.125,60.5a.99892.99892,0,0,1-.853-.47852,16.95024,16.95024,0,0,0-1.85059-2.45459,1.00012,1.00012,0,0,1,1.49219-1.332,20.291,20.291,0,0,1,1.4917,1.86963,36.45141,36.45141,0,0,1,10.45508-4.56982.9998.9998,0,1,1,.52051,1.93066,33.94084,33.94084,0,0,0-10.68262,4.854A.99864.99864,0,0,1,43.125,60.5Z" style="fill:#6d6daa"/><path d="M67.01217,92H29.62672c2.79317-12.25,12.0321-29.5,24.49391-37.5C61.85556,65,65.723,80.88889,67.01217,92Z" style="fill:#ced8ee"/><path d="M67.5,92H29.8c4.075-15.5,14.95-26.25,23.6-31.5C61.125,67.75,66.45619,82.51852,67.5,92Z" style="fill:#939fc6"/><path d="M72.14807,87c.019-5.127-2.34869-15.381-7.08411-23.07147C61.375,63.75,55.25,64.875,51.625,67c-.79462-1.13513-1.99872-2.832-2.75-3.875C37.03,71.3266,32,84.25,29.8,92Z" style="fill:#f2f9ff"/><path d="M72.1481,87H40c5.93831-9.5,14.40919-19,25.06394-23.07143C69.79938,71.619,72.1671,81.873,72.1481,87Z" style="fill:#939fc6"/><path d="M63,69.7c-7.31989,2.41724-18.67023,10.94769-22.955,17.2384H71c-.0246-.1192-.05566-.24213-.08221-.36255L63,78.93842Z" style="fill:#c9c1f5"/><path d="M51.625,67c-.79462-1.13513-1.99872-2.832-2.75-3.875C37.03,71.3266,32,84.25,29.8,92,29.8,92,37.25,73.5,51.625,67Z" style="fill:#2c4b75;opacity:0.2"/><path d="M51.62549,68a1.00008,1.00008,0,0,1-.81982-.42676l-.85791-1.23437c-.53223-.76855-1.06738-1.541-1.55225-2.21387a1.00009,1.00009,0,0,1,1.623-1.16895c.49121.68213,1.03418,1.46533,1.57324,2.24414l.34326.49316A30.04652,30.04652,0,0,1,65.1123,62.92969a1.00019,1.00019,0,0,1-.09668,1.998c-3.50977-.17334-9.42139.9043-12.88477,2.93457A.98981.98981,0,0,1,51.62549,68Z" style="fill:#6d6daa"/><path d="M65.22357,81.08325,63,78.93842V69.7c-7.31989,2.41724-18.67023,10.94769-22.955,17.2384h.03876C44.36,83.67468,52.71832,79.75153,61,80A9.76289,9.76289,0,0,1,65.22357,81.08325Z" style="fill:#2c4b75;opacity:0.2"/><g style="opacity:0.5"><path d="M64.001,88a.99956.99956,0,0,1-.85059-.47266l-5-8.06152A1.00043,1.00043,0,0,1,58,78.93848V71.083a1,1,0,0,1,2,0v7.57031l4.84961,7.81934A1.00034,1.00034,0,0,1,64.001,88Z" style="fill:#6d6daa"/><path d="M58,88a.99991.99991,0,0,1-.937-.65137l-3-8.06152A.99858.99858,0,0,1,54,78.93848V73a1,1,0,0,1,2,0v5.75879l2.937,7.89258A.99929.99929,0,0,1,58,88Z" style="fill:#6d6daa"/><path d="M51.99854,88a.99927.99927,0,0,1-.99072-.877l-1-8.06152A.94632.94632,0,0,1,50,78.93848V75a1,1,0,0,1,2,0v3.877l.99219,8a.999.999,0,0,1-.86914,1.11523A.8929.8929,0,0,1,51.99854,88Z" style="fill:#6d6daa"/><path d="M47,88a.99974.99974,0,0,1-1-1V78a1,1,0,0,1,2,0v9A.99974.99974,0,0,1,47,88Z" style="fill:#6d6daa"/></g><path d="M71,88a.99671.99671,0,0,1-.71-.2959l-8-8.06152a1.00131,1.00131,0,0,1-.29-.7041V69.52734a1,1,0,0,1,2,0v8.999l7.71,7.76953A.99976.99976,0,0,1,71,88Z" style="fill:#6d6daa"/><path d="M65.064,63.92853C54.40918,68,45.93829,77.5,40,87c4.25159-6.29633,15.875-14.875,23.21832-17.3C66.75,73.125,70.625,80.875,71.875,87h.27307C72.16711,81.873,69.79938,71.619,65.064,63.92853Z" style="fill:#ced8ee"/><rect height="15" style="fill:#fedbc1" width="28" x="48" y="87"/><rect height="5" style="fill:#939fc6" width="28" x="48" y="87"/><path d="M76,103H48a.99974.99974,0,0,1-1-1V87a.99974.99974,0,0,1,1-1H76a.99974.99974,0,0,1,1,1v15A.99974.99974,0,0,1,76,103Zm-27-2H75V88H49Z" style="fill:#6d6daa"/><path d="M73,93H51a1,1,0,0,1,0-2H73a1,1,0,0,1,0,2Z" style="fill:#6d6daa"/><g style="opacity:0.2"><rect height="15" style="fill:#6d6daa" width="2" x="50.99951" y="86.99902"/><rect height="15" style="fill:#6d6daa" width="2" x="54.99951" y="86.99902"/><rect height="15" style="fill:#6d6daa" width="2" x="58.99951" y="86.99902"/><rect height="15" style="fill:#6d6daa" width="2" x="62.99951" y="86.99902"/><rect height="15" style="fill:#6d6daa" width="2" x="66.99951" y="86.99902"/><rect height="15" style="fill:#6d6daa" width="2" x="70.99951" y="86.99902"/></g><g style="opacity:0.5"><rect height="3.99902" style="fill:#6d6daa" width="2" x="50.99951" y="98"/><rect height="3.99902" style="fill:#6d6daa" width="2" x="54.99951" y="98"/><rect height="3.99902" style="fill:#6d6daa" width="2" x="58.99951" y="98"/><rect height="3.99902" style="fill:#6d6daa" width="2" x="62.99951" y="98"/><rect height="3.99902" style="fill:#6d6daa" width="2" x="66.99951" y="98"/><rect height="3.99902" style="fill:#6d6daa" width="2" x="70.99951" y="98"/></g><polygon points="86 102 118 102 118 97 116 97 116 92 114 92 114 87 86 87 86 102" style="fill:#fedbc1"/><rect height="5" style="fill:#939fc6" width="28" x="86" y="87"/><g style="opacity:0.2"><rect height="15" style="fill:#6d6daa" width="2" x="88.99951" y="86.99902"/><rect height="15" style="fill:#6d6daa" width="2" x="92.99951" y="86.99902"/><rect height="15" style="fill:#6d6daa" width="2" x="96.99951" y="86.99902"/><rect height="15" style="fill:#6d6daa" width="2" x="100.99951" y="86.99902"/><rect height="15" style="fill:#6d6daa" width="2" x="104.99951" y="86.99902"/><rect height="15" style="fill:#6d6daa" width="2" x="108.99951" y="86.99902"/><rect height="15" style="fill:#6d6daa" width="2" x="112.99951" y="86.99902"/></g><g style="opacity:0.5"><rect height="4.99902" style="fill:#6d6daa" width="2" x="88.99951" y="97"/><rect height="4.99902" style="fill:#6d6daa" width="2" x="92.99951" y="97"/><rect height="4.99902" style="fill:#6d6daa" width="2" x="96.99951" y="97"/><rect height="4.99902" style="fill:#6d6daa" width="2" x="100.99951" y="97"/><rect height="4.99902" style="fill:#6d6daa" width="2" x="104.99951" y="97"/><rect height="4.99902" style="fill:#6d6daa" width="2" x="108.99951" y="97"/><rect height="4.99902" style="fill:#6d6daa" width="2" x="112.99951" y="97"/></g><path d="M118,103H86a.99974.99974,0,0,1-1-1V87a.99974.99974,0,0,1,1-1h28a.99974.99974,0,0,1,1,1v4h1a.99974.99974,0,0,1,1,1v4h1a.99974.99974,0,0,1,1,1v5A.99974.99974,0,0,1,118,103Zm-31-2h30V98h-1a.99974.99974,0,0,1-1-1V93h-1a.99974.99974,0,0,1-1-1V88H87Z" style="fill:#6d6daa"/><path d="M114,93H89a1,1,0,0,1,0-2h25a1,1,0,0,1,0,2Z" style="fill:#6d6daa"/><path d="M116,98H89a1,1,0,0,1,0-2h27a1,1,0,0,1,0,2Z" style="fill:#6d6daa"/><rect height="5" rx="2" ry="2" style="fill:#ebc7c2" width="115" x="6" y="102"/><rect height="5" rx="2" ry="2" style="fill:#fedbc1" width="70" x="51" y="102"/><path d="M119,108H8a3.00328,3.00328,0,0,1-3-3v-1a3.00328,3.00328,0,0,1,3-3H119a3.00328,3.00328,0,0,1,3,3v1A3.00328,3.00328,0,0,1,119,108ZM8,103a1.001,1.001,0,0,0-1,1v1a1.001,1.001,0,0,0,1,1H119a1.001,1.001,0,0,0,1-1v-1a1.001,1.001,0,0,0-1-1Z" style="fill:#6d6daa"/><polygon points="36 87 32 92 8 92 8 102 39 102 48 102 48 87 36 87" style="fill:#ebc7c2"/><g style="opacity:0.2"><rect height="10" style="fill:#6d6daa" width="2" x="19" y="92"/><rect height="10" style="fill:#6d6daa" width="2" x="15" y="92"/><rect height="10" style="fill:#6d6daa" width="2" x="11" y="92"/><rect height="10" style="fill:#6d6daa" width="2" x="23" y="92"/><rect height="10" style="fill:#6d6daa" width="2" x="27" y="92"/><rect height="10" style="fill:#6d6daa" width="2" x="31" y="92"/><rect height="15" style="fill:#6d6daa" width="2" x="35" y="87"/><rect height="15" style="fill:#6d6daa" width="2" x="39" y="87"/><rect height="15" style="fill:#6d6daa" width="2" x="43" y="87"/></g><path d="M48,103H8a.99974.99974,0,0,1-1-1V92a.99974.99974,0,0,1,1-1H31.51953l3.69971-4.625A.99886.99886,0,0,1,36,86H48a.99974.99974,0,0,1,1,1v15A.99974.99974,0,0,1,48,103ZM9,101H47V88H36.48047l-3.69971,4.625A.99886.99886,0,0,1,32,93H9Z" style="fill:#6d6daa"/><path d="M19,97H13a1,1,0,0,1,0-2h6a1,1,0,0,1,0,2Z" style="fill:#6d6daa"/><path d="M42,97H27a1,1,0,0,1,0-2H42a1,1,0,0,1,0,2Z" style="fill:#6d6daa"/><rect height="15" style="fill:#ebc7c2" width="10" x="76" y="87"/><path d="M86,103H76a.99974.99974,0,0,1-1-1V87a.99974.99974,0,0,1,1-1H86a.99974.99974,0,0,1,1,1v15A.99974.99974,0,0,1,86,103Zm-9-2h8V88H77Z" style="fill:#6d6daa"/><path d="M39.999,88a1.00039,1.00039,0,0,1-.84717-1.53027C44.28906,78.252,52.89209,67.50879,64.707,62.99463a1.00151,1.00151,0,0,1,1.2085.40967c5.01855,8.15039,7.25049,18.707,7.23242,23.59961a.99985.99985,0,0,1-1,.99609H72.144a.99975.99975,0,0,1-.99609-1.00391c.0166-4.51367-1.99512-14.12012-6.50439-21.8252C53.74219,69.6582,45.708,79.75586,40.84814,87.53027A.99891.99891,0,0,1,39.999,88Z" style="fill:#6d6daa"/><g style="opacity:0.2"><rect height="15" style="fill:#6d6daa" width="2" x="76.99951" y="87"/><rect height="15" style="fill:#6d6daa" width="2" x="80.99951" y="87"/></g><path d="M29.62793,93a.97191.97191,0,0,1-.22314-.02539.9996.9996,0,0,1-.75293-1.19727c2.93555-12.874,12.44092-30.10254,24.92871-38.11865a1.00051,1.00051,0,0,1,1.34521.248,53.71981,53.71981,0,0,1,5.55957,9.68359,1.0002,1.0002,0,1,1-1.82227.8252,53.08436,53.08436,0,0,0-4.793-8.55078c-11.64648,7.936-20.48584,24.15381-23.26807,36.35791A1.00108,1.00108,0,0,1,29.62793,93Z" style="fill:#6d6daa"/><path d="M46,102a5.00225,5.00225,0,0,0-1.06146.11829,6.99346,6.99346,0,0,0-13.66827-1.027,3.39822,3.39822,0,0,0-2.98572.71991,5.48682,5.48682,0,0,0-9.98883.92084A3.96972,3.96972,0,0,0,12.14142,107H51A5,5,0,0,0,46,102Z" style="fill:#b1f1a8"/><path d="M12.55475,107a3.96692,3.96692,0,0,1,5.741-1.268,5.48682,5.48682,0,0,1,9.98883-.92084,3.39822,3.39822,0,0,1,2.98572-.71991,6.99346,6.99346,0,0,1,13.66827,1.027A4.93071,4.93071,0,0,1,49.97736,107H51a4.98216,4.98216,0,0,0-6.06146-4.88171,6.99346,6.99346,0,0,0-13.66827-1.027,3.39822,3.39822,0,0,0-2.98572.71991,5.48682,5.48682,0,0,0-9.98883.92084A3.96972,3.96972,0,0,0,12.14142,107Z" style="fill:#fff;opacity:0.5"/><path d="M51,108H12.1416a.99952.99952,0,0,1-.96777-.748A4.9351,4.9351,0,0,1,11,106a5.00589,5.00589,0,0,1,5-5,4.95209,4.95209,0,0,1,1.81982.3457,6.48333,6.48333,0,0,1,10.74658-.89941,4.26711,4.26711,0,0,1,2.02246-.44531,7.99292,7.99292,0,0,1,15.15381,1.00488A5.97961,5.97961,0,0,1,52,107,.99974.99974,0,0,1,51,108Zm-38-2H49.87354a3.97825,3.97825,0,0,0-4.72363-2.9043,1.00007,1.00007,0,0,1-1.20361-.85254,5.99319,5.99319,0,0,0-11.71338-.87988.99792.99792,0,0,1-1.18066.70313,2.36614,2.36614,0,0,0-2.13135.5166,1.01442,1.01442,0,0,1-.81934.21191,1.00365,1.00365,0,0,1-.68848-.49316,4.48667,4.48667,0,0,0-8.17041.752.99882.99882,0,0,1-1.52246.49609A2.99177,2.99177,0,0,0,13,106Z" style="fill:#6d6daa"/><path d="M39.43945,102.68262a.99421.99421,0,0,1-.59424-.19629,1.006,1.006,0,0,0-1.31348-.127.99981.99981,0,1,1-1.06348-1.69336,2.96676,2.96676,0,0,1,3.56738.21289.99988.99988,0,0,1-.59619,1.80371Z" style="fill:#6d6daa;opacity:0.5"/><path d="M12.39307,39.64014a1.001,1.001,0,0,1-.75732-.34717A4.00476,4.00476,0,0,0,10,38.04736a1,1,0,0,1,0-2,3.95182,3.95182,0,0,1,2.3877,1.16357A4.05211,4.05211,0,0,1,14.85449,36a1,1,0,1,1,0,2,3.85167,3.85167,0,0,0-1.69287,1.28076,1.00029,1.00029,0,0,1-.75977.35938Z" style="fill:#6d6daa"/></svg>