<?xml version="1.0" ?><svg data-name="012" id="_012" viewBox="0 0 128 128" xmlns="http://www.w3.org/2000/svg"><defs><style>.cls-1,.cls-16,.cls-22,.cls-29,.cls-5,.cls-9{opacity:0.3;}.cls-2{fill:#c9c1f5;}.cls-3{fill:#6d6daa;}.cls-4{fill:#ced8ee;}.cls-5{fill:#2b5c8e;}.cls-6{fill:#939fc6;}.cls-7{fill:#fff07d;}.cls-8{fill:#c7bff3;}.cls-9{fill:#1c64ba;}.cls-10{fill:#eef6ff;}.cls-11{fill:#efdcd2;}.cls-12{fill:#95bfff;}.cls-13{fill:#f9e2dc;}.cls-14{fill:#9eb2cc;}.cls-15{fill:#6d6da8;}.cls-16,.cls-31{fill:#ff9595;}.cls-17{fill:#d6b5b0;}.cls-18{fill:#f7e0da;}.cls-19{fill:#ff97af;}.cls-20{fill:#eddad0;}.cls-21{fill:#afefa6;}.cls-22{fill:#ca7e54;}.cls-23{fill:#ffd397;}.cls-24{fill:#87d9b8;}.cls-25,.cls-28{fill:#fff;}.cls-26{fill:#94d5ff;}.cls-27,.cls-28{opacity:0.5;}.cls-29{fill:#5cbcff;}.cls-30{fill:#ecf4ff;}.cls-32{fill:#96d7ff;}</style></defs><title/><g class="cls-1"><path class="cls-2" d="M6,38.76a31.09,31.09,0,0,0,1.41,35.6,20.45,20.45,0,0,1,4.11,12.56,38.39,38.39,0,0,0,60.8,31.61,21.81,21.81,0,0,1,17.82-3.32c16.1,3.86,34.64-6.29,36.7-29.11a17.29,17.29,0,0,0-1.64-8.16,21.33,21.33,0,0,1-.47-15.33A29.54,29.54,0,0,0,99.94,23.75a20.83,20.83,0,0,1-15-9,30.08,30.08,0,0,0-51.2,2,20.79,20.79,0,0,1-11.57,9.36A31,31,0,0,0,6,38.76Z"/><path class="cls-3" d="M109,120H17a1,1,0,0,1,0-2h92a1,1,0,0,1,0,2Z"/><path class="cls-3" d="M112.1,120a1,1,0,0,1-1-1,1,1,0,0,1,1-1h.1a1,1,0,0,1,0,2Z"/><path class="cls-3" d="M14,120H12a1,1,0,0,1,0-2h2a1,1,0,0,1,0,2Z"/></g><rect class="cls-4" height="12" width="30" x="49" y="107"/><rect class="cls-5" height="4" width="30" x="49" y="107"/><path class="cls-3" d="M79,120H49a1,1,0,0,1-1-1V107a1,1,0,0,1,1-1H79a1,1,0,0,1,1,1v12A1,1,0,0,1,79,120Zm-29-2H78V108H50Z"/><path class="cls-3" d="M83,120H45a1,1,0,0,1,0-2H83a1,1,0,0,1,0,2Z"/><path class="cls-6" d="M13,23H115a4,4,0,0,1,4,4V95a0,0,0,0,1,0,0H9a0,0,0,0,1,0,0V27A4,4,0,0,1,13,23Z"/><rect class="cls-7" height="32" width="51" x="13" y="27"/><rect class="cls-8" height="32" width="51" x="64" y="27"/><rect class="cls-9" height="4" width="102" x="13" y="26.99"/><path class="cls-10" d="M101.13,59l-.24-2a4.4,4.4,0,0,0-2.44-3.47l-4.4-2.08h0a5.32,5.32,0,0,1-4.8,2.75c-2.24,0-4.38-1.21-4.83-2.65l-4.35,2a4.39,4.39,0,0,0-2.48,3.49l-.23,2Z"/><path class="cls-3" d="M101.13,60a1,1,0,0,1-1-.88l-.23-2A3.4,3.4,0,0,0,98,54.46l-4.41-2.09a1,1,0,1,1,.85-1.81l4.41,2.09a5.42,5.42,0,0,1,3,4.25l.24,2a1,1,0,0,1-.87,1.11Z"/><path class="cls-3" d="M77.31,60h-.12a1,1,0,0,1-.87-1.11l.23-2a5.41,5.41,0,0,1,3.06-4.28l4.35-2,.43.9.36.93h0l-4.3,2a3.41,3.41,0,0,0-1.9,2.7l-.23,1.95A1,1,0,0,1,77.31,60Z"/><polygon class="cls-4" points="94.92 53.72 83.55 53.72 83.61 49.81 94.85 49.81 94.92 53.72"/><path class="cls-3" d="M94.93,54.72H83.55a1,1,0,0,1-1-1l.06-3.91a1,1,0,0,1,1-1H94.85a1,1,0,0,1,1,1l.08,3.91a1,1,0,0,1-1,1Zm-10.36-2h9.34l0-1.91H84.59Z"/><path class="cls-11" d="M93.37,49.3a1.88,1.88,0,0,0,.84,2.33c-.65,1.42-3.19,2.13-5,2.63-1.78-.5-4.52-1.22-5-2.63a1.85,1.85,0,0,0,.84-2.33Z"/><path class="cls-3" d="M89.24,55.26a1,1,0,0,1-.47-.11l-5-2.64a1,1,0,0,1,0-1.74c.07,0,.71-.45.44-1.06A1,1,0,1,1,86,48.89a2.63,2.63,0,0,1-.12,2.47l3.35,1.77,3.35-1.78a2.61,2.61,0,0,1-.14-2.45,1,1,0,1,1,1.83.8c-.23.54.26.95.49,1.09a1,1,0,0,1,.44.89,1,1,0,0,1-.53.83l-5,2.64A1,1,0,0,1,89.24,55.26Z"/><path class="cls-10" d="M85,55.38l-3.22-2.69,1.77-2.84,4.27,3.55-1.06,1.7A1.18,1.18,0,0,1,85,55.38Z"/><path class="cls-10" d="M93.48,55.38l3.22-2.69-1.77-2.84L90.66,53.4l1.06,1.7A1.18,1.18,0,0,0,93.48,55.38Z"/><path class="cls-3" d="M85.75,56.65a2.16,2.16,0,0,1-1.39-.5l-3.22-2.69a1,1,0,0,1-.21-1.3l1.78-2.84a1,1,0,0,1,.68-.46,1,1,0,0,1,.8.22l4.27,3.56a1,1,0,0,1,.21,1.3l-1.06,1.69a2.18,2.18,0,0,1-1.51,1A2,2,0,0,1,85.75,56.65Zm-2.66-4.17,2.55,2.13h0a.17.17,0,0,0,.15,0,.21.21,0,0,0,.12-.08l.6-1-2.72-2.27Z"/><path class="cls-3" d="M92.71,56.65a2.07,2.07,0,0,1-.35,0,2.14,2.14,0,0,1-1.5-1L89.8,53.94a1,1,0,0,1,.21-1.3l4.26-3.56a1,1,0,0,1,.8-.22,1,1,0,0,1,.69.46l1.78,2.84a1,1,0,0,1-.21,1.3l-3.22,2.69h0A2.18,2.18,0,0,1,92.71,56.65Zm.76-1.27h0ZM92,53.62l.59,1a.23.23,0,0,0,.13.08.19.19,0,0,0,.15,0l2.55-2.13-.71-1.13Z"/><polygon class="cls-12" points="86.95 55.14 88.5 57.46 89.98 57.46 91.5 55.12 90.72 53.76 87.76 53.76 86.95 55.14"/><path class="cls-3" d="M90.29,60H88.18a1,1,0,0,1-.77-.37,1,1,0,0,1-.21-.83l.32-1.54a1,1,0,0,1,1-.8H90a1,1,0,0,1,1,.8l.31,1.54a1,1,0,0,1-1,1.2Z"/><path class="cls-3" d="M90.29,60a1,1,0,0,1-1-.8l-.07-.37-.08.37a1,1,0,1,1-2-.4l.32-1.54a1,1,0,0,1,1-.8H90a1,1,0,0,1,1,.8l.31,1.54A1,1,0,0,1,90.5,60,.75.75,0,0,1,90.29,60Z"/><path class="cls-3" d="M90,58.46H88.5a1,1,0,0,1-.83-.45L86.12,55.7a1,1,0,0,1,0-1.06l.81-1.39a1,1,0,0,1,.86-.49h2.95a1,1,0,0,1,.87.5l.79,1.36a1,1,0,0,1,0,1.05L90.81,58A1,1,0,0,1,90,58.46Zm-1-2h.4l.9-1.37-.19-.33H88.33l-.2.35Z"/><path class="cls-13" d="M90,50.32H88a3.82,3.82,0,0,1-2.65-1.09L83.1,47A3.66,3.66,0,0,1,82,44.32V37.88c0-5.43,14-5.43,14,0v6.44A3.66,3.66,0,0,1,94.9,47l-2.28,2.28A3.82,3.82,0,0,1,90,50.32Z"/><path class="cls-3" d="M90,51.32H88a4.74,4.74,0,0,1-3.35-1.38l-2.29-2.28A4.71,4.71,0,0,1,81,44.32V37.88c0-3.49,4.15-5.07,8-5.07s8,1.58,8,5.07v6.44a4.71,4.71,0,0,1-1.39,3.34l-2.29,2.28A4.74,4.74,0,0,1,90,51.32ZM89,34.81c-2.91,0-6,1.07-6,3.07v6.44a2.7,2.7,0,0,0,.8,1.92l2.29,2.28a2.76,2.76,0,0,0,1.94.8H90a2.76,2.76,0,0,0,1.94-.8l2.29-2.27a2.74,2.74,0,0,0,.8-1.93V37.88a2.51,2.51,0,0,0-1.65-2.17A9.93,9.93,0,0,0,89,34.81Z"/><path class="cls-14" d="M93.34,31.83c2,.92,3.66,2,3.66,4.79a10,10,0,0,1-.22,2c-.12.62-1,.34-1,.34s0-1.66-1.2-2.13c-3-1.22-7.94.93-11.27-1.35a3.1,3.1,0,0,1-1,2.46s-1.17,0-1.24-.67c-.34-3,.9-4.4,2.24-4.07C86.65,29.8,92.15,31.27,93.34,31.83Z"/><path class="cls-3" d="M96.19,40a2.39,2.39,0,0,1-.72-.11,1,1,0,0,1-.7-.89,1.89,1.89,0,0,0-.7-1.32c-.81-.47-2.24-.36-3.74-.25a13.6,13.6,0,0,1-6.24-.53,4.87,4.87,0,0,1-1,1.64,1.19,1.19,0,0,1-.79.38,2,2,0,0,1-2.23-1.57c-.23-2.09.2-3.72,1.2-4.59a2.39,2.39,0,0,1,1.7-.63c3.66-3.27,9-2,10.79-1.21h0c1.93.85,4.16,2.27,4.25,5.68a10.1,10.1,0,0,1-.24,2.2,1.43,1.43,0,0,1-.68,1A1.69,1.69,0,0,1,96.19,40Zm-4-4.67a5.59,5.59,0,0,1,2.85.62,2.94,2.94,0,0,1,.94.83v-.13c-.06-2.14-1.27-3.11-3.06-3.91h0C91.53,32.12,86.87,31,84,33.89a1,1,0,0,1-1,.26.49.49,0,0,0-.48.12A3,3,0,0,0,82,36.65a1.76,1.76,0,0,0,.24-.63,1.57,1.57,0,0,1,2.22-1.13c1.77.84,3.78.69,5.71.55C90.87,35.38,91.55,35.33,92.21,35.33Z"/><path class="cls-15" d="M89,47.47a2.26,2.26,0,0,1-1.94-.95,1,1,0,0,1,1.67-1.1,1.49,1.49,0,0,0,.56,0,1,1,0,0,1,1.35-.29,1,1,0,0,1,.3,1.4A2.26,2.26,0,0,1,89,47.47Z"/><circle class="cls-16" cx="85.96" cy="43.9" r="0.95"/><circle class="cls-16" cx="92.04" cy="43.9" r="0.95"/><path class="cls-15" d="M86,42a1,1,0,1,1,0-2h0a1,1,0,0,1,0,2Z"/><path class="cls-15" d="M92,42a1,1,0,1,1,0-2h0a1,1,0,0,1,0,2Z"/><path class="cls-15" d="M96.11,44.41H96a1,1,0,0,1-1-1V40.23a1,1,0,0,1,1-1h.11a2.16,2.16,0,0,1,2.16,2.16v.85A2.17,2.17,0,0,1,96.11,44.41Z"/><path class="cls-15" d="M82,44.41h-.11a2.17,2.17,0,0,1-2.16-2.17v-.85a2.16,2.16,0,0,1,2.16-2.16H82a1,1,0,0,1,1,1v3.18A1,1,0,0,1,82,44.41Z"/><path class="cls-17" d="M29,59V40.64C29,35,33,31,38,31h0c5,0,9,4,9,9.64V59Z"/><path class="cls-18" d="M32,38.5a8.66,8.66,0,0,0,9.79-2c0,2.65,2.21,2.32,2.21,2.32v5.42a7,7,0,0,1-3,5.86L39.59,51a2.87,2.87,0,0,1-3.2,0L35,50.08a7,7,0,0,1-3-5.85Z"/><circle class="cls-16" cx="34.33" cy="46.19" r="1.16"/><circle class="cls-16" cx="41.96" cy="46.19" r="1.16"/><path class="cls-15" d="M35,43.72a1,1,0,1,1,0-2h0a1,1,0,0,1,0,2Z"/><path class="cls-15" d="M41.08,43.72a1,1,0,0,1,0-2h0a1,1,0,0,1,0,2Z"/><path class="cls-19" d="M47.18,59a23,23,0,0,0-1-3.46,8.88,8.88,0,0,0-2.82-2.7h0c-.46,1.45-2.62,2.54-5.22,2.54s-4.76-1.09-5.21-2.54h0C31.06,54,29.7,57,29,59Z"/><path class="cls-20" d="M43.37,52.84h0c-.46,1.45-2.62,2.54-5.22,2.54s-4.76-1.09-5.21-2.54h0a8.06,8.06,0,0,1,1.17-.6,1.51,1.51,0,0,0,.84-1.34,1.75,1.75,0,0,0-.13-.65,6.5,6.5,0,0,0,6.67,0,1.52,1.52,0,0,0,.71,2A7.68,7.68,0,0,1,43.37,52.84Z"/><path class="cls-15" d="M38.18,56.38c-2.42,0-5.47-1.21-6.17-3.17a1,1,0,0,1,1.89-.67c.26.74,2.18,1.84,4.28,1.84s3.85-1,4.33-2a1,1,0,1,1,1.78.91C43.41,55.07,40.78,56.38,38.18,56.38Z"/><path class="cls-15" d="M29,60.09a.79.79,0,0,1-.3-.05,1,1,0,0,1-.65-1.25C28.6,57.22,30,53.41,32.41,52a9.44,9.44,0,0,1,1.11-.57,1,1,0,0,1,1.32.51,1,1,0,0,1-.51,1.32,7.08,7.08,0,0,0-.88.45C32,54.58,30.7,57.22,30,59.4A1,1,0,0,1,29,60.09Z"/><path class="cls-15" d="M33.93,53.33a1,1,0,0,1-.92-.6,1,1,0,0,1,.5-1.31l.21-.11h0a.56.56,0,0,0,.22-.43.54.54,0,0,0-.06-.22,1,1,0,0,1,.56-1.3,1,1,0,0,1,1.3.56,2.47,2.47,0,0,1,.2,1,2.52,2.52,0,0,1-1.4,2.25l-.21.1A1,1,0,0,1,33.93,53.33Z"/><path class="cls-15" d="M42.34,53.32a.84.84,0,0,1-.38-.08l-.16-.08a2.47,2.47,0,0,1-1.26-3.23,1,1,0,0,1,1.87.73.47.47,0,0,0,.22.68h0l.13.07a1,1,0,0,1,.46,1.34A1,1,0,0,1,42.34,53.32Z"/><path class="cls-15" d="M47.18,59.89a1,1,0,0,1-1-.67c-.1-.3-.2-.73-.32-1.23a10.13,10.13,0,0,0-.55-1.9,7.92,7.92,0,0,0-2.5-2.39,8.66,8.66,0,0,0-.91-.46,1,1,0,0,1,.82-1.83,8.67,8.67,0,0,1,1.12.58A9.75,9.75,0,0,1,47,55a8.52,8.52,0,0,1,.84,2.54c.1.42.18.8.26,1a1,1,0,0,1-.61,1.28A1,1,0,0,1,47.18,59.89Z"/><path class="cls-15" d="M38,52.5a3.89,3.89,0,0,1-2.16-.66l-1.4-.93A8.05,8.05,0,0,1,31,44.23V38.5a1,1,0,0,1,2,0v5.73a6,6,0,0,0,2.55,5l1.4.93a1.87,1.87,0,0,0,2.09,0l1.41-.93a6.05,6.05,0,0,0,2.55-5V38.8a1,1,0,0,1,1-1h0a1,1,0,0,1,1,1v5.42a8,8,0,0,1-3.45,6.69l-1.4.93A3.9,3.9,0,0,1,38,52.5Z"/><path class="cls-15" d="M38.18,48.72a2.19,2.19,0,0,1-1.87-.92A1,1,0,0,1,38,46.68a.92.92,0,0,0,.44,0,1,1,0,0,1,1.35-.28,1,1,0,0,1,.29,1.41A2.18,2.18,0,0,1,38.18,48.72Zm-.18-2Z"/><path class="cls-17" d="M30.41,38.76a11.92,11.92,0,0,0,12.31-2.27,2.39,2.39,0,0,0,2.77,2.6l.69,0C46,31.9,30,31.89,29.8,38.48Z"/><path class="cls-3" d="M34.79,40.58a15.12,15.12,0,0,1-5.2-.89l-.66-.27a1,1,0,0,1-.55-1.31,1,1,0,0,1,1.3-.55l.66.27a12.86,12.86,0,0,0,12.43-2.11,1,1,0,0,1,1.06-.13,1,1,0,0,1,.57.9,1.54,1.54,0,0,0,.43,1.23,2.21,2.21,0,0,0,1.48.38l.47,0a1,1,0,0,1,1.07.92,1,1,0,0,1-.92,1.08l-.42,0a4.13,4.13,0,0,1-3-.87,3.11,3.11,0,0,1-.74-1A14.28,14.28,0,0,1,34.79,40.58Z"/><path class="cls-3" d="M47,60a1,1,0,0,1-1-1V40.64C46,35.72,42.56,32,38,32s-8,3.72-8,8.64V59a1,1,0,0,1-2,0V40.64C28,34.58,32.3,30,38,30s10,4.58,10,10.64V59A1,1,0,0,1,47,60Z"/><rect class="cls-12" height="32" width="51" x="13" y="59"/><path class="cls-21" d="M48.78,91c-.76-1.56-2.16-3.78-4-4.57,0,0-2-.82-1.95-.78C42.21,87,40.06,88.2,38,88.2S33.62,87,33.16,85.65l-1.88.79c-1.85.77-3.26,3-4,4.56Z"/><path class="cls-20" d="M41.5,82.71c-.44,1,.69,2.48,1.29,2.88-.63,1.37-3.08,2-4.79,2.54-1.71-.49-4.35-1.18-4.79-2.54.59-.35,1.76-1.85,1.29-2.88Z"/><path class="cls-15" d="M38,89.13c-2.26,0-5.1-1.23-5.74-3.23a1,1,0,0,1,.44-1.16c.38-.23,1-1.27.89-1.62a1,1,0,1,1,1.82-.82,3.45,3.45,0,0,1-.92,3.49A5.19,5.19,0,0,0,38,87.13a5,5,0,0,0,3.49-1.4,3.42,3.42,0,0,1-.91-3.42,1,1,0,1,1,1.84.8c-.15.33.47,1.35.92,1.65A1,1,0,0,1,43.7,86C42.88,87.79,40.43,89.13,38,89.13Z"/><path class="cls-15" d="M48.78,92a1,1,0,0,1-.9-.56c-1-2.09-2.29-3.59-3.48-4.1l-1.95-.84a1,1,0,0,1,.79-1.84l1.95.84c2.22,1,3.76,3.58,4.49,5.06a1,1,0,0,1-.46,1.34A1,1,0,0,1,48.78,92Z"/><path class="cls-15" d="M27.24,92a1,1,0,0,1-.45-.1,1,1,0,0,1-.45-1.34c.74-1.49,2.32-4.12,4.56-5l1.87-.79a1,1,0,0,1,.77,1.85l-1.87.78c-1.2.5-2.49,2-3.54,4.1A1,1,0,0,1,27.24,92Z"/><path class="cls-18" d="M38.79,84.08H37.21a3.46,3.46,0,0,1-2.45-1L33.66,82a6.92,6.92,0,0,1-2-4.87V72.28a3.77,3.77,0,0,1,3.78-3.77h5.16a3.77,3.77,0,0,1,3.78,3.77V77.1a6.92,6.92,0,0,1-2,4.87l-1.1,1.1A3.46,3.46,0,0,1,38.79,84.08Z"/><path class="cls-22" d="M40.58,68.51H35.42a3.77,3.77,0,0,0-3.78,3.77v1c0-1.91,3.18-3.5,5.72-3.5a2.86,2.86,0,0,0-1,3.2c3.09-2.28,4.34-.2,6.88-.75,1.07-.23,1.07,2,1.07,2v-2A3.77,3.77,0,0,0,40.58,68.51Z"/><path class="cls-23" d="M41.35,65.54c2.26,1,4.91,3.6,3.75,7.42-.17.56-.63.07-.74.32,0,0,0-2.23-1.07-2-2.54.54-3.79-1.54-6.88.75a2.86,2.86,0,0,1,1-3.2c-2.54,0-5.72,1.59-5.72,3.49,0,0-.88-.64-.95-1.27-.32-2.86,1.21-4.26,3.71-5.36.48-.21.12-3,.65-2.52C36.5,64.55,40.22,65,41.35,65.54Z"/><path class="cls-18" d="M44.36,74.23h.11a1.16,1.16,0,0,1,1.16,1.16v.85a1.16,1.16,0,0,1-1.16,1.16h-.11a0,0,0,0,1,0,0V74.23A0,0,0,0,1,44.36,74.23Z"/><path class="cls-18" d="M30.37,74.23h.11a1.16,1.16,0,0,1,1.16,1.16v.85a1.16,1.16,0,0,1-1.16,1.16h-.11a0,0,0,0,1,0,0V74.23A0,0,0,0,1,30.37,74.23Z" transform="translate(62.02 151.64) rotate(-180)"/><path class="cls-15" d="M44.63,74.33a1.6,1.6,0,0,1-.67-.14,1,1,0,0,1-.6-.91,4.34,4.34,0,0,0-.14-1,6.59,6.59,0,0,1-2.65-.19,3.57,3.57,0,0,0-3.56.71,1,1,0,0,1-.79.18,1,1,0,0,1-.67-.47,3.19,3.19,0,0,1-.19-2.39c-1.52.49-2.72,1.43-2.72,2.17a1,1,0,0,1-1.58.81,3.22,3.22,0,0,1-1.36-2c-.4-3.6,1.82-5.23,3.95-6.23,0-.22,0-.53.05-.74,0-.92.09-1.71.84-2a1.12,1.12,0,0,1,1.19.26c.8.76,2.72,1.25,4.12,1.6a12.18,12.18,0,0,1,1.92.59h0c2.8,1.29,5.6,4.32,4.29,8.62a1.48,1.48,0,0,1-.8.94A1.5,1.5,0,0,1,44.63,74.33Zm-1.19-4.07a1.56,1.56,0,0,1,.91.29C44,68,41.53,66.72,40.93,66.44h0A12.4,12.4,0,0,0,39.35,66a19.1,19.1,0,0,1-3.68-1.21c-.06.82-.2,1.54-.87,1.83-2.12.94-3,1.92-3.14,3.46a8.59,8.59,0,0,1,5.7-2.23,1,1,0,0,1,1,.67A1,1,0,0,1,38,69.61a1.91,1.91,0,0,0-.53.68A5.52,5.52,0,0,1,41,70.17a4.56,4.56,0,0,0,2.08.13A2.2,2.2,0,0,1,43.44,70.26Z"/><path class="cls-15" d="M44.46,78.41h-.1a1,1,0,0,1-1-1V74.23a1,1,0,0,1,1-1h.1a2.17,2.17,0,0,1,2.17,2.16v.85A2.17,2.17,0,0,1,44.46,78.41Z"/><path class="cls-15" d="M31.64,78.41h-.1a2.17,2.17,0,0,1-2.17-2.17v-.85a2.17,2.17,0,0,1,2.17-2.16h.1a1,1,0,0,1,1,1v3.18A1,1,0,0,1,31.64,78.41Z"/><path class="cls-15" d="M38,81.47a2.26,2.26,0,0,1-1.94-1,1,1,0,0,1,1.67-1.1,1.49,1.49,0,0,0,.56,0,1,1,0,0,1,1.35-.29,1,1,0,0,1,.3,1.4A2.26,2.26,0,0,1,38,81.47Z"/><path class="cls-15" d="M38.8,85.11H37.2a4.43,4.43,0,0,1-3.15-1.31l-1-1a8.31,8.31,0,0,1-2.45-5.92V72.28a1,1,0,0,1,2,0v4.63a6.33,6.33,0,0,0,1.87,4.51l1,1a2.49,2.49,0,0,0,1.74.72h1.6a2.49,2.49,0,0,0,1.74-.72l1-1a6.33,6.33,0,0,0,1.87-4.51V73.28a1,1,0,0,1,2,0v3.63a8.31,8.31,0,0,1-2.45,5.92l-1,1A4.43,4.43,0,0,1,38.8,85.11Z"/><circle class="cls-16" cx="34.96" cy="77.9" r="0.95"/><circle class="cls-16" cx="41.04" cy="77.9" r="0.95"/><path class="cls-15" d="M35,76a1,1,0,1,1,0-2h0a1,1,0,1,1,0,2Z"/><path class="cls-15" d="M41,76a1,1,0,1,1,0-2h0a1,1,0,1,1,0,2Z"/><rect class="cls-24" height="32" width="51" x="64" y="59"/><polygon class="cls-25" points="65 91 63 91 63 27 65 27.01 65 91"/><polygon class="cls-25" points="13 60 13 58 115 58 114.98 60 13 60"/><path class="cls-26" d="M98.18,90.69a19.25,19.25,0,0,0-1-3.15,8.88,8.88,0,0,0-2.82-2.7h0c-.46,1.45-2.62,2.54-5.22,2.54s-4.76-1.09-5.21-2.54h0c-1.87,1.12-3.23,4-3.89,6Z"/><path class="cls-20" d="M94.37,84.84h0c-.46,1.45-2.62,2.54-5.22,2.54s-4.76-1.09-5.21-2.54h0a8.06,8.06,0,0,1,1.17-.6,1.51,1.51,0,0,0,.84-1.34,1.75,1.75,0,0,0-.13-.65,6.5,6.5,0,0,0,6.67,0,1.52,1.52,0,0,0,.71,2A7.68,7.68,0,0,1,94.37,84.84Z"/><path class="cls-15" d="M89.18,88.38c-2.42,0-5.47-1.21-6.17-3.17a1,1,0,1,1,1.89-.67c.26.74,2.18,1.84,4.28,1.84s3.85-1,4.33-2a1,1,0,1,1,1.78.91C94.41,87.07,91.78,88.38,89.18,88.38Z"/><path class="cls-15" d="M80,92a1,1,0,0,1-.3,0,1,1,0,0,1-.65-1.26c.5-1.54,1.91-5.26,4.32-6.71a9.44,9.44,0,0,1,1.11-.57,1,1,0,0,1,1.32.51,1,1,0,0,1-.51,1.32,7.08,7.08,0,0,0-.88.45c-1.5.9-2.77,3.49-3.45,5.61A1,1,0,0,1,80,92Z"/><path class="cls-15" d="M84.93,85.33a1,1,0,0,1-.92-.6,1,1,0,0,1,.5-1.31l.21-.11h0a.56.56,0,0,0,.22-.43.54.54,0,0,0-.06-.22,1,1,0,0,1,.56-1.3,1,1,0,0,1,1.3.56,2.47,2.47,0,0,1,.2,1,2.52,2.52,0,0,1-1.4,2.25l-.21.1A1,1,0,0,1,84.93,85.33Z"/><path class="cls-15" d="M93.34,85.32a.84.84,0,0,1-.38-.08l-.16-.08a2.47,2.47,0,0,1-1.26-3.23,1,1,0,0,1,1.87.73.47.47,0,0,0,.22.68h0l.13.07a1,1,0,0,1,.46,1.34A1,1,0,0,1,93.34,85.32Z"/><path class="cls-15" d="M98.18,92a1,1,0,0,1-1-.67A13.31,13.31,0,0,1,96.9,90a10.53,10.53,0,0,0-.54-1.94,7.92,7.92,0,0,0-2.5-2.39,8.66,8.66,0,0,0-.91-.46,1,1,0,0,1,.82-1.83,8.67,8.67,0,0,1,1.12.58A9.75,9.75,0,0,1,98,87a8.36,8.36,0,0,1,.83,2.6c.1.43.2.88.27,1.08a1,1,0,0,1-.61,1.27A1,1,0,0,1,98.18,92Z"/><path class="cls-23" d="M92.51,83.23c5.59,0,6.41-3.8,6.41-5.79a26.46,26.46,0,0,0-.85-7.28,8.84,8.84,0,0,0-8.94-6.66c-4.61,0-8.28,2.74-9,6.66a31.78,31.78,0,0,0-.72,7.28c0,2,1.14,5.8,6.16,5.8Z"/><path class="cls-15" d="M85.54,84.24c-5.65,0-7.16-4.28-7.16-6.8A33.23,33.23,0,0,1,79.11,70c.85-4.4,5-7.47,10-7.47A9.83,9.83,0,0,1,99,69.93a27.34,27.34,0,0,1,.88,7.51c0,1.59-.53,6.79-7.41,6.79a1,1,0,0,1,0-2c4.47,0,5.41-2.61,5.41-4.79a25.09,25.09,0,0,0-.83-7.06,7.85,7.85,0,0,0-8-5.88c-4.08,0-7.39,2.4-8,5.85a30.69,30.69,0,0,0-.7,7.09c0,.49.14,4.8,5.16,4.8a1,1,0,0,1,0,2Z"/><path class="cls-18" d="M82.52,70.5a10.35,10.35,0,0,0,10.82-2,2.12,2.12,0,0,0,2.44,2.32v5.42a6.84,6.84,0,0,1-3.31,5.86L90.91,83a3.46,3.46,0,0,1-3.54,0l-1.54-.93a6.84,6.84,0,0,1-3.31-5.85Z"/><circle class="cls-16" cx="85.33" cy="78.19" r="1.16"/><circle class="cls-16" cx="92.96" cy="78.19" r="1.16"/><path class="cls-15" d="M86,75.72a1,1,0,1,1,0-2h0a1,1,0,1,1,0,2Z"/><path class="cls-15" d="M92.08,75.72a1,1,0,0,1,0-2h0a1,1,0,1,1,0,2Z"/><path class="cls-15" d="M89.15,84.5a4.44,4.44,0,0,1-2.29-.63l-1.55-.93a7.87,7.87,0,0,1-3.79-6.71V70.5a1,1,0,0,1,.45-.84,1,1,0,0,1,1-.07,9.28,9.28,0,0,0,9.74-1.85,1,1,0,0,1,1.67.74,1.11,1.11,0,0,0,1.32,1.33,1,1,0,0,1,.79.25,1,1,0,0,1,.33.74v5.42A7.89,7.89,0,0,1,93,82.94l-1.55.93A4.48,4.48,0,0,1,89.15,84.5ZM83.52,71.88v4.35a5.85,5.85,0,0,0,2.82,5l1.55.93a2.41,2.41,0,0,0,2.51,0L92,81.22a5.85,5.85,0,0,0,2.83-5V71.74a3,3,0,0,1-1.41-.68,2.85,2.85,0,0,1-.64-.82A11.19,11.19,0,0,1,83.52,71.88Z"/><path class="cls-15" d="M89.18,80.72a2.19,2.19,0,0,1-1.87-.92A1,1,0,0,1,89,78.68a.92.92,0,0,0,.44,0,1,1,0,0,1,1.35-.28,1,1,0,0,1,.29,1.41A2.18,2.18,0,0,1,89.18,80.72Zm-.18-2Z"/><g class="cls-27"><polygon class="cls-28" points="115 28.39 13 76.22 13 27 115 27 115 28.39"/><polygon class="cls-28" points="115 35.18 13 83 13 79.61 115 31.79 115 35.18"/></g><path class="cls-3" d="M115,92H13a1,1,0,0,1-1-1V27a1,1,0,0,1,1-1H115a1,1,0,0,1,1,1V91A1,1,0,0,1,115,92ZM14,90H114V28H14Z"/><path class="cls-3" d="M119,96H9a1,1,0,0,1-1-1V27a5,5,0,0,1,5-5H115a5,5,0,0,1,5,5V95A1,1,0,0,1,119,96ZM10,94H118V27a3,3,0,0,0-3-3H13a3,3,0,0,0-3,3Z"/><path class="cls-10" d="M9,95H119a0,0,0,0,1,0,0v8a4,4,0,0,1-4,4H13a4,4,0,0,1-4-4V95A0,0,0,0,1,9,95Z"/><path class="cls-29" d="M115,104H13a4,4,0,0,1-4-4v3a4,4,0,0,0,4,4H115a4,4,0,0,0,4-4v-3A4,4,0,0,1,115,104Z"/><path class="cls-3" d="M115,108H13a5,5,0,0,1-5-5V95a1,1,0,0,1,1-1H119a1,1,0,0,1,1,1v8A5,5,0,0,1,115,108ZM10,96v7a3,3,0,0,0,3,3H115a3,3,0,0,0,3-3V96Z"/><path class="cls-9" d="M64,41A15,15,0,1,1,79,26,15,15,0,0,1,64,41Z"/><circle class="cls-30" cx="64" cy="24" r="14"/><path class="cls-29" d="M64,35A14,14,0,0,1,50.08,22.5,14.76,14.76,0,0,0,50,24a14,14,0,0,0,28,0,14.76,14.76,0,0,0-.08-1.5A14,14,0,0,1,64,35Z"/><path class="cls-25" d="M64,13A14,14,0,0,1,77.92,25.5,14.76,14.76,0,0,0,78,24a14,14,0,0,0-28,0,14.76,14.76,0,0,0,.08,1.5A14,14,0,0,1,64,13Z"/><path class="cls-3" d="M64,39A15,15,0,1,1,79,24,15,15,0,0,1,64,39Zm0-28A13,13,0,1,0,77,24,13,13,0,0,0,64,11Z"/><rect class="cls-31" height="8" width="10" x="57" y="20"/><path class="cls-3" d="M67,29H57a1,1,0,0,1-1-1V20a1,1,0,0,1,.29-.71A1,1,0,0,1,57,19H67a1,1,0,0,1,1,1v8A1,1,0,0,1,67,29Zm-9-2h8V21H58Z"/><path class="cls-3" d="M71,27.4a1,1,0,0,1-.71-.29l-2.4-2.41A1,1,0,0,1,67.6,24a1,1,0,0,1,.29-.7l2.4-2.4a1,1,0,0,1,1.09-.21,1,1,0,0,1,.62.92v4.8a1,1,0,0,1-.62.92A.84.84,0,0,1,71,27.4Z"/><path class="cls-2" d="M108.33,6A5.54,5.54,0,0,0,112,9.72q2.76.91,0,1.85a5.51,5.51,0,0,0-3.69,3.69q-.93,2.76-1.85,0a5.54,5.54,0,0,0-3.69-3.69q-2.78-.93,0-1.85A5.58,5.58,0,0,0,106.48,6Q107.4,3.25,108.33,6Z"/><path class="cls-32" d="M37.17,4.81a4.61,4.61,0,0,0,3.07,3.07c1.54.51,1.54,1,0,1.54a4.6,4.6,0,0,0-3.07,3.08q-.78,2.31-1.54,0a4.61,4.61,0,0,0-3.08-3.08c-1.54-.51-1.54-1,0-1.54a4.62,4.62,0,0,0,3.08-3.07Q36.39,2.5,37.17,4.81Z"/><path class="cls-2" d="M14,10.57A3.7,3.7,0,0,0,16.47,13q1.84.62,0,1.23A3.7,3.7,0,0,0,14,16.72q-.62,1.84-1.23,0a3.7,3.7,0,0,0-2.46-2.46q-1.85-.62,0-1.23a3.7,3.7,0,0,0,2.46-2.46Q13.4,8.73,14,10.57Z"/><path class="cls-2" d="M119,113.57a3.7,3.7,0,0,0,2.46,2.46q1.84.61,0,1.23a3.73,3.73,0,0,0-2.46,2.47q-.62,1.84-1.23,0a3.73,3.73,0,0,0-2.46-2.47q-1.84-.62,0-1.23a3.7,3.7,0,0,0,2.46-2.46Q118.4,111.73,119,113.57Z"/><path class="cls-32" d="M7,107.57A3.73,3.73,0,0,0,9.48,110q1.85.61,0,1.23A3.7,3.7,0,0,0,7,113.73q-.61,1.84-1.23,0a3.7,3.7,0,0,0-2.46-2.46q-1.84-.61,0-1.23a3.73,3.73,0,0,0,2.46-2.47Q6.41,105.73,7,107.57Z"/></svg>