<?xml version="1.0" ?><svg data-name="001" id="_001" viewBox="0 0 128 128" xmlns="http://www.w3.org/2000/svg"><defs><style>.cls-1{opacity:0.3;}.cls-2{fill:#97c1ff;}.cls-3{fill:#eef6ff;}.cls-4{fill:#5cbeff;}.cls-5{fill:#fff;}.cls-6{fill:#6d6daa;}.cls-7{fill:#939fc6;}.cls-8{fill:#b1f1a8;}.cls-9{fill:#89dbba;}.cls-10{fill:#ff9797;}.cls-11{fill:#ffc661;}.cls-12{fill:#fff27d;}.cls-13{opacity:0.5;}.cls-14{fill:#4c5a7f;}.cls-15{fill:#b6b6d4;}</style></defs><title/><g class="cls-1"><path class="cls-2" d="M126.69,47.66a30,30,0,0,0-23.51-25,19.69,19.69,0,0,1-10.93-6.55A37,37,0,0,0,28,31.44,21,21,0,0,1,17.11,45.11C2.94,52.47-4.15,71.57,8.76,89.5a16.6,16.6,0,0,0,6.35,4.91,20.58,20.58,0,0,1,10,10.88,28.49,28.49,0,0,0,42.62,12.64A20.06,20.06,0,0,1,84.38,115a29,29,0,0,0,36-33.79,20.08,20.08,0,0,1,2.51-14.13A29.83,29.83,0,0,0,126.69,47.66Z"/><path class="cls-3" d="M47.07,19a9,9,0,0,0-17.43-4.16,4.82,4.82,0,0,0-7.81,3.76c0,.14,0,.28,0,.41a7.19,7.19,0,0,0,2.39,14H44.71a7.19,7.19,0,0,0,2.35-14Z"/><g class="cls-1"><path class="cls-4" d="M44.71,30.6H24.23a7.22,7.22,0,0,1-7.12-6A7.19,7.19,0,0,0,24.23,33H44.71a7.19,7.19,0,0,0,7.12-8.42A7.22,7.22,0,0,1,44.71,30.6Z"/></g><path class="cls-5" d="M21.84,21.41c0-.14,0-.27,0-.41a4.82,4.82,0,0,1,7.81-3.76A9,9,0,0,1,47.07,21.4,7.22,7.22,0,0,1,51.84,27a7.13,7.13,0,0,0-4.77-8,9,9,0,0,0-17.43-4.16,4.82,4.82,0,0,0-7.81,3.76c0,.14,0,.28,0,.41a7.12,7.12,0,0,0-4.74,8A7.21,7.21,0,0,1,21.84,21.41Z"/><path class="cls-6" d="M44.71,34H24.23a8.19,8.19,0,0,1-3.4-15.66,5.82,5.82,0,0,1,8.37-5A10,10,0,0,1,48.13,18c0,.11,0,.23,0,.34A8.19,8.19,0,0,1,44.71,34ZM26.64,14.8a3.81,3.81,0,0,0-3.82,3.8c0,.11,0,.22,0,.32a1,1,0,0,1-.67,1,6.19,6.19,0,0,0,2.06,12H44.71a6.19,6.19,0,0,0,2-12.06,1,1,0,0,1-.67-1.06,8,8,0,0,0-15.5-3.69,1,1,0,0,1-1.56.43A3.79,3.79,0,0,0,26.64,14.8Z"/><path class="cls-3" d="M44.71,18.6a7.25,7.25,0,0,1,2.37.4"/><path class="cls-6" d="M47.09,20a1,1,0,0,1-.33-.06,6.24,6.24,0,0,0-2-.34,1,1,0,0,1,0-2,8.23,8.23,0,0,1,2.7.45A1,1,0,0,1,47.09,20Z"/><path class="cls-3" d="M21.84,19a7.25,7.25,0,0,1,2.39-.4"/><path class="cls-6" d="M21.84,20a1,1,0,0,1-.33-1.94,8.24,8.24,0,0,1,2.72-.46,1,1,0,0,1,0,2,6.23,6.23,0,0,0-2.06.35A1,1,0,0,1,21.84,20Z"/><path class="cls-3" d="M29.6,14.81a4.83,4.83,0,0,1,1.31,1.56"/><path class="cls-6" d="M30.91,17.38a1,1,0,0,1-.89-.54,3.83,3.83,0,0,0-1-1.24A1,1,0,0,1,30.21,14a5.86,5.86,0,0,1,1.58,1.89,1,1,0,0,1-.88,1.46Z"/><path class="cls-3" d="M10.42,93.5A11.29,11.29,0,0,1,32.21,88.3,6,6,0,0,1,42,93c0,.17,0,.34,0,.51A9,9,0,0,1,39,111H13.36a9,9,0,0,1-2.94-17.5Z"/><g class="cls-1"><path class="cls-4" d="M13.36,108H39a9,9,0,0,0,8.91-7.52A9,9,0,0,1,39,111H13.36a9,9,0,0,1-8.91-10.52A9,9,0,0,0,13.36,108Z"/></g><path class="cls-5" d="M41.95,96.51c0-.17,0-.34,0-.51a6,6,0,0,0-9.77-4.7A11.28,11.28,0,0,0,10.42,96.5a9,9,0,0,0-6,7,8.91,8.91,0,0,1,6-10A11.29,11.29,0,0,1,32.21,88.3,6,6,0,0,1,42,93c0,.17,0,.34,0,.51a8.9,8.9,0,0,1,5.92,10A9,9,0,0,0,41.95,96.51Z"/><path class="cls-6" d="M39,112H13.36a10,10,0,0,1-4-19.17q0-.3,0-.58a12.3,12.3,0,0,1,23.31-5.43,7,7,0,0,1,10.32,6A10,10,0,0,1,39,112ZM21.64,82a10.28,10.28,0,0,0-10.3,10.25,9.93,9.93,0,0,0,.07,1.13,1,1,0,0,1-.67,1.06A8,8,0,0,0,13.36,110H39a8,8,0,0,0,2.66-15.54,1,1,0,0,1-.67-1c0-.14,0-.28,0-.43a5,5,0,0,0-8.15-3.91,1,1,0,0,1-1.56-.43A10.34,10.34,0,0,0,21.64,82Z"/><path class="cls-3" d="M13.36,93a9.06,9.06,0,0,0-3,.5"/><path class="cls-6" d="M10.39,94.5a1,1,0,0,1-.33-1.95A10.06,10.06,0,0,1,13.36,92a1,1,0,0,1,0,2,8,8,0,0,0-2.64.44A1,1,0,0,1,10.39,94.5Z"/><path class="cls-3" d="M42,93.5a9.06,9.06,0,0,0-3-.5"/><path class="cls-6" d="M42,94.5a1,1,0,0,1-.33-.06A8,8,0,0,0,39,94a1,1,0,1,1,0-2,10.06,10.06,0,0,1,3.32.56A1,1,0,0,1,42,94.5Z"/><path class="cls-3" d="M32.25,88.27a6,6,0,0,0-1.64,2"/><path class="cls-6" d="M30.61,91.22a1,1,0,0,1-.88-1.47,7.08,7.08,0,0,1,1.91-2.28,1,1,0,1,1,1.23,1.58,5.07,5.07,0,0,0-1.37,1.63A1,1,0,0,1,30.61,91.22Z"/><path class="cls-3" d="M95.25,18.66a6,6,0,0,1,11.62-2.77,3.21,3.21,0,0,1,5.21,2.51c0,.09,0,.18,0,.27A4.79,4.79,0,0,1,110.48,28H96.82a4.8,4.8,0,0,1-1.57-9.34Z"/><path class="cls-5" d="M95.25,20.66a6,6,0,0,1,11.62-2.77,3.21,3.21,0,0,1,5.21,2.51c0,.09,0,.18,0,.27a4.81,4.81,0,0,1,3.11,3.54,4.76,4.76,0,0,0-3.11-5.54c0-.09,0-.18,0-.27a3.21,3.21,0,0,0-5.21-2.51,6,6,0,0,0-11.62,2.77,4.76,4.76,0,0,0-3.14,5.55A4.81,4.81,0,0,1,95.25,20.66Z"/><g class="cls-1"><path class="cls-4" d="M110.48,26H96.82a4.81,4.81,0,0,1-4.71-3.78,4.75,4.75,0,0,0-.11,1A4.81,4.81,0,0,0,96.82,28h13.66a4.81,4.81,0,0,0,4.82-4.8,4.75,4.75,0,0,0-.11-1A4.81,4.81,0,0,1,110.48,26Z"/></g><path class="cls-6" d="M110.48,29H96.82a5.79,5.79,0,0,1-2.61-11v0a7,7,0,0,1,13.1-3.5A4.22,4.22,0,0,1,113.07,18a5.79,5.79,0,0,1-2.59,11Zm-9.24-16a5,5,0,0,0-5,5,5.24,5.24,0,0,0,0,.56,1,1,0,0,1-.67,1.05A3.8,3.8,0,0,0,96.82,27h13.66a3.79,3.79,0,0,0,1.26-7.38,1,1,0,0,1-.67-1c0-.06,0-.12,0-.19a2.21,2.21,0,0,0-3.59-1.72,1,1,0,0,1-1.56-.43A5,5,0,0,0,101.24,13Z"/><path class="cls-3" d="M96.82,18.4a4.83,4.83,0,0,0-1.58.26"/><path class="cls-6" d="M95.24,19.66a1,1,0,0,1-.33-1.95,5.84,5.84,0,0,1,1.91-.32,1,1,0,0,1,0,2,3.83,3.83,0,0,0-1.25.21A1,1,0,0,1,95.24,19.66Z"/><path class="cls-3" d="M112.07,18.67a4.83,4.83,0,0,0-1.59-.27"/><path class="cls-6" d="M112.07,19.67a1,1,0,0,1-.33-.06,3.84,3.84,0,0,0-1.26-.21,1,1,0,0,1,0-2,5.83,5.83,0,0,1,1.92.32,1,1,0,0,1-.33,1.94Z"/><path class="cls-3" d="M106.9,15.88a3.22,3.22,0,0,0-.87,1"/><path class="cls-6" d="M106,17.92a1,1,0,0,1-.88-1.47,4.25,4.25,0,0,1,1.14-1.37,1,1,0,0,1,1.23,1.58,2.24,2.24,0,0,0-.6.72A1,1,0,0,1,106,17.92Z"/><path class="cls-5" d="M122.51,67a1,1,0,0,1-1-1,1.05,1.05,0,0,1,.29-.71,1,1,0,0,1,.9-.27.62.62,0,0,1,.19.06.54.54,0,0,1,.17.09.94.94,0,0,1,.16.12,1.05,1.05,0,0,1,.29.71,1,1,0,0,1-.29.71A1,1,0,0,1,122.51,67Z"/><path class="cls-5" d="M120.51,71h-6a1,1,0,0,1,0-2h6a1,1,0,0,1,0,2Z"/><path class="cls-5" d="M118.51,67h-7a1,1,0,0,1,0-2h7a1,1,0,0,1,0,2Z"/><path class="cls-5" d="M110.51,71h-2a1,1,0,0,1,0-2h2a1,1,0,0,1,0,2Z"/><path class="cls-5" d="M118.51,75h-8a1,1,0,0,1,0-2h8a1,1,0,0,1,0,2Z"/><path class="cls-5" d="M75,22a.84.84,0,0,1-.38-.08,1.16,1.16,0,0,1-.33-.21,1,1,0,0,1,0-1.42,1.15,1.15,0,0,1,.33-.21,1,1,0,0,1,1.09.21A1,1,0,0,1,75,22Z"/><path class="cls-5" d="M76,18H74a1,1,0,0,1,0-2h2a1,1,0,0,1,0,2Z"/><path class="cls-5" d="M79,14H69a1,1,0,0,1,0-2H79a1,1,0,0,1,0,2Z"/><path class="cls-5" d="M70,18H66a1,1,0,0,1,0-2h4a1,1,0,0,1,0,2Z"/><path class="cls-5" d="M71,22H63a1,1,0,0,1,0-2h8a1,1,0,0,1,0,2Z"/><path class="cls-3" d="M81.27,103a8,8,0,0,1,11.88-8.85,10.49,10.49,0,0,1,18.8,5.25A7.5,7.5,0,0,1,109.5,114h-28a5.5,5.5,0,0,1-.23-11Z"/><path class="cls-5" d="M81.27,106a7.62,7.62,0,0,1-.2-3,5.47,5.47,0,0,0-4.84,7A5.48,5.48,0,0,1,81.27,106Z"/><path class="cls-5" d="M89,96a8,8,0,0,1,4.14,1.16,10.49,10.49,0,0,1,18.8,5.25,7.5,7.5,0,0,1,4.9,5.62,7.49,7.49,0,0,0-4.9-8.62,10.49,10.49,0,0,0-18.8-5.25A8,8,0,0,0,81,101a7.72,7.72,0,0,0,.15,1.45A8,8,0,0,1,89,96Z"/><path class="cls-4" d="M81.27,100c0-.18-.08-.38-.11-.57,0,.2-.07.39-.09.59Z"/><g class="cls-1"><path class="cls-4" d="M109.5,111h-28a5.5,5.5,0,0,1-5.28-4A5.44,5.44,0,0,0,76,108.5a5.5,5.5,0,0,0,5.5,5.5h28a7.43,7.43,0,0,0,7.34-9A7.5,7.5,0,0,1,109.5,111Z"/></g><path class="cls-6" d="M109.5,115h-28a6.5,6.5,0,0,1-1.42-12.84A8.52,8.52,0,0,1,80,101a9,9,0,0,1,12.89-8.11,11.49,11.49,0,0,1,20,5.8A8.5,8.5,0,0,1,109.5,115ZM89,94a7,7,0,0,0-6.77,8.76,1,1,0,0,1-.93,1.25,4.5,4.5,0,0,0,.19,9h28a6.5,6.5,0,0,0,2.12-12.64,1,1,0,0,1-.67-.84,9.49,9.49,0,0,0-17-4.75,1,1,0,0,1-1.32.25A7,7,0,0,0,89,94Z"/><path class="cls-6" d="M111.49,104.75a1,1,0,0,1-1-1.31,9.51,9.51,0,0,0-9-12.44,1,1,0,0,1,0-2,11.51,11.51,0,0,1,10.94,15.06A1,1,0,0,1,111.49,104.75Z"/><path class="cls-6" d="M85.12,105.36a1,1,0,0,1-.66-.25,4.5,4.5,0,0,0-3-1.11,1,1,0,0,1,0-2,6.5,6.5,0,0,1,4.28,1.61,1,1,0,0,1-.66,1.75Z"/><path class="cls-6" d="M95.5,97.34a1,1,0,0,1-.81-.42A7,7,0,0,0,89,94a1,1,0,0,1,0-2,9,9,0,0,1,7.32,3.76,1,1,0,0,1-.81,1.58Z"/></g><circle class="cls-3" cx="65" cy="64" r="42"/><circle class="cls-7" cx="65" cy="64" r="35"/><g class="cls-1"><path class="cls-5" d="M65,95A35,35,0,0,1,30.06,62c0,.66-.06,1.33-.06,2a35,35,0,0,0,70,0c0-.67,0-1.34-.06-2A35,35,0,0,1,65,95Z"/></g><g class="cls-1"><path class="cls-5" d="M55.5,81.45A1,1,0,0,1,54.62,80l.5-.94A18,18,0,1,1,77.37,50.93,18,18,0,0,1,74.91,79l.47,1a1,1,0,1,1-1.77.94l-.5-.94a2,2,0,0,1,.69-2.62,16,16,0,1,0-17.61,0A2,2,0,0,1,56.88,80l-.5.94A1,1,0,0,1,55.5,81.45Z"/></g><path class="cls-8" d="M50.5,38.89l5,8.66a19,19,0,0,0-7,7l-8.66-5h0A29.23,29.23,0,0,1,50.5,38.88Z"/><path class="cls-8" d="M39.89,49.5l8.66,5A18.9,18.9,0,0,0,46,64H36a28.83,28.83,0,0,1,3.88-14.5Z"/><path class="cls-9" d="M48.55,73.5l-8.66,5h0A28.83,28.83,0,0,1,36,64H46A18.9,18.9,0,0,0,48.55,73.5Z"/><path class="cls-9" d="M55.5,80.45l-5,8.66h0A29.23,29.23,0,0,1,39.88,78.5h0l8.66-5A19,19,0,0,0,55.5,80.45Z"/><path class="cls-10" d="M90.11,78.5h0A29.23,29.23,0,0,1,79.5,89.12h0l-5-8.66a18.87,18.87,0,0,0,7-7h0Z"/><path class="cls-10" d="M84,64H94a28.83,28.83,0,0,1-3.88,14.5h0l-8.65-5h0A18.76,18.76,0,0,0,84,64Z"/><path class="cls-11" d="M94,64H84a18.76,18.76,0,0,0-2.55-9.49h0l8.65-5h0A28.83,28.83,0,0,1,94,64Z"/><path class="cls-11" d="M90.12,49.5h0l-8.65,5h0a18.87,18.87,0,0,0-7-7l5-8.66h0A29.23,29.23,0,0,1,90.12,49.5Z"/><path class="cls-12" d="M79.5,38.88h0l-5,8.66A18.9,18.9,0,0,0,65,45V35A28.83,28.83,0,0,1,79.5,38.88Z"/><path class="cls-12" d="M65,35V45a18.9,18.9,0,0,0-9.5,2.55l-5-8.66h0A28.83,28.83,0,0,1,65,35Z"/><g class="cls-13"><path class="cls-6" d="M65,38a1,1,0,0,1-1-1V35a1,1,0,0,1,2,0v2A1,1,0,0,1,65,38Z"/><path class="cls-6" d="M94,65H92a1,1,0,0,1,0-2h2a1,1,0,0,1,0,2Z"/><path class="cls-6" d="M38,65H36a1,1,0,0,1,0-2h2a1,1,0,0,1,0,2Z"/><line class="cls-5" x1="59.96" x2="60.31" y1="35.44" y2="37.41"/><path class="cls-6" d="M60.31,38.41a1,1,0,0,1-1-.83l-.35-2a1,1,0,1,1,2-.35l.35,2a1,1,0,0,1-.81,1.16Z"/><line class="cls-5" x1="93.56" x2="91.59" y1="58.96" y2="59.31"/><path class="cls-6" d="M91.59,60.31a1,1,0,0,1-.17-2l2-.35a1,1,0,0,1,.35,2l-2,.35Z"/><line class="cls-5" x1="38.41" x2="36.44" y1="68.69" y2="69.04"/><path class="cls-6" d="M36.44,70a1,1,0,0,1-.17-2l2-.35a1,1,0,0,1,.35,2l-2,.35Z"/><line class="cls-5" x1="55.08" x2="55.77" y1="36.75" y2="38.63"/><path class="cls-6" d="M55.77,39.63a1,1,0,0,1-.94-.66l-.68-1.88A1,1,0,1,1,56,36.41l.68,1.88a1,1,0,0,1-.94,1.34Z"/><line class="cls-5" x1="92.25" x2="90.37" y1="54.08" y2="54.77"/><path class="cls-6" d="M90.37,55.77A1,1,0,0,1,90,53.83l1.88-.68A1,1,0,1,1,92.59,55l-1.88.68A1,1,0,0,1,90.37,55.77Z"/><line class="cls-5" x1="39.63" x2="37.75" y1="73.23" y2="73.92"/><path class="cls-6" d="M37.75,74.92A1,1,0,0,1,37.41,73l1.88-.68A1,1,0,1,1,40,74.17l-1.88.68A1,1,0,0,1,37.75,74.92Z"/><line class="cls-5" x1="50.5" x2="51.5" y1="38.89" y2="40.62"/><path class="cls-6" d="M51.5,41.62a1,1,0,0,1-.87-.5l-1-1.73a1,1,0,1,1,1.73-1l1,1.73a1,1,0,0,1-.87,1.5Z"/><line class="cls-5" x1="78.5" x2="79.5" y1="87.38" y2="89.11"/><path class="cls-6" d="M79.5,90.11a1,1,0,0,1-.87-.5l-1-1.73a1,1,0,0,1,1.73-1l1,1.73a1,1,0,0,1-.87,1.5Z"/><line class="cls-5" x1="90.11" x2="88.38" y1="49.5" y2="50.5"/><path class="cls-6" d="M88.38,51.5a1,1,0,0,1-.5-1.87l1.73-1a1,1,0,0,1,1,1.73l-1.73,1A1,1,0,0,1,88.38,51.5Z"/><line class="cls-5" x1="41.62" x2="39.89" y1="77.5" y2="78.5"/><path class="cls-6" d="M39.89,79.5a1,1,0,0,1-.5-1.87l1.73-1a1,1,0,0,1,1,1.73l-1.73,1A1,1,0,0,1,39.89,79.5Z"/><line class="cls-5" x1="46.36" x2="47.64" y1="41.79" y2="43.32"/><path class="cls-6" d="M47.65,44.32a1,1,0,0,1-.77-.36l-1.28-1.53a1,1,0,0,1,1.53-1.29l1.28,1.53a1,1,0,0,1-.77,1.64Z"/><line class="cls-5" x1="82.36" x2="83.64" y1="84.68" y2="86.21"/><path class="cls-6" d="M83.64,87.21a1,1,0,0,1-.77-.36l-1.28-1.53A1,1,0,0,1,83.12,84l1.28,1.53a1,1,0,0,1-.77,1.64Z"/><line class="cls-5" x1="87.22" x2="85.68" y1="45.36" y2="46.64"/><path class="cls-6" d="M85.68,47.64A1,1,0,0,1,85,45.88l1.53-1.29a1,1,0,0,1,1.29,1.53l-1.53,1.29A1,1,0,0,1,85.68,47.64Z"/><line class="cls-5" x1="44.32" x2="42.79" y1="81.36" y2="82.64"/><path class="cls-6" d="M42.79,83.64a1,1,0,0,1-.64-1.77l1.53-1.29A1,1,0,0,1,45,82.12l-1.53,1.29A1,1,0,0,1,42.79,83.64Z"/><line class="cls-5" x1="42.79" x2="44.32" y1="45.36" y2="46.64"/><path class="cls-6" d="M44.32,47.64a1,1,0,0,1-.64-.23l-1.53-1.29a1,1,0,0,1,1.29-1.53L45,45.88a1,1,0,0,1-.64,1.77Z"/><line class="cls-5" x1="85.68" x2="87.22" y1="81.36" y2="82.64"/><path class="cls-6" d="M87.21,83.64a1,1,0,0,1-.64-.23L85,82.12a1,1,0,1,1,1.29-1.53l1.53,1.29a1,1,0,0,1-.64,1.77Z"/><line class="cls-5" x1="83.64" x2="82.36" y1="41.79" y2="43.32"/><path class="cls-6" d="M82.36,44.32a1,1,0,0,1-.77-1.64l1.28-1.53a1,1,0,0,1,1.53,1.29L83.12,44A1,1,0,0,1,82.36,44.32Z"/><line class="cls-5" x1="47.64" x2="46.36" y1="84.68" y2="86.21"/><path class="cls-6" d="M46.36,87.21a1,1,0,0,1-.77-1.64L46.88,84a1,1,0,0,1,1.53,1.29l-1.28,1.53A1,1,0,0,1,46.36,87.21Z"/><line class="cls-5" x1="39.89" x2="41.62" y1="49.5" y2="50.5"/><path class="cls-6" d="M41.62,51.5a1,1,0,0,1-.5-.13l-1.73-1a1,1,0,1,1,1-1.73l1.73,1a1,1,0,0,1-.5,1.87Z"/><line class="cls-5" x1="88.38" x2="90.11" y1="77.5" y2="78.5"/><path class="cls-6" d="M90.11,79.5a1,1,0,0,1-.5-.13l-1.73-1a1,1,0,1,1,1-1.73l1.73,1a1,1,0,0,1-.5,1.87Z"/><line class="cls-5" x1="79.5" x2="78.5" y1="38.89" y2="40.62"/><path class="cls-6" d="M78.5,41.62a1,1,0,0,1-.87-1.5l1-1.73a1,1,0,1,1,1.73,1l-1,1.73A1,1,0,0,1,78.5,41.62Z"/><line class="cls-5" x1="51.5" x2="50.5" y1="87.38" y2="89.11"/><path class="cls-6" d="M50.5,90.11a1,1,0,0,1-.87-1.5l1-1.73a1,1,0,1,1,1.73,1l-1,1.73A1,1,0,0,1,50.5,90.11Z"/><line class="cls-5" x1="37.75" x2="39.63" y1="54.08" y2="54.77"/><path class="cls-6" d="M39.63,55.77a1,1,0,0,1-.34-.06L37.41,55a1,1,0,1,1,.68-1.88l1.88.68a1,1,0,0,1-.34,1.94Z"/><line class="cls-5" x1="90.37" x2="92.25" y1="73.23" y2="73.92"/><path class="cls-6" d="M92.25,74.92a1,1,0,0,1-.34-.06L90,74.17a1,1,0,1,1,.68-1.88l1.88.68a1,1,0,0,1-.34,1.94Z"/><line class="cls-5" x1="74.92" x2="74.24" y1="36.75" y2="38.63"/><path class="cls-6" d="M74.24,39.63a1,1,0,0,1-.94-1.34L74,36.41a1,1,0,1,1,1.88.68L75.17,39A1,1,0,0,1,74.24,39.63Z"/><line class="cls-5" x1="36.44" x2="38.41" y1="58.96" y2="59.31"/><path class="cls-6" d="M38.41,60.31l-.17,0-2-.35a1,1,0,0,1,.35-2l2,.35a1,1,0,0,1-.17,2Z"/><line class="cls-5" x1="91.59" x2="93.56" y1="68.69" y2="69.04"/><path class="cls-6" d="M93.56,70l-.17,0-2-.35a1,1,0,1,1,.35-2l2,.35a1,1,0,0,1-.17,2Z"/><line class="cls-5" x1="70.04" x2="69.69" y1="35.44" y2="37.41"/><path class="cls-6" d="M69.69,38.41l-.17,0a1,1,0,0,1-.81-1.16l.35-2a1,1,0,1,1,2,.35l-.35,2A1,1,0,0,1,69.69,38.41Z"/></g><path class="cls-6" d="M48.55,55.5a1,1,0,0,1-.5-.13l-8.62-5A1,1,0,0,1,39,49,30.24,30.24,0,0,1,50,38a1,1,0,0,1,1.41.46l5,8.58A1,1,0,0,1,56,48.42,18,18,0,0,0,49.42,55a1,1,0,0,1-.87.5Zm-7.28-6.36,6.94,4a20,20,0,0,1,5.94-5.94l-4-6.94A28.24,28.24,0,0,0,41.27,49.14Z"/><path class="cls-6" d="M46,65H36a1,1,0,0,1-1-1,29.94,29.94,0,0,1,4-15,1,1,0,0,1,1.38-.36l8.66,5A1,1,0,0,1,49.42,55,18,18,0,0,0,47,64,1,1,0,0,1,46,65Zm-9-2h8a20,20,0,0,1,2.18-8.12l-6.94-4A27.94,27.94,0,0,0,37,63Z"/><path class="cls-6" d="M39.89,79.5A1,1,0,0,1,39,79a29.94,29.94,0,0,1-4-15,1,1,0,0,1,1-1H46a1,1,0,0,1,1,1,18,18,0,0,0,2.42,9A1,1,0,0,1,49,74.37l-8.66,5A1,1,0,0,1,39.89,79.5ZM37,65a27.94,27.94,0,0,0,3.25,12.13l6.94-4A20,20,0,0,1,45,65Z"/><path class="cls-6" d="M50.49,90.12A1,1,0,0,1,50,90,30.24,30.24,0,0,1,39,79a1,1,0,0,1,.45-1.41l8.58-5a1,1,0,0,1,1.37.37A18,18,0,0,0,56,79.58,1,1,0,0,1,56.37,81l-5,8.62A1,1,0,0,1,51,90,1,1,0,0,1,50.49,90.12ZM41.27,78.86a28.24,28.24,0,0,0,8.87,8.87l4-6.94a20,20,0,0,1-5.94-5.94Z"/><path class="cls-6" d="M79.5,90.12a1,1,0,0,1-.91-.59l-5-8.58A1,1,0,0,1,74,79.58,17.87,17.87,0,0,0,80.58,73,1,1,0,0,1,82,72.67l8.51,4.92A1,1,0,0,1,91,79,30.24,30.24,0,0,1,80,90,1,1,0,0,1,79.5,90.12ZM75.85,80.8l4,6.94a28.25,28.25,0,0,0,8.88-8.87l-6.94-4A19.88,19.88,0,0,1,75.85,80.8Z"/><path class="cls-6" d="M90.12,79.5a1,1,0,0,1-.51-.13l-8.65-5a1,1,0,0,1-.21-.16A1,1,0,0,1,80.59,73,17.83,17.83,0,0,0,83,64a1,1,0,0,1,1-1H94a1,1,0,0,1,1,1,29.94,29.94,0,0,1-4,15A1,1,0,0,1,90.12,79.5ZM82.8,73.12l6.94,4A28,28,0,0,0,93,65H85A19.84,19.84,0,0,1,82.8,73.12Z"/><path class="cls-6" d="M94,65H84a1,1,0,0,1-1-1,17.83,17.83,0,0,0-2.41-9,1,1,0,0,1,.16-1.21,1.08,1.08,0,0,1,.22-.17l8.65-5A1,1,0,0,1,91,49a29.94,29.94,0,0,1,4,15A1,1,0,0,1,94,65Zm-9-2h8a28,28,0,0,0-3.24-12.13l-6.94,4A19.84,19.84,0,0,1,85,63Z"/><path class="cls-6" d="M81.45,55.5h-.13a1,1,0,0,1-.74-.49A17.87,17.87,0,0,0,74,48.42,1,1,0,0,1,73.63,47l5-8.62A1,1,0,0,1,80,38,30.24,30.24,0,0,1,91,49a1,1,0,0,1-.45,1.41L82,55.35A1,1,0,0,1,81.45,55.5Zm-5.6-8.3a19.89,19.89,0,0,1,5.94,5.95l6.94-4a28.24,28.24,0,0,0-8.87-8.87Z"/><path class="cls-6" d="M74.5,48.55a1,1,0,0,1-.5-.13A18,18,0,0,0,65,46a1,1,0,0,1-1-1V35a1,1,0,0,1,1-1,29.94,29.94,0,0,1,15,4,1,1,0,0,1,.5.87h0a1,1,0,0,1-.13.5l-5,8.66a1,1,0,0,1-.87.5ZM66,44a20,20,0,0,1,8.12,2.18l4-6.94A27.94,27.94,0,0,0,66,36Z"/><path class="cls-6" d="M55.5,48.55a1,1,0,0,1-.87-.5l-5-8.66a1,1,0,0,1-.13-.5A1,1,0,0,1,50,38a29.94,29.94,0,0,1,15-4,1,1,0,0,1,1,1V45a1,1,0,0,1-1,1,18,18,0,0,0-9,2.42A1,1,0,0,1,55.5,48.55Zm-3.63-9.29,4,6.94A20,20,0,0,1,64,44V36A27.94,27.94,0,0,0,51.87,39.26Z"/><g class="cls-1"><path class="cls-14" d="M65,57a9,9,0,1,0,9,9A9,9,0,0,0,65,57Z"/></g><circle class="cls-7" cx="65" cy="64" r="8"/><path class="cls-6" d="M65,73a9,9,0,1,1,9-9A9,9,0,0,1,65,73Zm0-16a7,7,0,1,0,7,7A7,7,0,0,0,65,57Z"/><path class="cls-5" d="M79.35,48.25,62.17,61.17l5.66,5.66L80.75,49.65A1,1,0,0,0,79.35,48.25Z"/><path class="cls-6" d="M67.83,67.83a1,1,0,0,1-.71-.29l-5.66-5.66a1,1,0,0,1,.11-1.51L78.75,47.45a2,2,0,0,1,2.8,2.8L68.63,67.43a1,1,0,0,1-.73.4Zm-4.13-6.55,4,4L79.95,49.05Zm15.66-13h0Z"/><circle class="cls-3" cx="65" cy="64" r="4" transform="translate(-26.22 64.71) rotate(-45)"/><path class="cls-6" d="M65,69a5,5,0,1,1,3.54-1.46h0A5,5,0,0,1,65,69Zm0-8a3,3,0,0,0-2.12,5.12,3.07,3.07,0,0,0,4.24,0h0A3,3,0,0,0,65,61Z"/><g class="cls-1"><path class="cls-14" d="M65,33A35,35,0,0,1,99.94,66c0-.66.06-1.33.06-2a35,35,0,0,0-70,0c0,.67,0,1.34.06,2A35,35,0,0,1,65,33Z"/></g><g class="cls-1"><path class="cls-5" d="M65,29A35,35,0,0,0,33.23,78.69l63.23-30A35,35,0,0,0,65,29Z"/></g><g class="cls-1"><path class="cls-5" d="M35.61,83,98.3,53.23q-.42-1.3-.94-2.56l-63.15,30C34.65,81.47,35.12,82.24,35.61,83Z"/></g><path class="cls-6" d="M65,100a36,36,0,1,1,36-36A36,36,0,0,1,65,100Zm0-70A34,34,0,1,0,99,64,34,34,0,0,0,65,30Z"/><path class="cls-5" d="M65,26a42,42,0,0,1,41.95,40c0-.66.05-1.33.05-2a42,42,0,0,0-84,0c0,.67,0,1.34.05,2A42,42,0,0,1,65,26Z"/><g class="cls-1"><path class="cls-4" d="M65,102A42,42,0,0,1,23.05,62c0,.66-.05,1.33-.05,2a42,42,0,0,0,84,0c0-.67,0-1.34-.05-2A42,42,0,0,1,65,102Z"/></g><path class="cls-6" d="M65,107a43,43,0,1,1,43-43A43,43,0,0,1,65,107Zm0-84a41,41,0,1,0,41,41A41,41,0,0,0,65,23Z"/><rect class="cls-5" height="8" rx="1" ry="1" width="14" x="58" y="84"/><path class="cls-6" d="M71,93H59a2,2,0,0,1-2-2V85a2,2,0,0,1,2-2H71a2,2,0,0,1,2,2v6A2,2,0,0,1,71,93ZM59,85v6H71V85Z"/><path class="cls-15" d="M68,89H62a1,1,0,0,1,0-2h6a1,1,0,0,1,0,2Z"/><path class="cls-6" d="M25,39H20a1,1,0,0,1,0-2h5a1,1,0,0,1,0,2Z"/><path class="cls-6" d="M23,45H12a1,1,0,0,1,0-2H23a1,1,0,0,1,0,2Z"/><path class="cls-6" d="M21,51H18a1,1,0,0,1,0-2h3a1,1,0,0,1,0,2Z"/><path class="cls-6" d="M13,51H12a1,1,0,0,1,0-2h1a1,1,0,0,1,0,2Z"/><path class="cls-6" d="M19,57H13a1,1,0,0,1,0-2h6a1,1,0,0,1,0,2Z"/><path class="cls-6" d="M19,63H6a1,1,0,0,1,0-2H19a1,1,0,0,1,0,2Z"/><path class="cls-6" d="M9,69H8a1,1,0,0,1,0-2H9a1,1,0,0,1,0,2Z"/><path class="cls-6" d="M19,69H13a1,1,0,0,1,0-2h6a1,1,0,0,1,0,2Z"/><path class="cls-6" d="M19,75H12a1,1,0,0,1,0-2h7a1,1,0,0,1,0,2Z"/><path class="cls-6" d="M21,81H19a1,1,0,0,1,0-2h2a1,1,0,0,1,0,2Z"/><path class="cls-6" d="M15,81H10a1,1,0,0,1,0-2h5a1,1,0,0,1,0,2Z"/><path class="cls-6" d="M24,87H18a1,1,0,0,1,0-2h6a1,1,0,0,1,0,2Z"/><path class="cls-6" d="M29,93H25a1,1,0,0,1,0-2h4a1,1,0,0,1,0,2Z"/></svg>