<?xml version="1.0" ?><svg viewBox="0 0 100 100" xmlns="http://www.w3.org/2000/svg"><defs><style>
      .a, .b {
        fill: none;
        stroke: #4550e5;
        stroke-linejoin: round;
      }

      .a {
        stroke-linecap: round;
      }
    </style></defs><title/><g><g><g><polyline class="a" points="26.776 48.517 33.141 48.517 33.75 48.517 41.92 48.517 50.699 48.517 59.478 48.517 67.647 48.517 68.257 48.517 74.622 48.517"/><polyline class="a" points="74.536 51.443 70.098 51.443 31.3 51.443 26.861 51.443"/><path class="a" d="M26.642,44.091a29.321,29.321,0,0,1,6.5-4.207,37.289,37.289,0,0,1,8.779-2.939,44.982,44.982,0,0,1,17.558,0,37.3,37.3,0,0,1,8.779,2.939,29.321,29.321,0,0,1,6.5,4.207"/><path class="a" d="M27.056,58.393v-.012A42.247,42.247,0,0,1,31.3,51.443a34.608,34.608,0,0,1,2.45-2.926,26.606,26.606,0,0,1,8.17-6.085V42.42a20.727,20.727,0,0,1,17.558,0v.012a26.614,26.614,0,0,1,8.169,6.085A34.437,34.437,0,0,1,70.1,51.443a42.224,42.224,0,0,1,4.243,6.938v.012"/><line class="a" x1="50.699" x2="50.699" y1="36.08" y2="48.517"/><polyline class="a" points="41.92 48.517 41.92 36.944 50.699 40.47 59.478 36.944 59.478 48.517"/><polyline class="a" points="33.141 48.517 33.141 39.884 41.92 42.423"/><polyline class="a" points="68.257 48.517 68.257 39.884 59.478 42.423"/><g><path class="a" d="M17.777,36.921V35.1A1.223,1.223,0,0,1,19,33.885h4.877A1.223,1.223,0,0,1,25.093,35.1v1.817"/><path class="a" d="M25.825,41.3V38.031a1.209,1.209,0,0,0-.732-1.11,1.1,1.1,0,0,0-.487-.11H18.265a1.1,1.1,0,0,0-.488.11,1.21,1.21,0,0,0-.731,1.11V41.3"/><line class="a" x1="22.411" x2="20.46" y1="51.443" y2="51.443"/><path class="a" d="M27.266,65.233l-.21-6.84v-.012l-.2-6.938-.085-2.926-.134-4.426-.049-1.707a1.214,1.214,0,0,0-.768-1.086,1.108,1.108,0,0,0-.451-.1H23.508a.6.6,0,0,0-.609.61v6.706H19.972V41.811a.6.6,0,0,0-.609-.61H17.5a1.108,1.108,0,0,0-.451.1,1.214,1.214,0,0,0-.768,1.086L15.584,66"/><rect class="a" height="2.926" rx="1.219" width="4.39" x="19.241" y="48.517"/><polyline class="a" points="23.63 65.824 23.63 61.685 19.241 61.685 19.241 64.492"/><line class="a" x1="18.509" x2="24.362" y1="61.686" y2="61.686"/><line class="a" x1="19.972" x2="19.972" y1="54.37" y2="55.833"/><line class="a" x1="22.899" x2="22.899" y1="54.37" y2="55.833"/><path class="a" d="M22.9,48.517H19.972V45.591a1.464,1.464,0,0,1,1.463-1.464h0A1.465,1.465,0,0,1,22.9,45.591Z"/></g><g><path class="a" d="M76.3,36.921V35.1a1.223,1.223,0,0,1,1.22-1.219H82.4A1.223,1.223,0,0,1,83.62,35.1v1.817"/><path class="a" d="M75.573,41.3V38.031a1.21,1.21,0,0,1,.731-1.11,1.1,1.1,0,0,1,.488-.11h6.341a1.1,1.1,0,0,1,.487.11,1.209,1.209,0,0,1,.732,1.11V41.3"/><line class="a" x1="80.938" x2="78.987" y1="51.443" y2="51.443"/><path class="a" d="M78.987,51.443a1.223,1.223,0,0,1-1.219-1.219v-.488a1.222,1.222,0,0,1,1.219-1.219H78.5V41.811a.6.6,0,0,0-.61-.61H76.024a1.1,1.1,0,0,0-.451.1,1.214,1.214,0,0,0-.768,1.086l-.049,1.707-.134,4.426-.086,2.926"/><path class="a" d="M85.812,65.967,85.12,42.384a1.214,1.214,0,0,0-.768-1.086,1.108,1.108,0,0,0-.451-.1H82.035a.6.6,0,0,0-.61.61v6.706H78.987"/><polyline class="a" points="74.536 51.443 74.341 58.381 74.341 58.393 74.109 65.957"/><rect class="a" height="2.926" rx="1.219" width="4.39" x="77.768" y="48.517"/><polyline class="a" points="82.157 65.028 82.157 61.685 77.768 61.685 77.768 65.055"/><line class="a" x1="77.036" x2="82.889" y1="61.686" y2="61.686"/><line class="a" x1="78.499" x2="78.499" y1="54.37" y2="55.833"/><line class="a" x1="81.425" x2="81.425" y1="54.37" y2="55.833"/><path class="a" d="M81.425,45.59v2.927H78.5V45.59a1.463,1.463,0,1,1,2.926,0Z"/></g></g><path class="b" d="M70.33,20.875a1.77,1.77,0,0,0-.641.123,2.955,2.955,0,0,0-5.839,0,1.779,1.779,0,1,0-.641,3.437H70.33a1.78,1.78,0,1,0,0-3.56Z"/><path class="b" d="M33.726,28.144a1.452,1.452,0,0,0-.532.1,2.454,2.454,0,0,0-4.849,0,1.452,1.452,0,0,0-.532-.1,1.478,1.478,0,1,0,0,2.956h5.913a1.478,1.478,0,1,0,0-2.956Z"/></g><g><path class="a" d="M10,64.434c2.5,0,2.5,1.6,5,1.6s2.5-1.6,5-1.6,2.5,1.6,5,1.6,2.5-1.6,5-1.6,2.5,1.6,4.994,1.6,2.5-1.6,5-1.6,2.5,1.6,4.995,1.6,2.5-1.6,5-1.6,2.5,1.6,5,1.6,2.5-1.6,5-1.6,2.5,1.6,5,1.6,2.5-1.6,5-1.6,2.5,1.6,5,1.6,2.5-1.6,5-1.6,2.5,1.6,5.008,1.6,2.5-1.6,5.007-1.6"/><g><path class="a" d="M24.009,72.09c2.5,0,2.5-1.6,5-1.6s2.5,1.6,5,1.6,2.5-1.6,5-1.6,2.5,1.6,4.994,1.6,2.5-1.6,5-1.6,2.5,1.6,5,1.6"/><path class="a" d="M38.891,81.5c2.5,0,2.5-1.6,5-1.6s2.5,1.6,4.994,1.6,2.5-1.6,5-1.6,2.5,1.6,4.995,1.6"/><path class="a" d="M75.419,74.578c-2.5,0-2.5,1.6-4.994,1.6s-2.5-1.6-5-1.6-2.5,1.6-5,1.6"/></g></g></g></svg>